<svg version="1.1" xmlns="http://www.w3.org/2000/svg" xmlns:xlink="http://www.w3.org/1999/xlink" x="0px" y="0px" viewBox="0 0 1920 1080" enable-background="new 0 0 1920 1080" xml:space="preserve">
<g xmlns="http://www.w3.org/2000/svg" id="Background">
	<path opacity="0.11" fill-rule="evenodd" clip-rule="evenodd" fill="#e12021" d="M617.543,215.909   c104.503-70.994,266.982-291.283,615.668-178.433s578.323,279.714,546.174,517.131s-238.524,257.121-292.859,407.554   c-39.14,108.364-686.459,271.3-756.133-195.086c-12.824-85.841-318.09-26.501-333.42-230.106   C381.643,333.362,502.128,294.316,617.543,215.909z"/>
	<ellipse opacity="0.11" fill="#e12021" cx="1022.909" cy="1007.31" rx="489.94" ry="30.242"/>
	<g>
		<g>
			<g>
				<g opacity="0.11">
					<path fill="#e12021" d="M1779.164,955.912h-548.87c-9.037,0-16.363-7.326-16.363-16.363V496.552       c0-9.037,7.326-16.363,16.363-16.363h548.87c9.037,0,16.363,7.326,16.363,16.363V939.55       C1795.526,948.586,1788.2,955.912,1779.164,955.912z"/>
				</g>
				<g opacity="0.11">
					<path fill="#e12021" d="M1779.164,955.912h-548.87c-9.037,0-16.363-7.326-16.363-16.363V496.552       c0-9.037,7.326-16.363,16.363-16.363h548.87c9.037,0,16.363,7.326,16.363,16.363V939.55       C1795.526,948.586,1788.2,955.912,1779.164,955.912z"/>
				</g>
			</g>
		</g>
		<g>
			<rect x="1262.223" y="522.348" fill="#e12021" width="224.303" height="178.985"/>
			<polyline fill="#e12021" points="1747.235,871.613 1747.235,913.754 1262.223,913.754 1262.223,829.472 1747.235,829.472      1747.235,871.613    "/>
			<rect x="1520.818" y="522.348" fill="#e12021" width="226.416" height="14.62"/>
			<rect x="1520.818" y="554.607" fill="#e12021" width="226.416" height="14.62"/>
			<rect x="1520.818" y="586.866" fill="#e12021" width="226.416" height="14.62"/>
			<rect x="1520.818" y="619.125" fill="#e12021" width="226.416" height="14.62"/>
			<rect x="1520.818" y="651.385" fill="#e12021" width="226.416" height="14.62"/>
			<rect x="1262.223" y="727.505" fill="#e12021" width="485.012" height="14.62"/>
			<rect x="1262.223" y="759.764" fill="#e12021" width="485.012" height="14.62"/>
			<rect x="1262.223" y="792.024" fill="#e12021" width="485.012" height="14.62"/>
			<rect x="1520.818" y="683.644" fill="#e12021" width="171.294" height="14.62"/>
		</g>
	</g>
	<g>
		<g>
			<path opacity="0.11" fill="#e12021" d="M996.899,829.458H398.005c-9.037,0-16.363-7.326-16.363-16.363V329.179     c0-9.037,7.326-16.363,16.363-16.363h598.894c9.037,0,16.363,7.326,16.363,16.363v483.916     C1013.262,822.132,1005.936,829.458,996.899,829.458z"/>
			<path opacity="0.11" fill="#e12021" d="M996.899,829.458H398.005c-9.037,0-16.363-7.326-16.363-16.363V329.179     c0-9.037,7.326-16.363,16.363-16.363h598.894c9.037,0,16.363,7.326,16.363,16.363v483.916     C1013.262,822.132,1005.936,829.458,996.899,829.458z"/>
		</g>
		<g>
			<rect x="434.088" y="491.811" fill="#e12021" width="526.73" height="273.998"/>
			<rect x="714.926" y="376.465" fill="#e12021" width="245.891" height="15.878"/>
			<rect x="714.926" y="411.499" fill="#e12021" width="245.891" height="15.878"/>
			<rect x="714.926" y="446.533" fill="#e12021" width="245.891" height="15.878"/>
			<rect x="434.088" y="376.465" fill="#e12021" width="245.891" height="15.878"/>
			<rect x="434.088" y="411.499" fill="#e12021" width="245.891" height="15.878"/>
			<rect x="434.088" y="446.533" fill="#e12021" width="245.891" height="15.878"/>
		</g>
	</g>
	<g>
		<g>
			<path opacity="0.11" fill="#e12021" d="M1650.14,414.046h-509.705c-9.037,0-16.363-7.326-16.363-16.363V214.314     c0-9.037,7.326-16.363,16.363-16.363h509.705c9.037,0,16.363,7.326,16.363,16.363v183.369     C1666.503,406.72,1659.177,414.046,1650.14,414.046z"/>
			<path opacity="0.11" fill="#e12021" d="M1650.14,414.046h-509.705c-9.037,0-16.363-7.326-16.363-16.363V214.314     c0-9.037,7.326-16.363,16.363-16.363h509.705c9.037,0,16.363,7.326,16.363,16.363v183.369     C1666.503,406.72,1659.177,414.046,1650.14,414.046z"/>
		</g>
		<g>
			<rect x="1417.675" y="244.355" fill="#e12021" width="203.788" height="123.286"/>
			<rect x="1169.112" y="269.094" fill="#e12021" width="211.17" height="13.636"/>
			<rect x="1169.112" y="299.181" fill="#e12021" width="211.17" height="13.636"/>
			<rect x="1169.112" y="329.267" fill="#e12021" width="211.17" height="13.636"/>
		</g>
	</g>
</g>
<g xmlns="http://www.w3.org/2000/svg" id="Character">
	<g>
		<g>
			<path fill="#FCD2B1" d="M863.345,807.273c-1.033,9.593-1.609,19.8,2.802,28.382c4.411,8.582,15.596,14.393,24.044,9.73     c4.761-2.628,7.494-7.749,9.967-12.593c13.884-27.2,27.768-54.4,41.652-81.599c11.447-22.426,23.199-46.22,21.746-71.357     c-0.672-11.612-4.317-23.193-11.337-32.468c-6.132-8.102-19.458-21.003-28.625-11.53c-9.129,9.433-15.395,25.896-21.174,37.571     c-13.34,26.955-23.623,55.422-30.592,84.679C867.97,774.283,865.127,790.721,863.345,807.273z"/>
			<path fill-rule="evenodd" clip-rule="evenodd" fill="#e12021" d="M963.445,685.171c-0.747-12.921-4.804-25.807-12.615-36.127     c-6.823-9.016-10.813-31.667-21.014-21.127c-10.158,10.497-27.968,37.111-34.397,50.102     c-8.459,17.093-15.772,34.745-21.969,52.782l66.559,32.271C952.5,738.557,965.03,712.583,963.445,685.171z"/>
			<path fill="#F7B690" d="M865.433,805.403c6.752-8.224,18.385-11.105,28.961-9.93c10.577,1.175,20.418,5.796,30.03,10.36     c17.623,8.368,35.23,16.77,52.838,25.172c18.176,8.673,36.352,17.346,54.528,26.019c2.832,1.351,5.948,3.02,6.861,6.022     c0.978,3.215-1.16,6.724-4.071,8.404c-2.911,1.679-6.4,1.952-9.756,2.127c-27.275,1.419-54.743-1.18-81.299-7.537     c-13.411-3.21-26.595-7.375-39.411-12.467c-11.011-4.375-26.637-9.21-35.535-17.297     C860.076,828.546,857.926,814.547,865.433,805.403z"/>
		</g>
		<g>
			<path fill-rule="evenodd" clip-rule="evenodd" fill="#0B4870" d="M979.581,866.697c20.258-2.965,116.405-2.965,136.663,0     c25.194,3.688,21.402,35.042,18.228,53.803c-3.464,20.469-7.702,42.449-22.746,56.755c-14.694,13.973-112.934,13.973-127.628,0     c-15.044-14.306-19.282-36.286-22.745-56.755C958.178,901.739,954.387,870.385,979.581,866.697z"/>
			<path fill-rule="evenodd" clip-rule="evenodd" fill="#0B4870" d="M1332.384,952.679c10.576,11.663,17.476,30.792,8.309,42.91     c-7.766,10.267-224.843-9.928-256.945-9.928c-22.81-29.075-21.908-73.226,36.544-102.982c12.505-6.366,26.238,0.325,39.826,3.183     C1199.443,894.135,1306.114,923.708,1332.384,952.679z"/>
			<path fill-rule="evenodd" clip-rule="evenodd" fill="#0B4870" d="M863.005,745.485c-15.685-1.364-33.002,4.732-40.639,18.5     c-6.245,11.257-4.906,25.49,0.355,37.24c5.261,11.749,13.983,21.546,22.569,31.138     c124.126,138.658,126.134,144.938,146.885,150.505c35.367,9.488,78.066-0.146,46.717-81.356     C1033.839,888.422,901.966,748.875,863.005,745.485z"/>
			<path fill="#FCD2B1" d="M973.456,1029.054c-8.263-4.822-24.648-26.121-43.828-54.173l36.1-12.721     C977.53,1004.041,982.12,1034.11,973.456,1029.054z"/>
			<path fill-rule="evenodd" clip-rule="evenodd" fill="#0E538C" d="M831.566,747.801c22.021-10.622,43.728-7.853,61.309,20.641     c23.706,38.42,55.514,132.191,72.853,193.719l-41.416,18.768c-26.216-59.829-77.901-137.427-97.919-172.674     C815.166,788.491,814.195,756.18,831.566,747.801z"/>
			<g>
				<path fill="#FCD2B1" d="M1082.953,989.925l17.923,33.508c-26.775,1.768-48.32,2.069-57.403-1.695      C1034.338,1017.953,1052.574,1004.601,1082.953,989.925z"/>
				<path fill-rule="evenodd" clip-rule="evenodd" fill="#0E538C" d="M1294.898,952.112c33.481,0,50.012,17.214,50.012,29.339      c0,20.619-12.725,42.664-44.432,42.664c-40.319,0-141.34-1.373-203.298,2.853l-14.228-37.043      C1128.667,967.842,1245.924,952.112,1294.898,952.112z"/>
				<path fill-rule="evenodd" clip-rule="evenodd" fill="#0B4870" d="M1030.215,1017.04c1.22-0.764,10.442-14.362,16.461-16.77      c3.493-1.397,8.205-3.614,11.951-1.781c4.244,2.077,4.439,7.974,6.958,11.525c1.893,2.669,4.479,4.856,7.42,6.309l5.857-7.869      c20.73,9.574,4.263,33.672,25.056,43.59c5.502,2.625,11.55,4.389,16.007,8.661c2.289,2.194,3.895,5.07,4.13,8.233      c0.362,4.888-2.38,7.854-5.908,9.228l-35.071-17.016C1062.12,1050.981,1043.971,1035.838,1030.215,1017.04L1030.215,1017.04z"/>
			</g>
			<path fill-rule="evenodd" clip-rule="evenodd" fill="#0B4870" d="M928.149,1030.827c-0.218-5.542,2.093-10.134,4.472-11.424     c2.379-1.29,6.093-10.58,11.019-24.176c2.253-6.22,14.807-7.958,21.077,2.749c2.035,3.474,3.924,5.728,6.206,5.652     c1.913-0.064,4.056-3.389,5.895-1.191c1.622,1.94,2.06,7.053,2.471,10.696c0.709,6.279,1.351,12.601,2.026,18.899     c0.15,1.395,0.296,2.853,0.341,4.289h-52.36C928.668,1034.783,928.231,1032.911,928.149,1030.827z"/>
		</g>
		<g>
			<path fill="#FCD2B1" d="M1232.479,807.273c1.033,9.593,1.609,19.8-2.802,28.382c-4.411,8.582-15.597,14.393-24.044,9.73     c-4.761-2.628-7.495-7.749-9.967-12.593c-13.884-27.2-27.768-54.4-41.651-81.599c-11.447-22.426-23.199-46.22-21.746-71.357     c0.671-11.612,4.318-23.193,11.337-32.468c6.132-8.102,19.458-21.003,28.625-11.53c9.129,9.433,15.395,25.896,21.173,37.571     c13.339,26.955,23.624,55.422,30.593,84.679C1227.854,774.283,1230.697,790.721,1232.479,807.273z"/>
			<path fill-rule="evenodd" clip-rule="evenodd" fill="#e12021" d="M1132.282,685.171c0.748-12.921,4.804-25.807,12.615-36.127     c6.823-9.016,10.813-31.667,21.014-21.127c10.158,10.497,27.967,37.111,34.396,50.102c8.459,17.093,15.772,34.745,21.969,52.782     l-66.559,32.271C1143.227,738.557,1130.697,712.583,1132.282,685.171z"/>
			<path fill="#FCD2B1" d="M1228.617,810.152c-6.752-8.224-18.385-11.106-28.962-9.93c-10.576,1.175-20.418,5.795-30.03,10.36     c-17.623,8.368-35.23,16.77-52.837,25.172c-18.177,8.673-36.352,17.346-54.529,26.019c-2.832,1.351-5.948,3.019-6.861,6.022     c-0.978,3.216,1.16,6.725,4.071,8.404c2.912,1.679,6.4,1.952,9.756,2.127c27.276,1.419,54.743-1.18,81.3-7.536     c13.411-3.21,26.595-7.375,39.411-12.467c11.012-4.375,26.637-9.21,35.535-17.297     C1233.975,833.295,1236.124,819.296,1228.617,810.152z"/>
		</g>
		<path fill-rule="evenodd" clip-rule="evenodd" fill="#e12021" d="M927.102,630.919c6.486-7.852,16.252-12.137,25.815-15.644    c28.1-10.304,92.562-37.269,94.996-37.219c2.434-0.05,66.896,26.914,94.996,37.219c9.562,3.507,19.328,7.791,25.814,15.644    c8.653,10.476,9.78,25.527,6.669,38.753c-3.111,13.227-9.896,25.235-15.821,37.463c-7.39,15.254-13.506,31.123-18.306,47.378    c-8.67,29.367-13.049,60.002-12.913,90.623c0.042,9.387,5.028,25.265,2.143,34.124c-3.623,11.123-22.804,13.644-32.492,14.891    c-16.596,2.138-33.373,2.847-50.091,2.149c-16.718,0.698-33.495-0.012-50.091-2.149c-9.688-1.247-28.87-3.768-32.492-14.891    c-2.885-8.858,2.101-24.737,2.143-34.124c0.137-30.62-4.242-61.256-12.912-90.623c-4.8-16.255-10.916-32.124-18.306-47.378    c-5.924-12.228-12.71-24.237-15.821-37.463C917.322,656.446,918.448,641.395,927.102,630.919z"/>
		<g>
			<path fill="#FCD2B1" d="M1026.723,574.776c2.62-8.432,4.027-24.2,9.24-29.809c3.13-3.368,19.463-3.368,22.594,0     c5.214,5.609,6.62,21.377,9.24,29.809c2.935,9.445,5.492,20.775,2.427,30.118c-2.146,6.542-6.689,10.468-11.294,11.789     c-3.843,1.103-19.498,1.103-23.341,0c-4.605-1.321-9.147-5.247-11.294-11.789     C1021.231,595.551,1023.788,584.221,1026.723,574.776z"/>
			<path fill="#FFE3CA" d="M1012.668,503.76c5.257-15.32,63.928-15.32,69.185,0c4.182,12.187,4.777,25.941,2.397,38.774     c-2.247,12.116-7.143,23.096-14.007,32.194c-4.681,6.205-41.285,6.205-45.966,0c-6.864-9.097-11.759-20.078-14.007-32.194     C1007.89,529.701,1008.485,515.947,1012.668,503.76z"/>
		</g>
		<path fill="#0E538C" d="M960.647,882.716h177.938c8.321,0,15.255-6.376,15.952-14.669l9.236-109.958    c0.785-9.337-6.583-17.349-15.952-17.349H951.411c-9.37,0-16.737,8.012-15.952,17.349l9.237,109.958    C945.391,876.34,952.325,882.716,960.647,882.716z"/>
		<path fill="#0B4870" d="M1163.379,762.794c-1.692-6.963-7.966-12.223-15.557-12.223H951.411c-7.592,0-13.865,5.26-15.557,12.223    l-0.395-4.705c-0.785-9.337,6.582-17.349,15.952-17.349h196.411c9.37,0,16.737,8.012,15.952,17.349L1163.379,762.794z"/>
	</g>
	<path fill="#FFE3CA" d="M1058.365,583.486h-21.098c-11.418,0-20.674-9.256-20.674-20.674v-40.743   c0-11.418,9.256-20.674,20.674-20.674h21.098c11.418,0,20.674,9.256,20.674,20.674v40.743   C1079.038,574.23,1069.782,583.486,1058.365,583.486z"/>
	<path fill-rule="evenodd" clip-rule="evenodd" fill="#0B4870" d="M1033.781,469.536c5.455,1.299,11.074-0.919,16.307-3.027   c5.233-2.108,10.728-4.328,16.265-3.485c5.536,0.843,10.937,5.981,10.219,11.906c7.466-2.946,16.524-0.481,21.761,5.923   c5.237,6.403,6.309,16.322,2.575,23.832c-2.255,4.536-6.035,8.162-7.682,12.987c-1.883,5.516,0.288,18.755-6.286,21.29   c-5.076,1.957-7.901-38.399-22.139-39.417c-7.555,8.072-20.136,10.135-29.61,4.855c-3.554-1.981-7.322-4.973-11.144-3.683   c-2.552,0.861-5.692,2.089-7.339,4.363c-3.97,5.484-2.81,30.465-8.288,34.587c-2.931-8.825-4.079-18.303-3.441-27.642   c-2.48,0.063-4.971-0.332-7.287-1.279C990.968,507.994,991.144,459.381,1033.781,469.536z"/>
	<path fill="#FFE3CA" d="M1090.874,541.546c1.416-2.618,2.586-5.593,2.193-8.588c-0.393-2.995-2.875-5.84-5.687-5.495   c-1.735,0.213-3.203,1.56-4.096,3.162c-0.894,1.602-1.305,3.45-1.705,5.266c-0.697,3.167-1.394,6.335-2.091,9.502   c-0.587,2.665-0.936,6.047,1.178,7.596C1084.53,555.821,1089.332,544.398,1090.874,541.546z"/>
	<path fill="#FFE3CA" d="M1004.097,541.546c-1.416-2.618-2.587-5.593-2.193-8.588c0.393-2.995,2.875-5.84,5.687-5.495   c1.735,0.213,3.203,1.56,4.097,3.162c0.893,1.602,1.305,3.45,1.705,5.266c0.697,3.167,1.394,6.335,2.091,9.502   c0.586,2.665,0.935,6.047-1.178,7.596C1010.441,555.821,1005.639,544.398,1004.097,541.546z"/>
</g>
</svg>