<svg version="1.1" id="Layer_1" xmlns="http://www.w3.org/2000/svg" xmlns:xlink="http://www.w3.org/1999/xlink" x="0px" y="0px" viewBox="0 0 1080 1080" enable-background="new 0 0 1080 1080" xml:space="preserve">
<circle xmlns="http://www.w3.org/2000/svg" fill="#F7F7F7" cx="537.812" cy="574.485" r="400"/>
<path xmlns="http://www.w3.org/2000/svg" fill="#D3D3D3" d="M1031,881.578c0,13.115-10.631,23.746-23.746,23.746H110.746C97.631,905.324,87,894.693,87,881.578l0,0  c0-13.115,10.631-23.746,23.746-23.746h896.508C1020.369,857.832,1031,868.464,1031,881.578L1031,881.578z"/>
<g xmlns="http://www.w3.org/2000/svg">
	<path fill="#FA968C" d="M723.925,265.336c0.169-2.836,5.075-8.613,4.327-9.336c-0.538-0.52-2.448,1.265-3.48,2.31   c-0.12,0.122-0.301,0.162-0.461,0.104c-0.161-0.059-0.272-0.205-0.286-0.376c-0.225-2.787-0.921-10.585-1.699-10.658   c-0.788-0.074-1.183,4.859-1.293,6.515c-0.003,0.05-0.042,0.091-0.092,0.098c-0.05,0.007-0.098-0.023-0.114-0.07   c-0.607-1.753-2.652-7.409-3.529-6.683c-0.834,0.691,0.461,6.108,0.997,8.193c0.013,0.051-0.014,0.105-0.063,0.125   c-0.049,0.02-0.105,0-0.132-0.046c-1.056-1.867-3.841-6.602-4.592-5.997c-0.766,0.617,1.392,5.748,2.19,7.569   c0.021,0.048,0.004,0.103-0.04,0.132c-0.044,0.028-0.102,0.02-0.136-0.019c-1.206-1.362-4.362-4.833-4.345-3.813   c0.022,1.261,5.567,11.746,7.383,13.501C720.377,268.639,723.925,265.336,723.925,265.336z"/>
	<path fill="#FA968C" d="M773.709,300.432c-3.759,8.328-9.168,17.787-15.708,24.279c-12.725,12.595-29.057,9.304-34.757-20.15   c-0.992-4.439-1.684-8.857-2.266-13.268c-1.185-8.811-1.643-17.596-2.049-26.354c-0.061-1.326,0.964-2.45,2.289-2.512   c1.201-0.056,2.236,0.779,2.467,1.922l0.01,0.049c1.725,8.502,3.459,16.988,5.682,25.243c1.143,4.112,2.329,8.191,3.709,12.123   c1.197,3.723,6.007,15.291,9.747,16.424c0.123-0.021,0.246,0.14,0.317,0.071c0.068-0.064,0.103-0.069,0.147-0.032   c0.07-0.092,0.118-0.133,0.178-0.121c0.206-0.165,0.447-0.194,0.89-0.554c0.815-0.534,1.93-1.589,2.99-2.904   c2.171-2.573,4.192-5.973,5.97-9.502c3.085-5.986,4.873-10.29,4.873-10.29c3.798-10.413,19.55-5.427,15.747,5   C773.875,300.045,773.791,300.25,773.709,300.432z"/>
	<path fill="#2A94F4" d="M748.465,311.639c0.014-0.021,0.029-0.04,0.043-0.061c1.921-2.812,3.702-5.75,5.346-8.762   c1.628-2.94,3.288-6.207,4.449-8.987l0.058-0.139c0.093-0.222,0.197-0.442,0.312-0.659c2.16-4.102,7.236-5.678,11.339-3.518   c4.103,2.16,5.678,7.236,3.518,11.339c-2.026,3.848-3.986,6.995-6.227,10.307c-1.516,2.186-3.128,4.306-4.79,6.395   C761.275,316.233,751.421,312.699,748.465,311.639z"/>
	<path fill="#FAB9AF" d="M756.686,369.943c7.304,8.38,49.463,11.878,49.463,11.878c3.111-3.611-1.437-20.025-2.534-36.685   c-1.186-18.014-1.869-37.897-2.182-48.64c-0.129-4.434-3.758-7.951-8.194-7.951h-26.753c-4.124,0-7.557,3.146-7.896,7.256   c-0.702,8.506-1.923,23.291-3.128,37.784C754.239,348.292,750.373,362.699,756.686,369.943z"/>
	<path fill="#FA968C" d="M781.007,509.995l-0.061,16.581l1.44,8.076c0.249,1.398-0.785,2.692-2.205,2.735   c-6.788,0.208-24.169,0.667-24.635-0.087c-2.186-3.535,7.693-4.896,14.921-7.693c7.227-2.797,2.24-30.239,2.24-30.239   L781.007,509.995z"/>
	<path fill="#F57A2F" d="M770.466,529.607c0.039-0.015,0.072-0.041,0.11-0.057c1.722,0.644,3.66,1.021,5.844,1.021   c1.873,0,3.571-0.271,5.103-0.75l0.862,4.831c0.249,1.398-0.785,2.692-2.205,2.735c-6.788,0.208-24.169,0.667-24.635-0.087   C753.361,533.765,763.239,532.404,770.466,529.607z"/>
	<path fill="#0091C8" d="M756.697,375.986c-0.261,11.525,4.272,84.643,13.225,84.846c8.954,0.203,18.937-72.586,19.199-84.111   c0.261-11.525-6.785-21.032-15.739-21.236C764.429,355.283,756.959,364.461,756.697,375.986z"/>
	<path fill="#0B4870" d="M782.289,445.643c0.889,6.344,1.032,46.99-0.395,67.639h-8.151c-4.377-20.03-9.056-58.85-9.924-65.052   c-0.011-0.079-0.016-0.157-0.026-0.236c-4.871-21.549-7.288-63.511-7.096-72.009c0.261-11.525,7.732-20.703,16.686-20.5   c8.954,0.203,16,9.711,15.738,21.236C788.957,383.957,781.869,442.639,782.289,445.643z"/>
	<path fill="#FA968C" d="M800.569,509.995l-0.061,16.581l1.44,8.076c0.249,1.398-0.785,2.692-2.205,2.735   c-6.788,0.208-24.17,0.667-24.635-0.087c-2.186-3.535,7.693-4.896,14.92-7.693c7.227-2.797,2.24-30.239,2.24-30.239   L800.569,509.995z"/>
	<path fill="#FF8C46" d="M790.029,529.607c0.039-0.015,0.072-0.041,0.11-0.057c1.722,0.644,3.66,1.021,5.845,1.021   c1.873,0,3.571-0.271,5.103-0.75l0.862,4.831c0.249,1.398-0.785,2.692-2.205,2.735c-6.788,0.208-24.169,0.667-24.635-0.087   C772.923,533.765,782.802,532.404,790.029,529.607z"/>
	<path fill="#0091C8" d="M776.26,375.986c-0.262,11.525,4.272,84.643,13.225,84.846c8.954,0.203,17.001-72.854,17.262-84.379   c0.261-11.525-4.848-20.764-13.802-20.967C783.991,355.283,776.521,364.461,776.26,375.986z"/>
	<path fill="#0B4870" d="M801.852,445.643c0.889,6.344,1.032,46.99-0.395,67.639h-8.151c-4.377-20.03-9.056-58.85-9.924-65.052   c-0.011-0.079-0.015-0.157-0.026-0.236c-4.871-21.549-9.225-63.779-9.032-72.277c0.261-11.525,9.668-20.434,18.622-20.231   c8.954,0.203,14.063,9.442,13.802,20.967C806.583,383.688,801.431,442.639,801.852,445.643z"/>
	<path fill="#2A94F4" d="M766.232,288.546h4.347c1.514,3.504,4.716,6.211,9.685,6.211c4.977,0,8.179-2.707,9.69-6.211h3.967   c4.056,0,7.376,3.207,7.492,7.262c0.303,10.564,0.99,30.922,2.202,49.329c1.097,16.66,5.646,32.143,2.534,36.685   c0,0-42.159-3.498-49.463-11.878c-6.314-7.244-2.447-21.651-1.225-36.357c1.217-14.635,2.45-29.566,3.148-38.031   C758.937,291.588,762.252,288.546,766.232,288.546z"/>
	<path fill="#0B4870" d="M781.416,278.809l0.501,0.111c3.819,0.849,7.604-1.558,8.453-5.378l2.273-10.22l-7.417-1.649   L781.416,278.809z"/>
	<g>
		<polygon fill="#FAB9AF" points="774.791,288.545 788.779,288.545 784.746,274.599 775.211,275.779   "/>
	</g>
	<path fill="#FA968C" d="M775.211,275.779l9.535-1.18l1.879,6.499c-2.134,2.407-5.301,6.142-8.77,6.142   c-1.101,0-2.104-0.311-3.006-0.883L775.211,275.779z"/>
	<path fill="#FAB9AF" d="M773.767,283.192L773.767,283.192c6.281,1.397,12.504-2.562,13.901-8.843l2.817-12.668l-19.504-4.337   c0,0-2.199,9.889-2.263,16.88C768.67,279.467,770.566,282.48,773.767,283.192z"/>
	
		<rect x="786.55" y="266.343" transform="matrix(-0.9762 -0.2171 0.2171 -0.9762 1500.0542 699.1643)" fill="#41378C" width="3.755" height="1.703"/>
	<path fill="#FAB9AF" d="M784.894,271.217c-0.55,2.472,0.188,4.739,1.648,5.063c1.459,0.324,3.789-2.558,4.339-5.029   c0.55-2.472-0.889-3.597-2.349-3.922C787.072,267.005,785.443,268.745,784.894,271.217z"/>
	<path fill="#0B4870" d="M768.469,262.252c-0.105-1.679,0.168-3.36,0.8-4.919l0,0c1.568-3.869,5.9-5.534,9.843-4.161   c0.403,0.14,0.83,0.263,1.281,0.363l6.583,1.461c3.956,0.878,6.451,4.798,5.571,8.754l-0.341,1.535l-3.903,2.263l-1.591,2.771   l-0.258-0.057c-1.256-0.279-2.066-1.486-1.87-2.739c0.324-2.068-0.705-4.089-2.748-4.543l-5.842-1.299   c-3.557-0.791-5.83,0.707-6.421,3.368l-0.318,2.291L768.469,262.252z"/>
	<g>
		<g>
			
				<line fill="none" stroke="#00AEF0" stroke-width="2" stroke-miterlimit="10" x1="787.125" y1="337.424" x2="883.377" y2="872.998"/>
			
				<line fill="none" stroke="#00AEF0" stroke-width="2" stroke-miterlimit="10" x1="803.346" y1="872.998" x2="707.095" y2="337.424"/>
			
				<line fill="none" stroke="#00AEF0" stroke-width="2" stroke-miterlimit="10" x1="713.471" y1="361.281" x2="791.697" y2="361.281"/>
			
				<line fill="none" stroke="#00AEF0" stroke-width="2" stroke-miterlimit="10" x1="718.671" y1="397.117" x2="797.989" y2="397.117"/>
			
				<line fill="none" stroke="#00AEF0" stroke-width="2" stroke-miterlimit="10" x1="725.901" y1="432.953" x2="804.51" y2="432.953"/>
			
				<line fill="none" stroke="#00AEF0" stroke-width="2" stroke-miterlimit="10" x1="732.892" y1="468.788" x2="811.032" y2="468.788"/>
			
				<line fill="none" stroke="#00AEF0" stroke-width="2" stroke-miterlimit="10" x1="737.128" y1="504.624" x2="816.174" y2="504.624"/>
			
				<line fill="none" stroke="#00AEF0" stroke-width="2" stroke-miterlimit="10" x1="742.608" y1="539.821" x2="822.752" y2="539.821"/>
			
				<line fill="none" stroke="#00AEF0" stroke-width="2" stroke-miterlimit="10" x1="750.646" y1="576.295" x2="829.562" y2="576.295"/>
			
				<line fill="none" stroke="#00AEF0" stroke-width="2" stroke-miterlimit="10" x1="757.088" y1="612.131" x2="836.219" y2="612.131"/>
			
				<line fill="none" stroke="#00AEF0" stroke-width="2" stroke-miterlimit="10" x1="763.454" y1="645.996" x2="842.586" y2="645.996"/>
			
				<line fill="none" stroke="#00AEF0" stroke-width="2" stroke-miterlimit="10" x1="768.866" y1="679.862" x2="847.997" y2="679.862"/>
			
				<line fill="none" stroke="#00AEF0" stroke-width="2" stroke-miterlimit="10" x1="775.084" y1="713.727" x2="854.215" y2="713.727"/>
			
				<line fill="none" stroke="#00AEF0" stroke-width="2" stroke-miterlimit="10" x1="781.122" y1="747.592" x2="860.253" y2="747.592"/>
			
				<line fill="none" stroke="#00AEF0" stroke-width="2" stroke-miterlimit="10" x1="787.011" y1="781.458" x2="866.142" y2="781.458"/>
			
				<line fill="none" stroke="#00AEF0" stroke-width="2" stroke-miterlimit="10" x1="793.856" y1="815.323" x2="872.987" y2="815.323"/>
		</g>
	</g>
	<g>
		<g>
			
				<line fill="none" stroke="#00AEF0" stroke-width="2" stroke-miterlimit="10" x1="707.095" y1="337.424" x2="610.027" y2="874.216"/>
			
				<line fill="none" stroke="#00AEF0" stroke-width="2" stroke-miterlimit="10" x1="690.057" y1="874.216" x2="787.125" y2="337.424"/>
			
				<line fill="none" stroke="#00AEF0" stroke-width="2" stroke-miterlimit="10" x1="780.749" y1="361.281" x2="702.753" y2="361.281"/>
			
				<line fill="none" stroke="#00AEF0" stroke-width="2" stroke-miterlimit="10" x1="775.549" y1="397.117" x2="696.231" y2="397.117"/>
			
				<line fill="none" stroke="#00AEF0" stroke-width="2" stroke-miterlimit="10" x1="768.319" y1="432.953" x2="689.709" y2="432.953"/>
			
				<line fill="none" stroke="#00AEF0" stroke-width="2" stroke-miterlimit="10" x1="761.328" y1="468.788" x2="683.188" y2="468.788"/>
			
				<line fill="none" stroke="#00AEF0" stroke-width="2" stroke-miterlimit="10" x1="755.712" y1="504.624" x2="676.666" y2="504.624"/>
			
				<line fill="none" stroke="#00AEF0" stroke-width="2" stroke-miterlimit="10" x1="750.405" y1="539.821" x2="670.261" y2="539.821"/>
			
				<line fill="none" stroke="#00AEF0" stroke-width="2" stroke-miterlimit="10" x1="742.539" y1="576.295" x2="663.623" y2="576.295"/>
			
				<line fill="none" stroke="#00AEF0" stroke-width="2" stroke-miterlimit="10" x1="737.132" y1="612.131" x2="658.001" y2="612.131"/>
			<line fill="none" stroke="#00AEF0" stroke-width="2" stroke-miterlimit="10" x1="731.041" y1="652.33" x2="651.91" y2="652.33"/>
			
				<line fill="none" stroke="#00AEF0" stroke-width="2" stroke-miterlimit="10" x1="721.835" y1="692.529" x2="642.704" y2="692.529"/>
			
				<line fill="none" stroke="#00AEF0" stroke-width="2" stroke-miterlimit="10" x1="714.965" y1="732.729" x2="635.834" y2="732.729"/>
			
				<line fill="none" stroke="#00AEF0" stroke-width="2" stroke-miterlimit="10" x1="708.485" y1="772.928" x2="629.354" y2="772.928"/>
			
				<line fill="none" stroke="#00AEF0" stroke-width="2" stroke-miterlimit="10" x1="700.058" y1="813.517" x2="620.926" y2="813.517"/>
		</g>
	</g>
	<path fill="#0B4870" d="M788.167,257.634c0.446,3.614-12.541,8.192-15.967,8.616c-3.425,0.423-6.564-2.163-7.01-5.777   c-0.446-3.614,1.968-6.886,5.394-7.309C774.009,252.74,787.72,254.02,788.167,257.634z"/>
	<path fill="#e12021" d="M608.69,263.119c-4.157,0.735-6.931,4.701-6.196,8.857l7.064,39.954l2.651-0.469   c2.448-5.24,7.762-9.024,14.318-8.964c6.204,0.056,11.918,4.007,14.144,9.799c3.626,9.435-2.294,19.302-11.724,20.969   c-5.17,0.914-10.188-0.857-13.643-4.302l-2.65,0.469l7.814,44.197c0.735,4.157,4.701,6.931,8.857,6.196l39.954-7.064l-0.485-2.744   c-5.241-2.448-9.024-7.762-8.964-14.319c0.057-6.204,4.008-11.918,9.799-14.143c9.436-3.625,19.301,2.295,20.969,11.724   c0.914,5.17-0.857,10.187-4.302,13.644l0.485,2.744l44.197-7.814c4.157-0.735,6.931-4.701,6.196-8.858L719.2,251.343   c-0.735-4.157-4.701-6.931-8.858-6.196L608.69,263.119z"/>
	<path fill="#FAB9AF" d="M803.007,302.183c-4.307,5.872-11.693,13.595-20.536,20.263c-27.044,19.723-55.987,21.717-79.59-0.608   c-0.966-0.913-1.008-2.436-0.095-3.402c0.781-0.825,2.007-0.976,2.95-0.432l0.109,0.063c15.393,8.884,29.175,12.532,46.527,5.241   c22.748-9.803,38.887-33.386,37.188-31.136c2.79-3.694,8.046-4.427,11.74-1.637C804.961,293.302,805.71,298.495,803.007,302.183z"/>
	<g>
		<g>
			<path fill="#2A94F4" d="M777.15,305.715c5.633-5.055,12.794-15.014,12.794-15.014s3.395-4.013,10.382-1.087     c5.58,2.337,4.45,8.929,4.45,8.929c-0.135,0.918-2,11.793-14.829,21.41C789.947,319.953,776.205,306.563,777.15,305.715z"/>
		</g>
	</g>
	<path fill="#FAB9AF" d="M707.449,319.082c-1.849-2.157-2.336-9.72-3.376-9.72c-0.748,0-0.881,2.611-0.897,4.079   c-0.002,0.171-0.103,0.326-0.26,0.395c-0.156,0.07-0.339,0.041-0.467-0.072c-2.098-1.848-8.018-6.971-8.629-6.483   c-0.618,0.495,2.526,4.316,3.598,5.583c0.032,0.038,0.033,0.095,0.002,0.134c-0.031,0.04-0.086,0.052-0.131,0.029   c-1.654-0.838-7.056-3.484-7.182-2.352c-0.12,1.077,4.576,4.072,6.41,5.198c0.045,0.028,0.063,0.085,0.041,0.133   c-0.022,0.048-0.076,0.074-0.127,0.059c-2.057-0.608-7.35-2.078-7.469-1.121c-0.122,0.975,4.995,3.166,6.835,3.92   c0.048,0.02,0.075,0.072,0.063,0.122c-0.012,0.051-0.059,0.085-0.111,0.081c-1.814-0.142-6.495-0.444-5.774,0.278   c0.892,0.892,12.166,4.577,14.692,4.577C707.194,323.923,707.449,319.082,707.449,319.082z"/>
</g>
<rect xmlns="http://www.w3.org/2000/svg" x="267.532" y="446.998" fill="#2A94F4" width="534.875" height="325.448"/>
<rect xmlns="http://www.w3.org/2000/svg" x="294.662" y="471.371" fill="#F7F7F7" width="480.614" height="276.701"/>
<g xmlns="http://www.w3.org/2000/svg">
	<rect x="325.957" y="540.987" fill="none" stroke="#727272" stroke-miterlimit="10" width="123.155" height="176.459"/>
	<rect x="476.884" y="540.987" fill="none" stroke="#727272" stroke-miterlimit="10" width="123.154" height="176.459"/>
	<rect x="627.811" y="540.987" fill="none" stroke="#727272" stroke-miterlimit="10" width="123.155" height="176.459"/>
</g>
<g xmlns="http://www.w3.org/2000/svg">
	<path fill="#FA968C" d="M220.283,820.274c0,0-10.978,12.636-12.994,14.647c-1.665,1.661-4.026,2.266-6.29,2.902   c-0.725,0.204-1.667,0.948-2.464,1.574c-0.641,0.503-0.934,1.286-0.919,2.1c0.26,14.225,12.641,24.195,13.3,23.362   c1.19-1.503,0.283-5.668-2.085-8.415c-2.383-2.765-2.961-6.664-1.898-10.156l0,0c0.846-2.778,2.393-5.292,4.493-7.298l9.546-8.935   L220.283,820.274z"/>
	<path fill="#FA968C" d="M332.506,838.245l8.733,14.592c2.67,4.461,3.652,9.742,2.769,14.866c0,0.002,0,0.002,0,0.002   c-0.499,2.866,1.652,5.506,4.561,5.578c9.402,0.233,27.596,0.572,28.12-0.284c2.674-4.363-8.834-6.316-17.871-9.378   c-6.095-2.065-13.595-18.564-18.349-31.547l-7.127,4.514C332.794,836.956,332.476,837.584,332.506,838.245z"/>
	<path fill="#0B4870" d="M358.64,868.646c3.861,0,7.802-0.886,11.444-1.606c0.417-0.083,0.853-0.053,1.254,0.089   c4.214,1.496,6.769,3.556,5.351,5.87c-0.57,0.93-21.972,0.45-30.331,0.227c-1.748-0.047-3.028-1.634-2.728-3.357l0.547-3.137   C348.904,867.936,353.748,868.646,358.64,868.646z"/>
	<path fill="#0B4870" d="M301.258,673.445c-9.654-1.933-21.187,5.975-23.676,18.402c-1.43,7.141-3.536,33.745-3.237,55.456   c0.115,8.332-3.885,16.349-11.004,20.681c-1.16,0.706-2.223,1.483-3.147,2.327c-4.764,4.35-26.921,32.123-40.809,50.967   c-0.434,2.946,0.002,7.021,1.649,8.958c17.776-13.929,47.918-40.156,52.986-44.783c2.814-2.57,5.959-5.58,8.52-8.542   c10.92-7.319,28.643-63.194,30.952-74.724C315.98,689.759,310.913,675.378,301.258,673.445z"/>
	<ellipse fill="#0B4870" cx="295.234" cy="592.871" rx="15.019" ry="19.375"/>
	<path fill="#0B4870" d="M291.631,594.87c-0.239-10.724-8.921-19.738-19.631-20.35c-9.5-0.543-17.703,5.278-20.774,13.59   c-1.076,2.913-3.931,4.809-7.036,4.763c-1.29-0.019-2.616,0.099-3.966,0.376c-7.849,1.608-13.942,8.238-14.769,16.207   c-0.746,7.188,2.618,13.637,8.024,17.316c2.305,1.569,3.617,4.17,3.999,6.933c1.769,12.782,13.44,22.17,26.754,20.713   c11.387-1.246,20.5-10.617,21.469-22.031c0.594-7.002-1.809-13.423-6.036-18.191C286.869,610.793,291.822,603.409,291.631,594.87z"/>
	<path opacity="0.4" fill="#2A94F4" d="M424,597.578c-3.794-0.812-7.283,0.804-9.231,3.58h-2.251v-20.75   c0-3.805-3.084-6.889-6.889-6.889h-23.22v-2.305c2.776-1.948,4.392-5.438,3.58-9.231c-0.699-3.267-3.325-5.943-6.582-6.686   c-5.816-1.327-10.977,3.056-10.977,8.645c0,3.01,1.5,5.665,3.79,7.272v2.305h-20.75c-3.805,0-6.889,3.085-6.889,6.889v20.75h1.543   c1.948-2.776,5.436-4.391,9.229-3.581c3.267,0.698,5.944,3.323,6.688,6.58c1.329,5.817-3.055,10.979-8.645,10.979   c-3.01,0-5.665-1.5-7.272-3.79h-1.543v23.22c0,3.805,3.085,6.889,6.889,6.889h20.75v-1.597c-2.776-1.948-4.392-5.437-3.58-9.231   c0.699-3.267,3.324-5.943,6.581-6.686c5.816-1.327,10.977,3.056,10.977,8.645c0,3.01-1.5,5.665-3.79,7.272v1.597h23.22   c3.805,0,6.889-3.084,6.889-6.889v-23.22h2.251c1.607,2.29,4.262,3.79,7.272,3.79c5.589,0,9.973-5.161,8.645-10.977   C429.943,600.903,427.267,598.278,424,597.578z"/>
	<path fill="#0B4870" d="M295.234,567.14c0,0,8.451,5.318,7.423,12.483c0,0,4.513-3.196,5.534-14.206   C308.899,557.789,295.234,567.14,295.234,567.14z"/>
	<g>
		<path fill="#FAB9AF" d="M310.783,610.745c0,0-0.003,0.374-0.01,1.074c-0.003,0.7,0.005,1.538,0.055,2.784    c0.111,2.419,0.429,5.901,1.327,9.935c0.462,2.006,1.076,4.151,1.938,6.265c0.863,2.094,1.967,4.222,3.361,5.816    c0.688,0.802,1.442,1.423,2.156,1.786c0.722,0.359,1.364,0.506,2.142,0.397c1.561-0.149,3.649-1.655,5.39-3.589    c1.776-1.948,3.328-4.33,4.726-6.758c1.394-2.443,2.615-4.986,3.721-7.491c2.194-5.026,3.922-9.914,5.298-14.138    c1.383-4.225,2.449-7.79,3.166-10.294c0.702-2.51,1.103-3.944,1.103-3.944l0.005-0.018c0.193-0.692,0.911-1.096,1.603-0.902    c0.652,0.182,1.047,0.836,0.928,1.49c0,0-0.274,1.477-0.753,4.063c-0.257,1.29-0.55,2.861-0.936,4.655    c-0.376,1.796-0.807,3.824-1.351,6.021c-1.075,4.398-2.456,9.513-4.348,14.927c-0.959,2.704-2.04,5.484-3.359,8.264    c-1.336,2.774-2.841,5.573-4.897,8.222c-1.035,1.319-2.202,2.609-3.648,3.76c-1.441,1.134-3.203,2.167-5.339,2.615    c-2.107,0.493-4.5,0.198-6.398-0.62c-1.929-0.811-3.446-2-4.674-3.235c-2.46-2.496-4.006-5.193-5.24-7.77    c-1.219-2.586-2.076-5.088-2.746-7.417c-1.326-4.661-1.812-8.645-2.071-11.436c-0.116-1.364-0.177-2.58-0.202-3.281    c-0.023-0.7-0.035-1.074-0.035-1.074c-0.082-2.509,1.885-4.61,4.394-4.692c2.509-0.082,4.61,1.885,4.692,4.394    C310.783,610.612,310.783,610.687,310.783,610.745z"/>
	</g>
	<path fill="#FAB9AF" d="M304.693,647.923c3.381-10.189,10.183-31.765,9.601-38.817c-0.373-4.518-4.147-7.978-8.681-7.978h-29.412   c-4.877,0-8.866,3.867-9.008,8.741c-0.248,8.519,3.677,27.907,5.884,38.054H304.693z"/>
	<path fill="#FAB9AF" d="M298.894,693.925c3.382,12.214,30.883,99.038,21.394,101.665c-9.489,2.628-61.134-82.141-61.793-94.797   c-0.626-12.005,6.332-25.011,15.821-27.639C283.805,670.527,295.512,681.711,298.894,693.925z"/>
	<path fill="#0B4870" d="M341.419,835.531c0.351-0.412,0.432-0.992,0.248-1.501c-7.354-20.354-17.222-46.135-19.327-51.006   c-0.241-0.557-0.495-1.101-0.762-1.63c-3.591-25.74-20.111-78.18-22.683-87.469c-3.382-12.214-15.089-23.398-24.578-20.771   c-9.489,2.628-16.447,15.634-15.821,27.639c0.413,7.922,20.799,44.092,38.32,69.403c3.688,5.328,6.005,11.446,7.132,17.828   c0.779,4.413,2.026,8.814,3.417,12.035c2.071,4.793,14.224,23.088,25.081,38.604c0.314,0.449,0.842,0.713,1.388,0.657   C336.713,839.026,339.435,837.86,341.419,835.531z"/>
	<path fill="#2A94F4" d="M269.712,660.84c1.522-4.272,1.979-8.843,1.34-13.332c-1.484-10.424-4.077-30.061-3.838-38.396   c0.128-4.457,3.778-7.983,8.237-7.983h4.361c1.661,3.853,5.181,6.829,10.653,6.829c5.463,0,8.984-2.976,10.648-6.829h4.095   c-4.451,9.529-2.85,22.098,4.806,29.433c-1.423,5.029-2.619,10.09-3.515,14.192c-1.213,5.557-0.677,11.346,1.511,16.596   c3.76,9.022,6.738,23.489,5.851,29.222c-30.94,8.769-52.335-6.751-52.335-6.751L269.712,660.84z"/>
	<g>
		<polygon fill="#FAB9AF" points="295.234,603.153 281.891,601.751 286.113,587.15 294.743,588.219   "/>
	</g>
	<path fill="#FA968C" d="M294.743,588.219l-8.63-1.068l-1.318,4.558c1.932,2.178,4.415,6.883,7.555,6.883   c0.996,0,1.904-0.281,2.72-0.799L294.743,588.219z"/>
	<path fill="#FAB9AF" d="M295.041,595.277c-2.931-0.001-6.1-1.467-10.465-5.281c-2.506-2.19-4.364-6.008-4.364-8.588V567.14h21.967   c0,0,1.649,7.576,0.048,15.094C301.027,587.873,297.345,595.277,295.041,595.277z"/>
	<path fill="#FAB9AF" d="M283.937,578.71c0,2.784-1.333,5.04-2.976,5.04c-1.644,0-3.456-3.649-3.456-6.433   c0-2.784,1.813-3.648,3.456-3.648C282.604,573.669,283.937,575.926,283.937,578.71z"/>
	<path fill="#0B4870" d="M277.504,568.868c0-4.455,3.613-8.067,8.068-8.065l7.414,0.003c2.12,0.001,4.177-0.554,5.981-1.577   c2.616-1.484,5.923-0.99,7.708,1.431c1.929,2.617,2.764,6.121-2.128,9.366c-2.432,1.613-5.987-0.174-8.356,0.601   c-0.146-0.006-0.276-0.03-0.428-0.03h-6.535c-2.271,0-4.009,1.856-4.074,4.127c-0.042,1.436-1.219,2.587-2.664,2.587h-0.29   l-1.046-3.353l-3.648,4.919V568.868z"/>
	<path fill="#FAB9AF" d="M349.681,584.624c0,0,1.535,7.584-0.625,8.82c-2.159,1.236-3.835,1.67-5.752-1.406   c-1.916-3.076-3.08-8.208-3.161-11.426c-0.082-3.217,2.058-8.667,2.672-9.099c2.237-1.574,1.772,4.27,1.685,7.11   c-0.087,2.841,0.098,6.057,1.476,5.712c1.379-0.345,1.136-5.797,2.585-6.715C350.011,576.704,349.681,584.624,349.681,584.624z"/>
	<path fill="#FAB9AF" d="M382.454,636.203c0,0-7.636-1.247-8.789,0.958c-1.153,2.205-1.523,3.896,1.622,5.694   c3.146,1.799,8.319,2.767,11.537,2.727c3.218-0.04,8.583-2.385,8.991-3.015c1.488-2.294-4.334-1.609-7.169-1.415   c-2.835,0.194-6.057,0.132-5.764-1.259c0.292-1.391,5.75-1.354,6.612-2.837C390.356,635.574,382.454,636.203,382.454,636.203z"/>
	<path fill="#0B4870" d="M300.541,566.89c-0.736,3.26,0.35,5.042-10.334,10.13c-10.684,5.087-14.066,2.914-17.403,8.391   c0,0,1.459-9.073,7.36-12.187c5.901-3.114,16.135-5.149,19.417-12.36C299.582,560.863,301.045,564.662,300.541,566.89z"/>
	<g>
		<path fill="#FAB9AF" d="M277.425,609.992c0,0,0.027,0.159,0.035,0.17c0.014,0.056,0.031,0.125,0.051,0.206    c0.025,0.103,0.054,0.224,0.104,0.38c0.173,0.595,0.493,1.542,1.059,2.734c0.565,1.19,1.376,2.621,2.502,4.171    c1.117,1.554,2.591,3.201,4.371,4.861c0.87,0.85,1.892,1.633,2.922,2.472c1.093,0.773,2.195,1.61,3.438,2.344    c1.19,0.802,2.537,1.459,3.855,2.224c0.689,0.338,1.386,0.68,2.089,1.025c0.699,0.354,1.418,0.69,2.169,0.987    c0.742,0.312,1.491,0.627,2.245,0.944c0.766,0.294,1.553,0.561,2.337,0.847c1.556,0.6,3.201,1.052,4.841,1.555    c1.637,0.513,3.349,0.863,5.037,1.31c1.703,0.4,3.438,0.732,5.163,1.105c1.739,0.319,3.493,0.583,5.235,0.878    c1.749,0.261,3.508,0.442,5.246,0.667c1.737,0.239,3.484,0.316,5.2,0.48c0.86,0.069,1.715,0.138,2.564,0.206    c0.852,0.04,1.698,0.079,2.537,0.118c1.679,0.064,3.329,0.209,4.95,0.231c1.622,0.032,3.21,0.064,4.755,0.094    c3.093,0.069,6.023-0.045,8.73-0.055c2.709-0.093,5.192-0.179,7.393-0.255c2.206-0.051,4.121-0.232,5.704-0.317    c3.167-0.188,4.977-0.295,4.977-0.295l0.036-0.002c0.717-0.043,1.333,0.504,1.375,1.221c0.04,0.67-0.442,1.253-1.09,1.361    c0,0-1.804,0.293-4.962,0.805c-1.583,0.232-3.497,0.59-5.713,0.847c-2.215,0.267-4.71,0.641-7.447,0.915    c-2.742,0.224-5.708,0.57-8.864,0.746c-1.579,0.091-3.202,0.185-4.86,0.281c-1.659,0.099-3.362,0.104-5.091,0.145    c-0.865,0.014-1.738,0.028-2.617,0.042c-0.88-0.015-1.767-0.03-2.659-0.044c-1.785-0.057-3.594-0.026-5.419-0.158    c-1.824-0.118-3.666-0.193-5.515-0.351c-1.847-0.192-3.706-0.355-5.562-0.576c-1.852-0.281-3.713-0.506-5.557-0.836    c-1.836-0.39-3.681-0.683-5.486-1.153c-1.807-0.46-3.611-0.87-5.363-1.447c-0.879-0.273-1.757-0.528-2.621-0.814    c-0.858-0.313-1.711-0.625-2.556-0.933c-0.85-0.294-1.68-0.633-2.495-0.996c-0.817-0.355-1.627-0.707-2.428-1.055    c-1.571-0.789-3.121-1.529-4.562-2.42c-1.473-0.819-2.832-1.772-4.161-2.665c-1.285-0.973-2.543-1.891-3.663-2.911    c-2.272-1.985-4.211-4.03-5.701-6.063c-1.509-2.015-2.642-3.941-3.461-5.614c-0.828-1.67-1.312-3.102-1.614-4.142    c-0.289-0.965-0.446-1.916-0.421-1.783c-0.411-2.476,1.263-4.816,3.739-5.227C274.674,605.842,277.014,607.516,277.425,609.992z"/>
	</g>
	<path fill="#0B4870" d="M298.487,567.497c0,0,0.405,10.98,10,16.253c0,0-4.228-8.298-3.94-13.724   C304.834,564.6,297.853,563.748,298.487,567.497z"/>
	<path fill="#0B4870" d="M193.03,843.94c-0.361-0.897-0.02-1.921,0.811-2.416c0.679-0.404,2.502-1.528,3.872-2.371   c0.595-0.366,1.341,0.024,1.42,0.719c0.889,7.857,4.451,14.977,11.134,18.372c1.744,2.327,1.992,6.304,1.05,7.493   c-0.221,0.279-3.351-0.755-5.976-3.763C193.683,848.621,193.03,843.94,193.03,843.94z"/>
</g>
<g xmlns="http://www.w3.org/2000/svg">
	<path fill="#FAB9AF" d="M901.524,802.932c-0.462-0.094-0.912-0.187-1.319-0.273c-1.095-0.232-2.497-0.206-3.733-0.103   c-2.075,0.174-4.152-0.204-6.019-1.124l-7.733-3.811c-3.266-1.609-6.765,1.726-5.315,5.065l0,0   c0.124,0.286,0.352,0.516,0.637,0.642l9.148,4.055c2.652,1.176,4.988,2.964,6.814,5.219l2.593,3.201   C902.112,812.357,901.344,806.127,901.524,802.932z"/>
	<path fill="#0B4870" d="M898.171,829.565c0.373-4.393-1.617-11.668-2.557-14.102c2.359-4.337,2.439-8.993,1.006-13.183   c1.211-0.097,2.559-0.12,3.625,0.106c1.465,0.311,4.853,0.834,6.245,1.104c0.982,0.19,1.671,1.067,1.634,2.066   c0,0-4.378,31.688-5.349,31.085C901.091,835.597,897.852,833.311,898.171,829.565z"/>
	<path fill="#41B4E6" d="M732.837,771.581c-2.456,9.719-19.74,86.181-16.325,86.252c2.962,0.061,34.42-71.34,36.876-81.059   c2.456-9.719-0.154-18.76-5.829-20.194C741.884,755.146,735.292,761.862,732.837,771.581z"/>
	<path fill="#41B4E6" d="M770.691,693.939c-8.31,10.129-45.442,76.537-37.573,82.993c7.869,6.456,59.346-48.525,67.656-58.654   c8.31-10.129,7.082-24.534-0.787-30.99C792.117,680.832,779.001,683.81,770.691,693.939z"/>
	<path fill="#FAB9AF" d="M720.849,868.455c0.026-0.471,0.051-0.929,0.077-1.345c0.069-1.117-0.162-2.5-0.445-3.707   c-0.476-2.027-0.407-4.137,0.23-6.119l2.635-8.208c1.113-3.466-2.699-6.439-5.79-4.515l0,0c-0.265,0.165-0.458,0.424-0.542,0.724   l-2.669,9.644c-0.774,2.796-2.201,5.368-4.163,7.505l-2.786,3.034C711.613,870.418,717.663,868.746,720.849,868.455z"/>
	<path fill="#0B4870" d="M694.013,869.043c4.4-0.275,11.305-3.31,13.575-4.597c4.636,1.697,9.253,1.094,13.188-0.938   c0.273,1.184,0.494,2.514,0.427,3.602c-0.093,1.495-0.114,4.923-0.176,6.339c-0.044,0.999-0.81,1.81-1.804,1.92   c0,0-31.988,0.316-31.534-0.733C688.475,872.816,690.26,869.278,694.013,869.043z"/>
	<path fill="#0B4870" d="M753.388,776.774c-1.518,6.007-20.301,52.58-30.401,74.277c-3.041-1.161-4.741-1.066-7.844-2.041   c3.956-20.378,11.033-65.872,13.363-75.689c1.018-13.68,34.482-69.991,42.186-79.381c8.31-10.129,21.426-13.107,29.296-6.651   c7.869,6.456,9.097,20.86,0.787,30.99C795.398,724.831,754.414,772.713,753.388,776.774z"/>
	<path fill="#0B4870" d="M793.676,777.169c-0.001-0.001-0.011-0.008-0.011-0.008c-0.007-0.014-0.013-0.032-0.02-0.045   c-0.336-0.641-0.586-1.287-0.768-1.933c-5.544-16.425-3.958-76.067-2.16-88.168c0.478-3.216,1.435-6.195,2.725-8.879l17.673,9.617   c4.438,5.024,9.68,9.467,15.651,13.072c0.898,0.542-0.304-1.806,0.615-1.325c-2.548,15.691-5.869,46.817-7.118,62.383   c-0.284,3.536,1.723,6.849,4.993,8.223c16.47,6.919,45.845,20.364,62.213,29.198l-0.557,9.269   c-23.895-5.007-71.627-19.198-78.875-21.314C801.198,785.259,795.883,781.33,793.676,777.169z"/>
	<g>
		<path fill="#FA968C" d="M774.266,626.561c0,0-0.005,0.106-0.016,0.312c-0.007,0.12-0.016,0.27-0.027,0.448    c-0.013,0.153-0.028,0.33-0.045,0.53c-0.072,0.798-0.199,1.926-0.438,3.33c-0.225,1.409-0.585,3.089-1.084,4.993    c-0.491,1.905-1.208,4.009-2.102,6.259c-0.922,2.241-2.088,4.604-3.501,7.005c-1.463,2.375-3.194,4.767-5.234,7.031    c-0.505,0.568-1.065,1.098-1.602,1.653l-0.818,0.825l-0.878,0.774c-0.592,0.511-1.175,1.039-1.784,1.539    c-0.632,0.471-1.267,0.945-1.904,1.421c-0.624,0.493-1.304,0.909-1.98,1.332c-0.679,0.417-1.341,0.867-2.039,1.254    c-1.428,0.712-2.806,1.539-4.295,2.105l-2.196,0.921c-0.742,0.272-1.496,0.504-2.24,0.755c-0.75,0.231-1.481,0.525-2.239,0.699    c-0.754,0.187-1.505,0.373-2.253,0.558c-1.487,0.416-2.996,0.604-4.47,0.87c-1.472,0.295-2.943,0.374-4.38,0.53    c-0.719,0.061-1.431,0.159-2.137,0.177c-0.706,0.019-1.405,0.038-2.096,0.057c-1.382,0.035-2.731,0.099-4.039,0.018    c-1.306-0.047-2.577-0.093-3.806-0.138c-1.22-0.113-2.398-0.221-3.53-0.326c-2.266-0.162-4.307-0.542-6.122-0.813    c-0.906-0.147-1.756-0.26-2.534-0.407c-0.776-0.161-1.488-0.308-2.131-0.442c-2.568-0.533-4.035-0.838-4.035-0.838    c-0.726-0.151-1.193-0.862-1.042-1.588c0.142-0.683,0.779-1.136,1.458-1.063l0.07,0.008c0,0,1.459,0.163,4.012,0.448    c0.637,0.071,1.342,0.15,2.11,0.236c0.768,0.073,1.603,0.104,2.491,0.164c1.778,0.104,3.778,0.266,5.959,0.246    c1.088,0.01,2.222,0.02,3.395,0.031c1.167-0.056,2.374-0.113,3.614-0.172c1.242-0.024,2.5-0.194,3.787-0.334    c0.642-0.071,1.292-0.142,1.948-0.215c0.655-0.069,1.302-0.223,1.962-0.326c1.312-0.245,2.662-0.413,3.975-0.786    c1.318-0.345,2.676-0.609,3.972-1.087c0.654-0.215,1.311-0.43,1.97-0.646c0.663-0.202,1.282-0.516,1.926-0.767    c0.636-0.27,1.282-0.52,1.911-0.805l1.838-0.943c1.253-0.576,2.363-1.388,3.535-2.069c0.57-0.366,1.099-0.788,1.649-1.175    c0.545-0.393,1.095-0.774,1.586-1.225c0.505-0.431,1.008-0.859,1.509-1.286c0.478-0.451,0.93-0.924,1.393-1.377l0.685-0.684    l0.628-0.73c0.411-0.49,0.847-0.95,1.231-1.447c1.558-1.977,2.838-4.05,3.951-6.068c1.055-2.057,1.916-4.071,2.581-5.983    c0.636-1.923,1.14-3.712,1.487-5.322c0.345-1.607,0.586-3.022,0.718-4.181c0.146-1.159,0.206-2.063,0.232-2.65    c0.006-0.146,0.012-0.275,0.016-0.387c0.001-0.087,0.002-0.16,0.003-0.219c0.001-0.153,0.002-0.232,0.002-0.232l0.001-0.081    c0.023-2.596,2.146-4.681,4.742-4.657c2.596,0.023,4.681,2.146,4.657,4.742C774.272,626.423,774.269,626.501,774.266,626.561z"/>
	</g>
	<path fill="#e12021" d="M750.024,640.331c1.632-3.509,7.965-17.193,8.751-20.526l0.039-0.167c0.064-0.266,0.14-0.532,0.227-0.796   c1.661-5.001,7.061-7.708,12.062-6.048c5.001,1.661,7.709,7.061,6.048,12.062c-1.558,4.69-3.173,8.583-5.071,12.712   c-1.294,2.732-2.709,5.409-4.185,8.058C766.263,644.376,750.012,640.357,750.024,640.331z"/>
	<path fill="#FAB9AF" d="M771.078,705.452c7.894,6.515,40.846,5.195,53.073,4.459c3.076-0.185,5.393-2.971,4.884-6.01   c-1.301-7.755-6.695-21.104-9.937-34.969c-4.671-19.979-9.124-42.147-11.467-54.135c-0.967-4.945-5.692-8.219-10.662-7.396   l-29.999,4.962c-4.624,0.765-7.89,4.935-7.508,9.606c0.791,9.669,2.163,26.47,3.499,42.942   C764.318,681.629,762.655,698.5,771.078,705.452z"/>
	<path fill="#e12021" d="M766.686,612.41l4.874-0.806c2.347,3.648,6.44,6.09,12.012,5.169c5.581-0.923,8.669-4.552,9.714-8.762   l4.448-0.736c4.548-0.752,8.866,2.234,9.749,6.759c2.3,11.792,6.845,34.487,11.616,54.898c3.293,14.087,8.709,27.034,9.924,34.905   c0.476,3.085-1.838,5.891-4.953,6.078c-12.292,0.737-45.115,2.037-52.992-4.464c-8.423-6.952-6.759-23.823-8.116-40.54   c-1.35-16.638-2.736-33.612-3.523-43.233C759.07,617.17,762.222,613.148,766.686,612.41z"/>
	<path fill="#0B4870" d="M782.618,596.039l0.561-0.161c4.274-1.226,6.745-5.685,5.519-9.96l-3.281-11.437l-8.3,2.381   L782.618,596.039z"/>
	<g>
		<polygon fill="#FAB9AF" points="775.891,612.425 790.358,611.364 790.868,609.283 782.396,594.069 772.349,598.347   "/>
	</g>
	<path fill="#FA968C" d="M772.349,598.347l10.047-4.278l3.403,6.111c-1.577,3.298-3.495,6.955-7.286,8.042   c-1.202,0.345-2.553,0.246-3.717-0.097L772.349,598.347z"/>
	<path fill="#FAB9AF" d="M777.361,604.569L777.361,604.569c7.029-2.017,11.092-9.349,9.076-16.378l-4.068-14.178l-21.828,6.263   c0,0,3.175,11.067,6.908,18.081C770.25,603.618,773.778,605.597,777.361,604.569z"/>
	
		<rect x="781.176" y="579.668" transform="matrix(-0.9612 0.2758 -0.2758 -0.9612 1696.3673 922.7438)" fill="#CD5014" width="4.268" height="1.935"/>
	<path fill="#FAB9AF" d="M781.966,586.571c0.794,2.766,2.761,4.629,4.395,4.16c1.634-0.469,2.394-4.611,1.601-7.378   c-0.794-2.766-2.841-3.109-4.475-2.64C781.854,581.182,781.173,583.805,781.966,586.571z"/>
	<path fill="#0B4870" d="M760.7,586.54c-1.017-1.619-1.657-3.446-1.873-5.346c0,0-1.903-6.305,0.234-8.222   c1.946-1.746,6.201-1.444,8.81-1.612c1.912-0.123,7.366-2.117,7.366-2.117c4.427-1.272,9.046,1.287,10.317,5.714l0.493,1.717   l-2.667,4.379l-0.083,3.63l-0.289,0.083c-1.406,0.403-2.87-0.362-3.354-1.719c-0.8-2.241-2.924-3.699-5.211-3.043l-6.539,1.876   c-3.98,1.142-5.436,3.872-4.582,6.849l0.926,2.46L760.7,586.54z"/>
	<path fill="#0B4870" d="M706.266,619.961l-1.327-3.397c2.3-3.462,3.042-7.885,1.69-12.085c-2.369-7.357-11.074-11.579-18.312-8.869   c-7.359,2.756-11.019,10.988-8.169,18.284c1.733,4.436,5.474,7.486,9.774,8.536l1.327,3.397l-37.051,14.475   c-3.228,1.261-4.823,4.9-3.562,8.128l14.344,36.716l-1.971,0.77c-3.462-2.3-7.885-3.042-12.085-1.69   c-7.357,2.369-11.579,11.074-8.869,18.312c2.756,7.359,10.988,11.019,18.283,8.169c4.436-1.733,7.486-5.474,8.536-9.774l1.971-0.77   l14.343,36.716c1.261,3.228,4.9,4.823,8.128,3.562l88.449-34.553c3.228-1.261,4.823-4.9,3.562-8.128l-34.554-88.449   c-1.261-3.228-4.9-4.823-8.128-3.562L706.266,619.961z"/>
	<path fill="#FAB9AF" d="M811.423,616.036c1.26,23.74-12.036,51.901-40.015,58.762c-22.238,5.499-46.167-0.646-67.275-9.652   c-1.39-0.593-2.036-2.201-1.443-3.591c0.522-1.223,1.83-1.871,3.084-1.604l0.036,0.008c29.368,6.23,66.893,10.313,80.787-16.455   c7.042-13.161,5.771-29.091,5.8-26.84C792.238,604.327,810.752,603.725,811.423,616.036z"/>
	<g>
		<g>
			<path fill="#e12021" d="M789.531,634.9c2.221-10.06,2.532-18.206,2.539-18.356l-0.001,0.286l1.606-6.401     c0,0,3.063-5.129,11.439-3.144c6.69,1.585,6.646,9.187,6.646,9.187c0.019,1.054,2.439,8.655-4.121,25.158     C807.638,641.63,789.22,636.309,789.531,634.9z"/>
		</g>
	</g>
</g>
<path xmlns="http://www.w3.org/2000/svg" fill="#FAB9AF" d="M707.375,660.36c-1.849-2.157-2.336-9.72-3.376-9.72c-0.748,0-0.881,2.611-0.897,4.079  c-0.002,0.171-0.103,0.326-0.26,0.395c-0.156,0.07-0.339,0.042-0.467-0.072c-2.098-1.848-8.018-6.971-8.628-6.483  c-0.618,0.495,2.526,4.316,3.598,5.583c0.032,0.038,0.033,0.094,0.002,0.134s-0.086,0.052-0.131,0.029  c-1.654-0.838-7.056-3.485-7.182-2.352c-0.12,1.077,4.576,4.072,6.41,5.198c0.045,0.028,0.063,0.085,0.041,0.133  c-0.021,0.048-0.076,0.074-0.127,0.058c-2.057-0.608-7.35-2.078-7.469-1.12c-0.122,0.975,4.995,3.166,6.835,3.92  c0.048,0.02,0.075,0.072,0.063,0.122c-0.012,0.051-0.059,0.085-0.111,0.081c-1.814-0.142-6.495-0.443-5.774,0.278  c0.891,0.891,12.166,4.577,14.692,4.577S707.375,660.36,707.375,660.36z"/>
<rect xmlns="http://www.w3.org/2000/svg" x="294.662" y="471.371" fill="#0B4870" width="480.614" height="4.506"/>
<rect xmlns="http://www.w3.org/2000/svg" x="489.346" y="556.133" fill="#e12021" width="96.932" height="22.719"/>
<rect xmlns="http://www.w3.org/2000/svg" x="489.346" y="590.211" opacity="0.4" fill="#2A94F4" width="96.932" height="22.719"/>
<rect xmlns="http://www.w3.org/2000/svg" x="489.346" y="624.288" fill="#e12021" width="96.932" height="22.719"/>
<rect xmlns="http://www.w3.org/2000/svg" x="489.346" y="658.366" opacity="0.4" fill="#2A94F4" width="96.932" height="22.719"/>
<rect xmlns="http://www.w3.org/2000/svg" x="325.773" y="497.065" opacity="0.4" fill="#2A94F4" width="425.594" height="24.99"/>
<path xmlns="http://www.w3.org/2000/svg" fill="#e12021" d="M521.451,509.104H391.169c-6.587,0-11.928-5.34-11.928-11.928v-30.063c0-6.588,5.34-11.928,11.928-11.928  h130.282c6.587,0,11.927,5.34,11.927,11.928v30.063C533.379,503.763,528.039,509.104,521.451,509.104z"/>
<rect xmlns="http://www.w3.org/2000/svg" x="495.502" y="502.776" transform="matrix(0.7071 0.7071 -0.7071 0.7071 506.839 -205.6786)" fill="#e12021" width="12.387" height="12.387"/>
<rect xmlns="http://www.w3.org/2000/svg" x="397.55" y="468.835" fill="#F7F7F7" width="114.166" height="4.228"/>
<rect xmlns="http://www.w3.org/2000/svg" x="397.55" y="480.042" fill="#F7F7F7" width="114.166" height="4.228"/>
<rect xmlns="http://www.w3.org/2000/svg" x="397.55" y="491.249" fill="#F7F7F7" width="114.166" height="4.228"/>
<g xmlns="http://www.w3.org/2000/svg">
	
		<rect x="494.671" y="673.377" transform="matrix(-1.836970e-16 1 -1 -1.836970e-16 1180.4353 178.706)" fill="#e12021" width="12.387" height="12.387"/>
	<circle fill="#e12021" cx="467.98" cy="713.75" r="48.61"/>
	<g>
		<path fill="#F7F7F7" d="M453.331,713.896c0,2.183-1.77,3.952-3.952,3.952c-2.183,0-3.952-1.77-3.952-3.952    c0-2.183,1.769-3.952,3.952-3.952C451.562,709.944,453.331,711.714,453.331,713.896z"/>
		<path fill="#F7F7F7" d="M470.66,713.896c0,2.183-1.769,3.952-3.952,3.952c-2.183,0-3.952-1.77-3.952-3.952    c0-2.183,1.769-3.952,3.952-3.952C468.891,709.944,470.66,711.714,470.66,713.896z"/>
		<path fill="#F7F7F7" d="M487.989,713.896c0,2.183-1.769,3.952-3.952,3.952c-2.183,0-3.952-1.77-3.952-3.952    c0-2.183,1.77-3.952,3.952-3.952C486.22,709.944,487.989,711.714,487.989,713.896z"/>
	</g>
</g>
</svg>