<svg version="1.1" id="Layer_1" xmlns="http://www.w3.org/2000/svg" xmlns:xlink="http://www.w3.org/1999/xlink" x="0px" y="0px" viewBox="0 0 595.3 582.4" style="enable-background:new 0 0 595.3 582.4;" xml:space="preserve">
<style xmlns="http://www.w3.org/2000/svg" type="text/css">
	.st0{fill:#E1E0E0;}
	.st1{fill:none;stroke:#E1E0E0;stroke-miterlimit:10;}
	.st2{fill:#FFFFFF;}
	.st3{fill:#004970;}
	.st4{fill:#F5F5F5;}
	.st5{fill:#2A94F4;}
	.st6{fill:#01384F;}
	.st7{fill:#FACBB6;}
	.st8{fill:none;stroke:#B66050;stroke-width:0.7049;stroke-linecap:round;stroke-linejoin:round;stroke-miterlimit:10;}
	.st9{fill:#e12021;}
	.st10{fill:#e12021;stroke:#2A94F4;stroke-width:0.7049;stroke-miterlimit:10;}
	.st11{fill:none;stroke:#2A94F4;stroke-width:0.7049;stroke-miterlimit:10;}
	.st12{fill:#EABEAC;}
	.st13{fill:none;stroke:#000000;stroke-width:0.4579;stroke-linecap:round;stroke-linejoin:round;stroke-miterlimit:10;}
	.st14{fill:#01384F;stroke:#1F120C;stroke-width:1.9084;stroke-miterlimit:10;}
	.st15{fill:#020102;}
	.st16{fill:#ECECEC;}
	.st17{fill:#EFBEAB;}
	.st18{fill:#DAD8DE;}
	.st19{fill:#010102;}
	.st20{fill:#ECA646;}
	.st21{fill:#EFBEAA;}
	.st22{fill:none;stroke:#000000;stroke-width:0.4771;stroke-linecap:round;stroke-linejoin:round;stroke-miterlimit:10;}
	.st23{fill:#F6B69A;}
	.st24{fill:#CDEAFB;}
	.st25{fill:#F19180;}
	.st26{fill:#1E3058;}
	.st27{opacity:0.34;fill:url(#SVGID_1_);}
	.st28{fill:#A9CCEA;}
	.st29{fill:#FCD286;}
	.st30{fill:#F9B751;}
	.st31{fill:none;stroke:#FFEBD4;stroke-width:0.1;stroke-miterlimit:10;}
	.st32{fill:#F3EFEA;}
</style>
<g xmlns="http://www.w3.org/2000/svg">
	<rect x="35.7" y="177.2" class="st0" width="179" height="167.7"/>
	<rect x="42.6" y="184.2" class="st1" width="179" height="167.7"/>
	<polygon class="st2" points="62.7,344.5 35.4,344.5 187.1,177.4 214.5,177.4  "/>
	<polygon class="st2" points="214.7,202.1 214.7,208.6 91.2,344.7 85.3,344.7  "/>
</g>
<g xmlns="http://www.w3.org/2000/svg">
	<rect x="350.2" y="176.5" class="st0" width="179" height="167.7"/>
	<rect x="357.2" y="183.5" class="st1" width="179" height="167.7"/>
	<polygon class="st2" points="377.3,343.9 350,343.9 501.7,176.7 529,176.7  "/>
	<polygon class="st2" points="529.2,201.5 529.2,208 405.7,344.1 399.8,344.1  "/>
</g>
<g xmlns="http://www.w3.org/2000/svg">
	<path class="st3" d="M132.1,433.5c0-0.5,0-1-0.1-1.5c-0.9-0.1-1.9-0.2-2.9-0.3c-0.8-90.3-1.4-177.9,0.4-237.1   c0.8,0.1,1.7,0.1,2.5,0.2c0.2-0.5,0.4-1.1,0.5-1.6c7.3,12.3,15.5,24.1,23.3,35l0.7-0.5c-7.9-11.1-16.3-23.2-23.7-35.7   c0.1-0.8,0.2-1.6,0.1-2.4c-1-0.3-2.1-0.6-3.2-0.9c0.2-6.7,0.5-13,0.8-18.9h-10.1c0.7,5.4,1.3,11.3,1.9,17.5c-0.6,0-1.2-0.1-1.8-0.1   c-0.3,1.4-0.5,2.8-0.7,4.2l0,0l-22.1,25.3l0.7,0.6l21.3-24.4c0,0.6-0.1,1.2-0.1,1.8c1.1,0,2.2-0.1,3.3-0.1   c4.4,58.7,3,146.7,1.8,237c-1.2,0-2.5,0-3.7,0c-0.1,0.7-0.1,1.4-0.1,2.1c-11.5,11.1-25.6,19.7-40.7,24.8c5.6,0.2,11.4,0.2,17-0.1   c-0.6-0.3-0.9-1-0.7-1.6c0.2-0.6,0.8-1.1,1.2-1.5c7.5-6.5,15.4-12.6,23.4-18.4c0.2,0.9,0.4,1.8,0.6,2.6c1.2,0.1,2.4,0.1,3.6,0.1   c-0.1,8.2,0.2,17.7-3,19c3.1,0.3,5.9,0.3,9-0.1c-2.6-1.9-3.3-11-3.8-18.9c1.2-0.1,2.4-0.1,3.7-0.2c0.2-0.8,0.4-1.6,0.5-2.4   c8.1,5.8,15.9,11.9,23.4,18.4c0.5,0.4,1,0.9,1.2,1.5c0.2,0.6-0.1,1.3-0.7,1.6c5.6,0.3,11.4,0.3,17,0.1   C157.7,453.2,143.6,444.7,132.1,433.5z"/>
	<g>
		<path class="st4" d="M69.8,221.7l16.6,162.6l92.5-1.3l3.7-141.4C145.8,232.3,108.2,225.8,69.8,221.7z"/>
		<path class="st3" d="M187,235c1.3,0.9-2.5,6.7-4.4,6.7c-37.6-6-75.2-13.9-112.8-19.9c-1.8,0.2-3-9.5-1.2-9.7    C109.4,215.9,149.6,223.3,187,235z M91.5,397.6c28.4-6.7,57.5-10.3,86.6-10.9c1.3,0,1.9-3.5,0.8-3.8c-30.7-4.1-61.9-3.6-92.5,1.3    C83,385.6,88.1,398.9,91.5,397.6z"/>
	</g>
	<g>
		<path class="st5" d="M169.2,376.8c-13.5-2.2-26.8-3.3-40.1-3.4c-6.6,0-13.2,0.2-19.7,0.6l-4.9,0.4l-4.9,0.5l-4.9,0.6l-5.3,0.7    c-0.7-6.2-1.3-12.4-2-18.6c-0.6-6.1-1.2-12.1-1.8-18.2c-1.2-12.1-2.3-24.2-3.5-36.4c-2.3-24.3-4.7-48.9-7.5-74.2    c3.2,25.3,5.9,49.9,8.4,74.2c2.4,24.2,4.8,48.1,7.2,72.1l4.4-0.6l4.9-0.5l4.9-0.4l4.9-0.3c6.6-0.4,13.2-0.5,19.8-0.4    C142.5,373.1,155.8,374.4,169.2,376.8z"/>
	</g>
	<g>
		<path class="st6" d="M174.4,233.7c-16.9-4.1-33.2-7.4-49.6-10.1c-16.4-2.8-32.8-5-50.2-6.7c17.5,1,34.1,3,50.5,5.7    C141.6,225.4,157.8,229,174.4,233.7z"/>
	</g>
	<g>
		<path class="st6" d="M172.1,384.2c-14.2-0.5-27.7-1.1-41.2-0.7c-13.5,0.4-27,1.7-40.7,5.4c13.6-4.4,27.3-6,40.8-6.4    C144.6,382.1,158.1,383,172.1,384.2z"/>
	</g>
</g>
<g xmlns="http://www.w3.org/2000/svg">
	<g>
		<g>
			<g>
				<polygon class="st7" points="171.8,454 173.5,426.3 185.5,430.3 181.6,458.6 171.3,455     "/>
				<g>
					<path class="st6" d="M183.9,453.4c0,0-9.3,2.3-12.6-4.2l-23,8l37,5.6L183.9,453.4z"/>
					<polygon class="st2" points="147.8,460.4 184.9,466 185.3,462.8 148.3,457.2      "/>
				</g>
			</g>
			<path class="st6" d="M199.5,324l-0.6,1.8c-6.1,10.1-11.8,22.7-15.7,34l-10.3,29.7c-1.1,3.1-1.8,6.3-2,9.5l-3.8,43.8l20.5,1.5     l5.2-44.1l24.2-47l-1.3-27.5L199.5,324z"/>
		</g>
		<g>
			<g>
				<polygon class="st7" points="241.5,446.4 226.7,423.2 238.6,418.9 252,443.9 241.7,447.5     "/>
				<g>
					<path class="st6" d="M250.8,438.3c0,0-6.1,7.7-12.5,4.5l-13.7,20.7l32.8-18.6L250.8,438.3z"/>
					<polygon class="st2" points="226.2,466.4 259,447.8 257.4,444.9 224.6,463.6      "/>
				</g>
			</g>
			<g>
				<path class="st6" d="M205.6,350.1l4.5,44.3c0.2,2.1,0.8,4.1,1.6,6l18.4,40.9l18.4-10.4l-15.9-37l0.7-32c0,0,1.8-29.2-7.6-40.3      l-17.7,2.9L205.6,350.1z"/>
			</g>
		</g>
	</g>
	<g>
		<g>
			<g>
				<g>
					<polygon class="st7" points="164.2,297.3 172.9,305.7 169.4,311.4 160.2,301.4      "/>
					<path class="st7" d="M164.2,297.3l0-10.6c0-0.5-0.4-1-0.9-1.1l0,0c-0.6-0.1-1.2,0.2-1.3,0.8l-0.8,2.9l-6.8-7.4       c-0.6-0.6-1.6-0.5-2,0.3l-2.3,4.2c-0.2,0.3-0.2,0.8,0,1.1c1.2,2.5,6.1,12.2,10.2,14L164.2,297.3z"/>
				</g>
				<path class="st8" d="M156.1,294.9"/>
				<path class="st8" d="M159,289.3"/>
			</g>
			<g>
				<path class="st9" d="M203.4,279.8c0,0,2.3,5.2-8.7,31.7c0,0-6,11-8.7,11.4c-4.3,0.6-16.3-5.9-25.5-19.1l6.9-5.1l13.5,7.8      l7.9-20.5C188.9,285.9,193.5,272.3,203.4,279.8z"/>
				<path class="st10" d="M183.9,312.5"/>
				<path class="st11" d="M181,306.4"/>
			</g>
		</g>
		<g>
			<path class="st9" d="M214.6,270.9l18.1,8c1.3,0.6,2,1.9,1.9,3.3l-4.5,47.1c0,0-18.2,5.4-34.5,2.1l-3.4-48.5     c-0.2-1.4,0.3-2.8,1.4-3.8l11.6-8.1L214.6,270.9z"/>
			<path class="st11" d="M194.6,311.5"/>
			<path class="st11" d="M195.5,283.5"/>
		</g>
		<g>
			<g>
				<polygon class="st7" points="213.8,316.9 225.9,316.7 227.5,323.2 213.9,322.7     "/>
				<path class="st7" d="M213.8,316.9l-7.6-7.5c-0.4-0.4-1-0.4-1.4-0.1v0c-0.5,0.3-0.7,1-0.4,1.5l1.5,2.6l-6.6,0.8      c-0.8,0-1.5,0.8-1.2,1.6l1.4,4.6c0.1,0.4,0.4,0.7,0.8,0.8c2.6,0.9,9.4,3.1,13.6,1.4L213.8,316.9z"/>
			</g>
			<g>
				<path class="st9" d="M233.4,279.3c0,0,5.2,2.3,14.6,28.3c0,0,3.5,10,1.8,11.9c-2.8,3.1-16.8,8-32.4,4.3l-0.2-8.5l17.2-2.6      l-7.7-19.8C226.7,293,221.1,280.2,233.4,279.3z"/>
				<path class="st11" d="M234.4,312.7"/>
				<path class="st11" d="M229.5,325.6"/>
			</g>
		</g>
	</g>
	<g>
		<path class="st7" d="M203,253.3c0.1,2.3-1.6,4.2-3.8,4.3c-2.2,0.1-4.1-1.7-4.2-4c-0.1-2.3,1.6-4.2,3.8-4.3    C201,249.2,202.9,251,203,253.3z"/>
		<path class="st7" d="M204.9,263.1l-0.3,7.5c-0.1,3.5,1.9,5.4,5.2,5.4l0,0c2.8,0.1,6.9-1.9,6.8-4.9v-12.5L204.9,263.1z"/>
		<path class="st12" d="M204.7,269.6c0,0,9.8-0.2,12.5-9.2c0.9-2.8-12.3,1.6-12.3,1.6L204.7,269.6z"/>
		<path class="st7" d="M207.7,266L207.7,266c-5.6-0.1-10.2-4.9-10.2-9.6l0-10c0-6,4.5-10.9,10.3-11.1l0,0    c5.9-0.3,11.9,4.4,12.2,10.5l-0.1,7.8C219.8,260.6,214.5,265.7,207.7,266z"/>
		<g>
			<path class="st13" d="M207.5,258.1"/>
			<path class="st13" d="M202.7,257.7"/>
		</g>
		<path class="st3" d="M200.6,230.1c2.2-0.8,7.8-1.6,8.7,3.3c5.5-0.2,14.2,0.3,14.9,5.1c1,7-4.3,13.7-4.3,13.7l-1.4,0.6    c0,0-3.5-2-2.1-10.3c0,0-12.8,2.5-18.6-1C192,238.1,194,232.6,200.6,230.1z"/>
		<g>
			<path class="st7" d="M225.1,253.6c0.1,2.3-1.6,4.2-3.8,4.3c-2.2,0.1-4-1.7-4.1-3.9c-0.1-2.3,1.6-4.2,3.8-4.3     C223.1,249.5,225,251.3,225.1,253.6z"/>
		</g>
		<path class="st7" d="M205.1,270.9l-3,2.1c0,0-1.8,5,6.7,5.6c8.5,0.6,11-5.5,11-5.5l-6-3.1L205.1,270.9z"/>
	</g>
</g>
<g xmlns="http://www.w3.org/2000/svg" id="Girl">
	<g id="Girl_1_">
		<g>
			<g>
				<line class="st14" x1="262.9" y1="353.8" x2="262.9" y2="463.1"/>
				
					<rect x="221" y="350.8" transform="matrix(-1 -1.224647e-16 1.224647e-16 -1 525.724 707.544)" class="st9" width="83.8" height="6"/>
			</g>
			<g>
				<path class="st15" d="M244.3,350.4h41.4c1.2,0,2.2-1.1,2.2-2.4l0,0c0-1.3-1-2.4-2.2-2.4h-41.4c-1.2,0-2.2,1.1-2.2,2.4l0,0      C242.1,349.3,243.1,350.4,244.3,350.4z"/>
				<path class="st15" d="M244,348.7c0.1,0,0.2,0,0.3-0.1c0.3-0.2,0.4-0.6,0.2-1l-21-36.4c-0.2-0.3-0.6-0.4-0.9-0.2      c-0.3,0.2-0.4,0.6-0.2,1l21,36.4C243.5,348.6,243.7,348.7,244,348.7z"/>
			</g>
		</g>
		<g>
			<g>
				<g>
					<g>
						<path class="st16" d="M331.7,369.4l-43.6,1.2c-7.4,0.3-12.9,7.5-11.9,15.5l0,0c0.9,6.6,6.2,11.6,12.3,11.6h51.9        c0,0,18.7-7.2,12.8-24.7L331.7,369.4z"/>
						<g>
							<g>
								<g>
									<path d="M286.3,455.6l-7.3,3.9c-0.8,0.4-1.2,1.4-1,2.3c0.2,0.7,0.8,1.3,2.4,1.3c3.6,0.1,19.6-2.5,19.6-2.5v1.8l7.4-0.9           c0,0,0.5-9.2-1.7-10.5L286.3,455.6z"/>
									<path class="st17" d="M298,446.4l-11.8,9.2c0,0,1.3,3.5,6.8,1.2c5.6-2.3,12.5-5.9,12.5-5.9l-1-5.5L298,446.4z"/>
								</g>
								<polygon class="st17" points="305.7,450.9 298.6,416.3 286.8,417.5 296.7,449.7         "/>
							</g>
							<polygon class="st16" points="276.2,386.1 286.1,442.9 308.6,442.9 299.9,387        "/>
						</g>
					</g>
					<g>
						<path class="st16" d="M329.6,369.4l-32.9,1.2c-7.4,0.3-12.9,7.5-11.9,15.5l0,0c0.9,6.6,6.2,11.6,12.3,11.6h51.9        c0,0,18.7-7.2,12.8-24.7L329.6,369.4z"/>
						<g>
							<g>
								<g>
									<path d="M294.9,455.6l-7.3,3.9c-0.8,0.4-1.2,1.4-1,2.3c0.2,0.7,0.8,1.3,2.4,1.3c3.6,0.1,19.6-2.5,19.6-2.5v1.8l7.4-0.9           c0,0,0.5-9.2-1.7-10.5L294.9,455.6z"/>
									<path class="st7" d="M306.7,446.4l-11.8,9.2c0,0,1.3,3.5,6.8,1.2c5.6-2.3,12.5-5.9,12.5-5.9l-1-5.5L306.7,446.4z"/>
								</g>
								<polygon class="st7" points="314.3,450.9 307.2,416.3 295.4,417.5 305.4,449.7         "/>
							</g>
							<polygon class="st16" points="284.9,386.1 294.7,442.9 317.2,442.9 308.5,387        "/>
						</g>
					</g>
				</g>
				<g>
					<g>
						
							<rect x="343.1" y="403.4" transform="matrix(-1 -1.224647e-16 1.224647e-16 -1 693.1935 848.7113)" class="st18" width="7" height="42"/>
						<polygon class="st18" points="348.3,440 368.5,449.9 368.2,452.7 347.1,445.4       "/>
						<polygon class="st18" points="344.9,440 324.7,449.9 325,452.7 346,445.4       "/>
					</g>
					<ellipse class="st19" cx="367.6" cy="457.7" rx="4.8" ry="5.2"/>
					<ellipse class="st19" cx="324.7" cy="457.7" rx="4.8" ry="5.2"/>
					<path class="st9" d="M326.8,406.3h40.7c2.3,0,4.1-2,4.1-4.4l0,0c0-2.4-1.8-4.4-4.1-4.4h-40.7c-2.3,0-4.1,2-4.1,4.4l0,0       C322.7,404.3,324.5,406.3,326.8,406.3z"/>
				</g>
			</g>
			<g>
				<g>
					<path class="st20" d="M332,318.5l-17.3,25.3c-2.6,3.8-2.2,9,0.9,12.3l0,0c3.7,3.9,9.8,3.4,12.9-1.2l15.5-22.7L332,318.5z"/>
					<g>
						<path class="st7" d="M299.8,331.4c0,0-3.1-6.3-8.4-7.8c-4.1-1.1-7.5,5.6-8.8,8.6c-0.3,0.7,0,1.6,0.7,1.8l0,0        c0.4,0.1,0.8-0.1,1.1-0.4l1.4-2.1c0,0-0.3,4.5,3.3,4.1c3.6-0.4,4.7-1.9,4.7-1.9l4,3L299.8,331.4z"/>
						<polygon class="st5" points="324.6,344.2 299.4,325.8 292.7,336.7 318.7,358.4       "/>
					</g>
				</g>
				<path class="st5" d="M331.3,313c0,0,11.3,4.8,19.4,21.8c8.1,17,11.2,38.1,11.2,38.1s-15,4.5-32.3-3.6l-6.1-21.2      c0,0-5.4-6.8,0-28.1L331.3,313z"/>
				<g>
					<g>
						<path class="st7" d="M293.9,338.2c0,0-4.3-5.3-9.7-5.3c-4.2,0-6.1,7.4-6.8,10.7c-0.2,0.8,0.4,1.5,1.1,1.5l0,0        c0.4,0,0.8-0.3,1-0.7l1-2.4c0,0,0.6,4.5,4,3.1c3.4-1.4,4.2-3.1,4.2-3.1l4.5,1.8L293.9,338.2z"/>
						<polygon class="st5" points="319.7,345.8 291.2,334.2 287.1,346.6 317,361.1       "/>
					</g>
					<g>
						<path class="st5" d="M329.8,321.3l-17.3,25.3c-2.6,3.8-2.2,9,0.9,12.3l0,0c3.7,3.9,9.8,3.4,12.9-1.2l15.5-22.7L329.8,321.3z"/>
					</g>
				</g>
			</g>
			<g>
				<path d="M316.6,301.4l-7.6,0.3c-4.1,4.6-2.5,13.5-2.5,13.5l12.4-3.9L316.6,301.4z"/>
				<polygon class="st7" points="315.7,307.9 323.5,320.1 331.3,313 319.9,295.2     "/>
				<polygon class="st21" points="319.9,314.4 319.8,306.1 316.5,309.2     "/>
				<path class="st7" d="M305.7,283.1c0,0-5.2,2.7-3.5,10.2c0,0,1.3,5.4,3.2,13.2c1,4.1,5.3,6.3,8.7,4.3c2.1-1.2,4.3-3,6.1-5.6      l2.3-4.2c5-11.2-5.5-23.3-16-18.3C306.2,282.9,306,283,305.7,283.1z"/>
				<path class="st7" d="M304.9,300.8l-1.8,3.3c-0.2,0.5,0.1,1,0.6,0.9l2.5-0.5L304.9,300.8z"/>
				<g>
					<g>
						<path class="st22" d="M307.8,305.2"/>
						<path class="st22" d="M305.9,306.6"/>
					</g>
				</g>
				<path d="M316.5,294.1c0,0-1.6-18.9-13.9-7.2c0,0,2.9-11.5,17.1-9.6c3,0.4,6.6,3,7.9,6c2.1,4.7,0.7,9.7-1.3,18.8l-6.4-4.5      C319.3,296.5,316.5,294.1,316.5,294.1z"/>
				<path d="M319.7,287.4l-0.9,8.3c-20-0.5-14.1-12.4-14.1-12.4S318.2,273.9,319.7,287.4z"/>
				<polygon points="311.4,293.8 315.1,297.2 317,291.3     "/>
				<path d="M307.6,283.5c0,0-6,3.1-5.6,8.1c0,0-6.4-4,3.2-9.5C310.9,278.9,307.6,283.5,307.6,283.5z"/>
				<path d="M318.7,298c0,0,3.6,8.6,3.6,12.1l15.1-5.7c0,0-4.4-5-5.8-9.4c-1.1-3.5-1.6-12.2-8.2-16.1l0.3,11.5L318.7,298z"/>
				<g>
					<path class="st7" d="M322.2,295c0.7,2.1-0.2,4.5-2.2,5.3c-1.9,0.8-4.1-0.3-4.9-2.4c-0.7-2.1,0.2-4.5,2.2-5.3       C319.3,291.8,321.5,292.9,322.2,295z"/>
					<path class="st22" d="M319,294.5"/>
					<path class="st22" d="M317.4,297.8"/>
				</g>
				<path class="st7" d="M331.3,313c0,0-2.4,7.6-8.6,10.5l1.8-8.5L331.3,313z"/>
			</g>
		</g>
	</g>
</g>
<g xmlns="http://www.w3.org/2000/svg">
	<g>
		<path class="st23" d="M345.2,275.1l6.6,3.8l-0.5,3.9l5.2,4.7l-6.9,7.9l-16-10.9c0,0,4.3-13.6,5.3-13.3    C339.9,271.7,345.2,275.1,345.2,275.1z"/>
		<polygon class="st24" points="335.7,271.3 338.5,291.5 349.7,291.8 352.4,271.3   "/>
		<polyline class="st5" points="333.3,271.6 354.4,271.6 354.4,269.6 352.4,269.6 352.4,266.5 335.3,268.8 335.2,269.9 333.3,269.9     333.3,271.8   "/>
		<path class="st7" d="M334.8,285c-3.9,0.3,1-9.3,1-9.3s10.5-0.6,10.6-0.1c0.1,0.5,0.1,1.4-0.8,1.6c-0.8,0.2-7.4,1-7.4,1    s6.8,0.3,6.7,1c-0.2,1-1,1.1-3,1.4c-1.7,0.2-5.5,0.3-5.5,0.3s7.2,0.1,7.1,0.6c-0.2,0.4,0.3,1.8-2.2,1.4    C335.6,282.1,334.8,285,334.8,285z"/>
		<path class="st23" d="M351.7,276.7c0,0,2.5-4.6,5.6-4.4c0,0-3.7,4.1-4.2,6.9c-0.5,2.8-0.7,4.7-0.7,4.7h-1.6L351.7,276.7z"/>
	</g>
	<path class="st3" d="M382.1,323.9c0,0-10.7,68.3-5.7,82.8c5,14.5,6.9,27.6,6.9,27.6l24.8-6.6c0,0-8.2-34.2-9.4-40.7   c-1.2-6.6,11.5-59.9,11.5-59.9L382.1,323.9z"/>
	<path class="st3" d="M393.8,328.8l11.7,109.8h23.7c0,0-7.7-116.2-6.3-117.2C424.3,320.5,393.8,328.8,393.8,328.8z"/>
	<path class="st6" d="M384.4,261.9c0,0-2.5,36.8-8,35.5c-5.5-1.3-20.1-10.9-20.1-10.9l-8.9,8.8c0,0,27.1,27.3,38.2,16.1   C396.9,300.3,384.4,261.9,384.4,261.9z"/>
	<path class="st6" d="M391.8,456.9l-1.6-7.4l17.3-6.3l2.7,11l-1,0.1c-3.9,1.6-22.7,9.5-25.7,9.8   C380.2,464.4,391.8,456.9,391.8,456.9z"/>
	<g>
		<path class="st7" d="M432.9,348.9l-1.9,2.5c0,0-0.9,1.7-3.1,4.2c-0.6,0.7-1.3,1.2-2.1,1.7c-1,0.5-2.3,1.2-3.1,1.4    c-1,0.2-1.3,1.4-0.4,1.8c0.9,0.4,3.8-0.2,6.5-2c2.7-1.9,1.5,2.9,1,4.6c-0.4,1.7-1.5,7.1-1,7.7c0.7,0.8,1.8,0.3,2.2-1.5    c0.4-1.8,1.9-6.9,2.9-6.6c1,0.2-1.3,9-1.3,9s-0.8,1.8,0.3,2.1c2.1,0.6,3.8-8.9,3.9-9.8c0.1-0.6,1.2-0.4,1,0.3    c-0.1,0.7-2.5,8.7-0.4,9.3c1.6,0.5,1.5-7.8,3-9.2s-0.6,6.3,0.9,6.7c0.6,0.1,1,0.2,1.6-4.4c0.5-4.7-0.3-17.6-0.3-17.6l-9.9,0.1"/>
	</g>
	<g>
		<g>
			<g>
				<path class="st23" d="M398.5,249.5c0.2-1.5-0.6-7.6-0.6-7.6s-6.2-0.4-6.8-6c-0.6-5.6-0.7-18.4-0.7-18.4l11.1-5.3l12.7,8.2      l2.9,6.1l-3.8,14.5l0,7.3L398.5,249.5z"/>
				<path class="st25" d="M397.9,241.9c0,0,4.1-0.1,8.1-2.7c0,0-1.7,4.1-7.9,4.1L397.9,241.9z"/>
			</g>
			<path class="st6" d="M416.9,232.6c-1.7,3.4-2.7,8.3-2.7,8.3c-0.9,1.5-1.2-3.3-1.2-3.3s-0.8-4.7-0.1-6.5c0,0,3.1,0.9,3.8-4.2     c0.3-2.5-3.8-3.7-5-0.7l-2.6,0.2c0,0-0.2-9.5-6.2-7.8c0,0-4.4,2.4-7,0.9c-2.6-1.5-2.4-2-2.4-2s-1.3,2.5-4.6,0.9     c-3.4-1.6-3.8-4.6-2.6-6c0.7-0.8,1.3-1.7,2.4-1.9c1.1-0.2,2.3,0.2,3,1c-0.8-1.1-0.2-2.7,1-3.5c1.2-0.7,2.9-0.7,4.2-0.2     s2.5,1.3,3.6,2.2c0.8-2,3.1-3.4,5.5-3.2c2.3,0.2,4.4,1.9,4.8,4c1.3-1.4,3.7-1.7,5.5-1s3,2.5,3.4,4.3c0.3,1.8-0.1,3.7-0.8,5.4     c1.4-0.7,3.4-0.2,4.3,1c0.9,1.2,1,2.9,0.3,4.2c-0.7,1.3-2,2.3-3.4,3c1.1,0.8,1.4,2.3,0.7,3.4c-0.7,1.1-2.2,1.7-3.5,1.3"/>
		</g>
		<g>
			<path class="st25" d="M412.5,229.2c0,0,0.1,0.1,0.2,0.1c0.1,0.1,0.4,0.1,0.7,0.1c0.6-0.2,1.1-0.9,1.2-1.8c0-0.4,0-0.8-0.2-1.2     c-0.1-0.4-0.4-0.6-0.6-0.7c-0.3-0.1-0.5,0.1-0.6,0.2c-0.1,0.1-0.1,0.2-0.1,0.2c0,0-0.1-0.1-0.1-0.3c0-0.1,0.1-0.2,0.2-0.3     c0.1-0.1,0.3-0.1,0.5-0.1c0.4,0,0.7,0.4,0.9,0.8c0.2,0.4,0.3,0.9,0.2,1.3c-0.1,1-0.7,1.8-1.5,2c-0.4,0.1-0.7-0.1-0.8-0.2     C412.5,229.3,412.5,229.2,412.5,229.2z"/>
		</g>
	</g>
	<path class="st24" d="M438.2,264.1c0,0-4.2-17.7-24.8-15.9c-18.8,1.7-18.8,1.7-18.8,1.7s-12.9,4.9-11.1,18.9   c1.8,13.9,2.7,26.7,2.2,29.1c-0.5,2.5-5,24.4-3.6,25.9c13.6,14.9,48.2-8.9,48.2-8.9L438.2,264.1z"/>
	<path class="st6" d="M413.4,248.3l4.8,103.7l14.3-7l-1.5-92C430.9,253,427.1,247,413.4,248.3z"/>
	<path class="st6" d="M443.1,350.8l-4.9-86.6c-1.5-5.3-4.8-9.4-9-12.8v100.6L443.1,350.8z"/>
	<path class="st6" d="M398.5,249.5c0,0-12.8,5.8-12.2,25.2c0.6,19.5-7.7,74.5-7.7,74.5l-10.7-2c0,0,12.4-52.1,12.9-61.3   c0.5-9.3-0.4-22.5,6.6-31.6C392.3,247.9,398.5,249.5,398.5,249.5z"/>
	<path class="st26" d="M413.4,248.3c0,0,4.2,8.5,3.8,11.7c-0.4,3.1-1.9,9.7-1.9,9.7s3.1,1.7,2.9,3.2c-0.2,1.5-3.2,16.5-3.2,16.5   L413.4,248.3z"/>
	<g>
		<g>
			<g>
				<path class="st26" d="M426.9,269.4c0.1,0,0.2,1.1,0.4,3.2c0.2,2.1,0.4,5.1,0.5,8.8c0.3,7.5,0.6,17.8,0.8,29.2      c0.2,11.4,0.3,21.7,0.5,29.2c0.1,3.7,0.1,6.7,0.2,8.8c0.1,2.1,0,3.2,0,3.2c-0.1,0-0.2-1.1-0.4-3.2c-0.2-2.1-0.4-5.1-0.5-8.8      c-0.3-7.5-0.6-17.8-0.8-29.2c-0.2-11.4-0.3-21.7-0.5-29.2c-0.1-3.7-0.1-6.7-0.2-8.8C426.8,270.6,426.8,269.4,426.9,269.4z"/>
			</g>
		</g>
	</g>
	<path class="st23" d="M391.6,449c0.2-0.1-4.3-15.7-4.3-15.7l15.2-4l3.2,14.7L391.6,449z"/>
	<rect x="409.3" y="438.6" class="st23" width="17.3" height="12.3"/>
	<path class="st6" d="M407.7,457.5l1.6-7.4h18.6l-2,10.9l-1,0c-4.3,0.2-25,1.2-27.9,0.4C393.9,460.6,407.7,457.5,407.7,457.5z"/>
</g>
<g xmlns="http://www.w3.org/2000/svg">
	<g>
		<path class="st6" d="M514.4,230.1c1.3,4.2,2.6,8.5,3.9,12.7c0.2,0.6,0.4,1.2,0.3,1.8c0,1.8-1.8,3.2-3.6,3.5    c-1.8,0.3-3.7-0.1-5.5-0.6c-0.5,1.8-2.7,2.6-4.6,2.9c-8.5,1.6-17.5,0.5-25.3-3.1c3.4-4.7,6.1-9.8,8.2-15.1    c6.7,0.3,13.3,0.6,20,0.9c1.2,0.1,2.4,0.1,3.5-0.3c1.1-0.4,2.1-1.3,2.2-2.5"/>
	</g>
	<g>
		<path class="st25" d="M436.9,286l-2-2.2c0,0-1.4-1.1-3.4-3.6c-0.5-0.6-0.9-1.4-1.2-2.2c-0.3-0.9-0.7-2.2-0.7-3    c0-0.9-1.1-1.4-1.7-0.7c-0.5,0.7-0.7,3.2,0.5,6c1.2,2.8-3.1,0.6-4.7-0.2c-1.6-0.8-6.6-2.9-7.3-2.7c-0.9,0.4-0.6,1.5,1,2.2    c1.6,0.7,6.3,3.3,5.8,4.1c-0.5,0.8-8.5-3.3-8.5-3.3s-1.6-1.1-2.1-0.2c-1,1.6,7.9,5.3,8.7,5.7c0.6,0.2,0.1,1.1-0.5,0.8    c-0.6-0.3-7.9-4.2-9-2.6c-0.8,1.3,7.3,3.1,8.3,4.7s-6-2-6.7-0.8c-0.3,0.5-0.4,0.8,3.9,2.4c4.5,1.6,17.2,3.9,17.2,3.9l2.1-8.5"/>
		<path class="st7" d="M473,266c0,0-7.3,20.4-9.5,20.6c-15.3,1.4-32-5.1-32-5.1l-4.2,11.5c0,0,43.5,18.8,52.8,0.7    c9.9-19.3,9.4-22.3,9.4-22.3L473,266z"/>
	</g>
	<path class="st5" d="M474,381.3c7.8,34.6,59,66.9,59,66.9l8.7-10.4c0,0-41.2-35.6-42.9-51.4c-1.8-15.8,11.9-40.6,11.9-40.6   l-14.2-5.8L474,381.3z"/>
	<path class="st23" d="M491.3,255c0.3-1.4-0.3-7.4-0.3-7.4s-5.6-0.6-6-6s0-17.9,0-17.9l10.3-4.9l11.3,8.3l-1.7,27.1L491.3,255z"/>
	<path class="st6" d="M505.7,231.3c0,0-9.2-0.8-10.8-8.9l-10,8.9c0,0-3-6,2.5-11.6c5.5-5.6,9.3-4.4,11.5-4.4c2,0,12.3,2.1,15.3,13.4   c0.2,0.8,0.4,2.8,0.5,3.8L505.7,231.3z"/>
	<path class="st25" d="M491,247.6c0,0,3.8,0,7.4-2.4c0,0-1.7,4-7.3,3.8L491,247.6z"/>
	<path class="st9" d="M479.4,316.1c0,1.9,0.7,4.6,0.7,4.6l39.6,11.1c0,0,2.8-17.4-4.4-27c-3.3-4.4-2.6-10.7-1.2-16l4.7-18.2   l-6.2-17.1l-25,1.6c0,0-14.5-1.4-19.5,17.1l9.3,13.5l0.1,5.1L479.4,316.1z"/>
	<path class="st5" d="M518.1,309.3c0.4,0,7.6,15.6,1.1,24.9c-0.6,0.9-2.1,3-4.1,6c-9.6,14.3-31.5,47.9-32.3,52.8   c-0.9,5.9-18.6,68.6-18.6,68.6l-13.2-2l10.8-71l17.6-72.4L518.1,309.3z"/>
	<path class="st6" d="M495.2,221.7c0,0-2,3.8-1.2,6.7l-9,2.2C485,230.7,483,219.7,495.2,221.7z"/>
	<path class="st6" d="M514.8,231.7c0,0,1.1,12.5-9.8,14.7l0.7-15L514.8,231.7z"/>
	<g>
		
			<linearGradient id="SVGID_1_" gradientUnits="userSpaceOnUse" x1="826.2451" y1="526.8267" x2="779.1727" y2="511.0575" gradientTransform="matrix(-0.9978 6.670000e-02 6.670000e-02 0.9978 1212.3431 -295.0086)">
			<stop offset="0" style="stop-color:#FFFFFF"/>
			<stop offset="0.2316" style="stop-color:#FFFFFF;stop-opacity:0.7684"/>
			<stop offset="1" style="stop-color:#FFFFFF;stop-opacity:0"/>
		</linearGradient>
		<polygon class="st27" points="490.8,285.5 458.3,243.7 397.3,270.4 421.9,293.2 449.7,297.6   "/>
		<polygon class="st28" points="473.7,289.7 451.4,298.8 415,299.6 397.3,270.4 434.8,268 451,296.2 473.6,287.7   "/>
	</g>
	<path class="st29" d="M512.6,253.4"/>
	<polygon class="st9" points="469.7,268.3 463.5,283.1 477.5,289.9 478.8,276.9  "/>
	<polygon class="st30" points="508.4,253.6 506,250.9 495.9,253.4 497.1,256.3  "/>
	<polyline class="st23" points="497.1,256.3 493.1,263.9 493,256.3 493.4,254 496.1,254 497.1,256.3  "/>
	<polygon class="st30" points="493,256.3 493.5,253.4 491,252.4 488.1,255  "/>
	<g>
		<path class="st31" d="M475.1,284.2"/>
	</g>
	<g>
		<path class="st30" d="M477.4,290.1c0,0,0.2-0.3,0.2-1c0-0.7-0.4-1.6-1.2-2.5c-0.7-0.9-1.9-1.8-2.1-3.2c-0.1-0.7-0.1-1.4,0.2-2.2    c0.3-0.7,0.8-1.4,1.4-1.8c0.6-0.4,1.4-0.7,2.1-0.7l0.2,0l0-0.2c0.4-2.8,0.9-5.4,1.1-7.2c0.2-1.8,0-2.9-0.1-2.9    c-0.1,0-0.1,1.1-0.3,2.9c-0.2,1.8-0.8,4.3-1.3,7.2l0.3-0.3c-0.8,0-1.7,0.3-2.4,0.8c-0.8,0.5-1.4,1.3-1.7,2.1    c-0.3,0.8-0.3,1.7-0.1,2.5c0.2,0.8,0.6,1.5,1,2c0.5,0.5,0.9,1,1.3,1.4c0.8,0.8,1.2,1.6,1.3,2.2    C477.5,289.7,477.3,290.1,477.4,290.1z"/>
	</g>
	<g>
		<path class="st30" d="M477.4,270.5c-0.1,0.1,0.2,0.8,0.6,1.6c0.4,0.8,0.6,1.6,0.8,1.6c0.2,0,0.2-0.9-0.2-1.8    C478.2,271,477.5,270.4,477.4,270.5z"/>
	</g>
	<g>
		<path class="st30" d="M463,283.1c-0.1,0.1,3.1,1.9,7.2,3.7c4.1,1.8,7.5,3,7.5,2.9c0.1-0.2-3.2-1.6-7.3-3.4    C466.4,284.5,463.1,283,463,283.1z"/>
	</g>
	<g>
		<path class="st30" d="M463.8,281c-0.1,0.1,2.8,1.8,6.4,3.6c3.6,1.9,6.6,3.2,6.7,3.1c0.1-0.1-2.8-1.8-6.4-3.6    C466.9,282.2,463.9,280.9,463.8,281z"/>
	</g>
	<g>
		<path class="st30" d="M482.6,271c0,0.2,0.8,0.3,1.9,0.4c1.1,0.1,1.9,0,1.9-0.2c0-0.2-0.8-0.3-1.9-0.4    C483.5,270.8,482.6,270.8,482.6,271z"/>
	</g>
	<g>
		<path class="st30" d="M482.3,271.7c0,0.2,0.9,0.5,2.2,0.8c1.2,0.3,2.3,0.4,2.3,0.3c0-0.2-0.9-0.5-2.2-0.8    C483.3,271.6,482.3,271.5,482.3,271.7z"/>
	</g>
	<g>
		<path class="st6" d="M449.8,459.5c0,0-11.6,3-8.7,3.9c2.9,0.8,23-1.3,23-1.3l0.7-2.2L449.8,459.5z"/>
		<polygon class="st6" points="464.1,462.1 468.1,451.3 450.4,451.3 449.8,459.5   "/>
	</g>
	<g>
		<path class="st6" d="M533.1,448.9c0,0-2.9,11.3-0.8,9.2c2.2-2,10.1-20.1,10.1-20.1l-1.7-1.6L533.1,448.9z"/>
		<polygon class="st6" points="542.4,438 534.7,429.4 526.1,444.4 533.1,448.9   "/>
	</g>
	<g>
		<path class="st6" d="M494.4,218.2c0-0.1-1.1-0.1-2.8,0.3c-1.7,0.4-3.9,1.5-5.7,3.4c-1.8,1.9-2.7,4.1-3.1,5.8    c-0.3,1.6-0.2,2.7-0.1,2.7c0.1,0,0.1-1,0.6-2.6c0.4-1.6,1.4-3.7,3.1-5.5c1.7-1.8,3.8-2.9,5.4-3.4    C493.3,218.4,494.4,218.3,494.4,218.2z"/>
	</g>
	<path class="st32" d="M419.9,284.4c0.5,1.3,1.7,2.1,2.7,1.8c1-0.3,1.4-1.7,0.9-3c-0.5-1.3-1.7-2.1-2.7-1.8   C419.8,281.8,419.4,283.1,419.9,284.4z"/>
	<path class="st6" d="M500.9,316.8c0,0-0.5-50,1.3-53.8c0,0,1.9-9.4,9.3-9.6l-3.3,0.2c0,0-6.7-0.5-8.7,12.4   c-1.9,12.8-1.8,51.2-1.8,51.2L500.9,316.8z"/>
	<path class="st6" d="M486.5,318.6c0,0-2-57.5-0.4-63.5h-2c0,0-1.8,4.9-1.4,18.7c0.2,8.3,0,44.8,0,44.8H486.5z"/>
	<g>
		<path class="st23" d="M462.8,293c0,0-9.7,6-11.8,5.9c-2.1,0-8.2-0.2-7.6,0.6c0.6,0.8,7.6,1.9,7.6,1.9L462.8,293z"/>
		<path class="st23" d="M463.6,305.6c0,0,46,12,52.3-7.4c6.7-20.5,6.8-15.2,6.8-15.2l-14.4-13.5c0,0-7.7,23.7-9.9,24.2    c-12.1,3-25.8,1.1-30.6,0.2c-0.5-0.4-1.2-1-1.9-1.6c-0.6-0.6-1.1-1.2-1.5-2c-0.5-0.9-1-2.1-1.1-2.8c-0.1-0.9-1.4-1.2-1.8-0.5    s-0.1,3.3,1.5,5.9c0,0-10.9,6.8-11.8,8.5L463.6,305.6z"/>
		<path class="st9" d="M512.6,253.4c0,0,10.5,1.9,10.9,18c0.4,16-6.3,28.2-6.3,28.2l-17.8-9L512.6,253.4"/>
		<g>
			<path class="st30" d="M499.5,290.7c0,0.1,1,0.5,2.7,1.3c1.7,0.7,3.9,1.8,6.4,3c2.5,1.3,4.7,2.5,6.2,3.4c1.6,0.9,2.6,1.5,2.6,1.4     c0-0.1-0.8-0.8-2.4-1.7c-1.5-1-3.7-2.3-6.2-3.5c-2.5-1.3-4.8-2.3-6.5-2.9C500.6,290.9,499.5,290.6,499.5,290.7z"/>
		</g>
		<g>
			<path class="st30" d="M500.2,289.5c0,0.1,1,0.5,2.7,1.1c1.7,0.6,4,1.6,6.4,2.7c2.5,1.2,4.6,2.3,6.2,3.2c1.6,0.9,2.5,1.4,2.6,1.3     c0-0.1-0.8-0.7-2.3-1.7c-1.5-1-3.7-2.2-6.1-3.4c-2.5-1.2-4.8-2-6.5-2.6C501.3,289.7,500.2,289.4,500.2,289.5z"/>
		</g>
		<g>
			<path class="st30" d="M505.3,272.3c0.2,0,0.5-1.3,0.3-3c-0.1-1.7-0.7-3-0.8-2.9c-0.2,0,0.1,1.4,0.2,3     C505.2,270.9,505.1,272.3,505.3,272.3z"/>
		</g>
		<g>
			<path class="st30" d="M499.5,290.6c0.1,0,0.8-1.2,1.7-3.2c1-2,2.1-4.9,3.1-8.1c1-3.3,1.6-6.3,1.9-8.5c0.3-2.2,0.4-3.6,0.3-3.6     c-0.1,0-0.3,1.3-0.8,3.5c-0.4,2.2-1.1,5.1-2.1,8.4c-1,3.2-2.1,6.1-2.9,8.1C500,289.3,499.4,290.5,499.5,290.6z"/>
		</g>
	</g>
</g>
</svg>