<svg version="1.1" id="Layer_1" xmlns="http://www.w3.org/2000/svg" xmlns:xlink="http://www.w3.org/1999/xlink" x="0px" y="0px" viewBox="0 0 1080 1080" enable-background="new 0 0 1080 1080" xml:space="preserve">
<path xmlns="http://www.w3.org/2000/svg" opacity="0.1" fill="#2A94F4" d="M218.517,722.928c0-184.73,149.753-334.483,334.483-334.483s334.483,149.753,334.483,334.483"/>
<g xmlns="http://www.w3.org/2000/svg">
	<g>
		<g opacity="0.4">
			<path fill="#2A94F4" d="M295.431,664.501c3.384,1.859,5.389,5.553,6.248,9.518c0.852,3.959,0.686,8.22,0.539,12.433     c-0.101,2.711-0.162,5.572,1.095,7.751c1.527,2.628,4.704,3.716,7.845,3.894c3.148,0.183,6.402-0.398,9.575-0.387     c9.878,0.037,18.706,6.525,20.665,16.149c1.484,7.305-1.405,16.003-6.995,21.918c-4.928,6.49-13.042,10.77-20.485,10.493     c-9.821-0.352-17.666-8-19.311-17.746c-0.529-3.128-0.488-6.434-1.184-9.51c-0.689-3.07-2.288-6.018-5.131-7.095     c-2.349-0.891-5.161-0.363-7.82,0.18c-4.138,0.842-8.315,1.702-12.36,1.509c-4.052-0.199-8.024-1.573-10.405-4.615     c-1.886-2.401-2.633-5.612-3.335-8.731c-1.118-4.91-2.23-9.827-3.341-14.744c-0.455-2.017-0.942-4.088-2.197-5.605     c-3.32-4.032-10.001-2.433-15.463-2.74c-9.206-0.53-16.576-8.06-17.112-17.5c-0.366-6.318,2.343-13.109,6.852-18.258     c4.336-5.283,10.593-9.066,16.885-9.739c9.394-1.007,18.028,5.031,20.056,14.027c1.203,5.331,0.718,12.183,5.232,14.807     c1.702,0.99,3.83,1.124,5.895,1.243c5.033,0.293,10.059,0.592,15.092,0.885C289.465,662.821,292.754,663.034,295.431,664.501z"/>
		</g>
		<path fill="#FFFFFF" d="M293.788,683.208c-0.129-0.478-0.89-0.506-0.76-0.025c1.901,7.047,3.101,14.083,3.571,21.043    c0.015,0.22,0.194,0.381,0.376,0.445c-0.029,0.001-0.059,0.002-0.088,0.004c-4.931-4.201-9.861-8.402-14.792-12.604    c-0.005-0.005-0.01-0.009-0.015-0.013c-1.247-5.946-2.495-11.893-3.742-17.839c-0.101-0.481-0.861-0.506-0.76-0.025    c1.194,5.693,2.389,11.387,3.583,17.08c-5.761-4.908-11.521-9.817-17.282-14.725c-0.486-4.062-0.973-8.123-1.459-12.185    c-0.057-0.478-0.817-0.5-0.76-0.025c0.458,3.83,0.917,7.661,1.376,11.491l-3.384-2.883c-7.26-6.186-14.52-12.372-21.78-18.558    c-0.413-0.352-0.846,0.158-0.433,0.51l25.879,22.05c-4.423,0.358-8.947,0.268-13.565-0.29c-0.496-0.06-0.344,0.686,0.149,0.746    c4.762,0.576,9.426,0.664,13.98,0.265c0.082-0.007,0.139-0.041,0.185-0.083l16.847,14.354c-6.111-0.003-12.222-0.006-18.333-0.009    c-0.486,0-0.338,0.746,0.149,0.746c6.353,0.003,12.707,0.006,19.06,0.009l14.111,12.023c-5.986,0.23-11.973,0.46-17.959,0.69    c-0.479,0.018-0.333,0.765,0.149,0.746c6.218-0.239,12.436-0.478,18.654-0.717c5.642,4.807,11.284,9.614,16.925,14.421    c1.036,0.883,2.072,1.765,3.108,2.648c-5.857-0.173-11.714-0.346-17.571-0.519c-0.489-0.014-0.341,0.731,0.149,0.746l18.324,0.541    c5.924,5.047,11.847,10.094,17.771,15.142c0.413,0.352,0.846-0.158,0.432-0.51c-5.683-4.842-11.367-9.685-17.05-14.527    c0.015-0.047,0.02-0.101,0.007-0.167c-1.3-6.511-2.6-13.022-3.9-19.533c-0.096-0.481-0.856-0.506-0.76-0.025    c1.257,6.296,2.514,12.592,3.771,18.888c-0.002,0-0.004-0.001-0.006-0.001c-0.033-0.001-0.066-0.002-0.099-0.003l-20.199-17.21    c0.208-0.194,0.045-0.679-0.347-0.664c-0.007,0-0.013,0.001-0.019,0.001c0.06-0.041,0.099-0.11,0.092-0.22    C296.897,697.416,295.706,690.321,293.788,683.208z"/>
	</g>
	<g>
		<g>
			<path fill="#e12021" d="M356.957,702.352c-1.019,9.299-7.486,14.948-14.419,18.376l-9.195,5.165     c-6.535,4.137-14.724,6.719-23.195,2.751c-6.076-2.841-11.603-8.908-14.966-15.807c-3.373-6.903-4.661-14.531-4.063-21.262     c0.211-2.409,0.622-4.931-0.423-7.455c-0.674-1.628-1.869-3.015-3.114-4.19c-4.172-3.94-9.549-6.617-12.101-11.994     c-2.01-4.242-1.499-8.797-0.313-12.463c1.19-3.658,2.985-6.957,3.389-11.065c0.171-1.738,0.08-3.632-0.557-5.494     c-2.758-8.15-13.085-10.427-17.006-18.228c-1.847-3.665-1.781-7.726-1.024-11.101c0.753-3.382,2.124-6.382,2.7-9.858     c0.635-3.853,0.19-8.225-1.154-12.477c2.932,3.36,6.444,6.009,10.06,7.475c3.268,1.316,6.543,1.707,9.823,2.824     c3.276,1.109,6.777,3.166,8.946,6.651c4.621,7.408,1.192,17.412,6.711,24.011c1.264,1.509,2.834,2.574,4.402,3.335     c3.719,1.793,7.475,1.974,11.218,2.861c3.748,0.895,7.903,2.828,10.474,6.755c3.269,4.975,2.751,10.962,3.95,16.572     c0.356,1.675,0.912,3.42,1.958,4.839c1.612,2.206,3.979,3.167,6.146,4.241c6.058,2.992,11.902,8.061,16.042,14.534     C355.388,687.808,357.693,695.686,356.957,702.352z"/>
		</g>
		<path fill="#FFFFFF" d="M339.951,676.144c-5.627,9.937-10.625,20.207-14.988,30.76c-3.683-7.083-7.366-14.167-11.048-21.251    c0.019-0.025,0.04-0.045,0.054-0.078c3.448-8.116,6.896-16.231,10.344-24.347c0.209-0.492-0.515-0.925-0.727-0.426    c-3.387,7.971-6.773,15.941-10.16,23.912c-2.986-5.744-5.973-11.488-8.959-17.232c0.178,0.011,0.364-0.068,0.443-0.278    c2.823-7.495,5.5-15.042,8.029-22.641c0.172-0.516-0.64-0.741-0.811-0.228c-2.516,7.559-5.179,15.066-7.986,22.522    c-3.217-6.189-6.435-12.377-9.652-18.566c0.005-0.016,0.015-0.026,0.019-0.044c1.074-5.155,2.148-10.31,3.222-15.465    c0.11-0.529-0.7-0.76-0.811-0.228c-1.012,4.857-2.024,9.714-3.036,14.571l-8.277-15.919c0.029-0.038,0.057-0.079,0.075-0.132    c1.259-3.854,2.518-7.708,3.776-11.562c0.169-0.517-0.643-0.743-0.811-0.228c-1.188,3.638-2.376,7.275-3.565,10.913    c-0.541-1.04-1.082-2.081-1.623-3.121c-0.966-1.858-1.932-3.716-2.898-5.574c0.133-0.056,0.241-0.172,0.251-0.357    c0.335-6.581,0.671-13.162,1.006-19.742c0.027-0.543-0.815-0.555-0.843-0.015c-0.324,6.348-0.647,12.697-0.971,19.045    c-4.286-8.245-8.573-16.49-12.859-24.734c-0.25-0.481-0.985-0.068-0.735,0.413c4.174,8.028,8.348,16.056,12.521,24.084    c-4.71-2.117-9.42-4.233-14.13-6.35c-0.489-0.22-0.922,0.504-0.426,0.727c5.03,2.261,10.06,4.521,15.09,6.782    c0.026,0.012,0.052,0.011,0.078,0.018l4.474,8.605c-3.014-0.769-6.029-1.538-9.043-2.306c-0.525-0.134-0.754,0.677-0.228,0.811    c3.264,0.832,6.528,1.665,9.791,2.497l8.293,15.951c-3.832-1.591-7.481-3.531-10.932-5.848c-0.45-0.302-0.876,0.425-0.426,0.727    c3.762,2.525,7.757,4.611,11.964,6.285l9.966,19.169c-7.9-1.892-15.8-3.784-23.7-5.676c-0.527-0.126-0.756,0.685-0.228,0.811    c8.13,1.947,16.26,3.894,24.39,5.841c0.016,0.004,0.03-0.001,0.046,0.002l8.877,17.075c-6.545-0.876-13.09-1.752-19.636-2.628    c-0.537-0.072-0.546,0.772-0.014,0.843c6.707,0.898,13.415,1.796,20.122,2.693l10.248,19.712c0.152,0.293,0.304,0.586,0.456,0.878    c-9.964-2.886-19.928-5.771-29.892-8.657c-0.522-0.151-0.749,0.66-0.228,0.811c10.219,2.96,20.438,5.919,30.657,8.879    c5.107,9.823,10.214,19.645,15.32,29.468c0.25,0.481,0.985,0.068,0.735-0.413c-5.053-9.719-10.106-19.439-15.159-29.158    c0.088-0.044,0.166-0.114,0.211-0.224c4.373-10.623,9.407-20.954,15.067-30.95C340.945,676.099,340.219,675.67,339.951,676.144z"/>
	</g>
	<g>
		<g opacity="0.4">
			<path fill="#2A94F4" d="M354.594,712.257c-5.845,7.303-14.333,8.606-22.023,7.782l-10.531-0.569     c-7.734-0.011-16.032-2.221-21.055-10.112c-3.606-5.655-5.02-13.74-4.16-21.367c0.853-7.635,3.855-14.765,7.968-20.127     c1.47-1.921,3.168-3.828,3.639-6.52c0.304-1.736,0.039-3.547-0.382-5.207c-1.41-5.563-4.514-10.704-3.786-16.612     c0.577-4.659,3.451-8.229,6.417-10.688c2.966-2.45,6.249-4.273,8.792-7.524c1.076-1.375,2.014-3.024,2.475-4.937     c2.041-8.359-5.456-15.817-4.584-24.505c0.406-4.084,2.638-7.477,5.087-9.92c2.449-2.452,5.214-4.249,7.564-6.874     c2.602-2.912,4.569-6.841,5.715-11.151c0.674,4.408,2.219,8.527,4.485,11.703c2.053,2.863,4.608,4.948,6.779,7.65     c2.171,2.693,4.024,6.306,3.987,10.41c-0.07,8.731-8.328,15.337-7.206,23.867c0.258,1.952,1.013,3.692,1.928,5.175     c2.178,3.507,5.252,5.673,7.936,8.429c2.684,2.765,5.155,6.624,5.221,11.318c0.093,5.952-3.554,10.728-5.549,16.107     c-0.597,1.605-1.063,3.376-0.941,5.135c0.178,2.726,1.661,4.807,2.915,6.874c3.51,5.774,5.726,13.186,5.751,20.869     C361.066,699.138,358.789,707.023,354.594,712.257z"/>
		</g>
		<path fill="#FFFFFF" d="M354.287,681.016c-10.077,5.372-19.802,11.362-29.142,17.932c0.688-7.954,1.377-15.908,2.065-23.862    c0.029-0.011,0.058-0.016,0.088-0.037c7.261-5.003,14.523-10.005,21.784-15.007c0.44-0.303,0.061-1.057-0.385-0.75    c-7.132,4.913-14.263,9.826-21.395,14.739c0.558-6.449,1.117-12.899,1.675-19.349c0.144,0.104,0.343,0.138,0.523,0.003    c6.401-4.813,12.707-9.75,18.915-14.808c0.421-0.343-0.143-0.969-0.563-0.627c-6.176,5.032-12.449,9.942-18.815,14.731    c0.601-6.949,1.203-13.898,1.804-20.847c0.013-0.011,0.027-0.014,0.04-0.027c3.67-3.776,7.34-7.552,11.011-11.328    c0.376-0.387-0.184-1.017-0.563-0.627c-3.458,3.557-6.916,7.115-10.374,10.673l1.547-17.875c0.045-0.016,0.091-0.036,0.134-0.071    c3.129-2.579,6.257-5.157,9.386-7.735c0.419-0.346-0.145-0.972-0.563-0.627c-2.953,2.434-5.906,4.868-8.859,7.301    c0.101-1.168,0.202-2.337,0.303-3.505c0.181-2.086,0.361-4.173,0.542-6.259c0.143,0.024,0.296-0.016,0.404-0.167    c3.811-5.375,7.622-10.751,11.433-16.126c0.315-0.444-0.39-0.906-0.704-0.464c-3.676,5.185-7.353,10.371-11.029,15.556    c0.801-9.258,1.603-18.516,2.404-27.773c0.047-0.541-0.795-0.586-0.842-0.046c-0.78,9.014-1.56,18.029-2.341,27.043    c-2.841-4.312-5.682-8.624-8.524-12.935c-0.295-0.448-1.049-0.068-0.75,0.385c3.034,4.605,6.069,9.21,9.103,13.814    c0.016,0.024,0.038,0.037,0.056,0.056l-0.836,9.662c-2.132-2.265-4.265-4.53-6.397-6.795c-0.372-0.395-1,0.167-0.627,0.563    c2.309,2.452,4.618,4.905,6.927,7.357l-1.55,17.912c-2.382-3.397-4.422-6.991-6.094-10.797c-0.218-0.497-0.967-0.111-0.75,0.385    c1.822,4.148,4.076,8.05,6.73,11.719l-1.863,21.524c-5.655-5.832-11.309-11.664-16.964-17.496    c-0.377-0.389-1.006,0.173-0.627,0.563c5.819,6.002,11.639,12.004,17.458,18.006c0.012,0.012,0.026,0.016,0.038,0.026    l-1.66,19.173c-5.056-4.248-10.111-8.496-15.167-12.745c-0.415-0.349-0.875,0.359-0.464,0.704    c5.181,4.354,10.362,8.707,15.543,13.06l-1.916,22.134c-0.028,0.329-0.057,0.657-0.085,0.986    c-6.864-7.777-13.729-15.555-20.593-23.333c-0.359-0.407-0.986,0.156-0.627,0.563c7.04,7.977,14.08,15.953,21.12,23.93    c-0.955,11.029-1.909,22.059-2.864,33.089c-0.047,0.541,0.795,0.586,0.842,0.046c0.945-10.914,1.889-21.828,2.834-32.741    c0.098,0.01,0.201-0.007,0.298-0.076c9.386-6.623,19.174-12.646,29.311-18.049C355.151,681.51,354.768,680.76,354.287,681.016z"/>
	</g>
</g>
<g xmlns="http://www.w3.org/2000/svg">
	<rect x="706.18" y="600.469" fill="#D3D3D3" width="11.994" height="59.763"/>
	<rect x="680.048" y="600.469" fill="#D3D3D3" width="16.267" height="59.763"/>
	<polygon fill="#D3D3D3" points="674.329,600.469 674.329,660.233 355.337,660.233 355.337,652.941 365.028,652.941 536.39,652.941    536.39,608.174 365.028,608.174 355.337,608.174 355.337,600.469  "/>
	<path fill="#F2F2F2" d="M536.39,608.174v44.767H365.028c12.296-26.419,0-44.767,0-44.767H536.39z"/>
	<rect x="674.329" y="600.469" fill="#F2F2F2" width="5.719" height="59.763"/>
	<rect x="696.315" y="600.469" fill="#F2F2F2" width="9.865" height="59.763"/>
</g>
<g xmlns="http://www.w3.org/2000/svg">
	<rect x="421.379" y="537.774" fill="#2A94F4" width="5.983" height="62.695"/>
	<rect x="393.964" y="537.774" fill="#2A94F4" width="10.333" height="62.695"/>
	<path fill="#F5F5F5" d="M505.423,545.857h246.415c0,0-12.882,19.249,0,46.963H505.423V545.857z"/>
	<rect x="404.297" y="537.774" fill="#e12021" width="17.082" height="62.695"/>
	<rect x="381.382" y="537.774" fill="#e12021" width="12.583" height="62.695"/>
	<polygon fill="#e12021" points="762.021,592.82 762.021,600.469 725.09,600.469 427.362,600.469 427.362,537.774 691.459,537.774    762.021,537.774 762.021,545.857 751.838,545.857 505.423,545.857 505.423,592.82 751.838,592.82  "/>
</g>
<g xmlns="http://www.w3.org/2000/svg">
	<rect x="421.379" y="660.233" fill="#2A94F4" width="5.983" height="62.695"/>
	<rect x="393.964" y="660.233" fill="#2A94F4" width="10.333" height="62.695"/>
	<path fill="#F5F5F5" d="M505.423,668.315h246.415c0,0-12.882,19.249,0,46.963H505.423V668.315z"/>
	<rect x="404.297" y="660.233" fill="#e12021" width="17.082" height="62.695"/>
	<rect x="381.382" y="660.233" fill="#e12021" width="12.583" height="62.695"/>
	<polygon fill="#e12021" points="762.021,715.279 762.021,722.928 725.09,722.928 427.362,722.928 427.362,660.233 691.459,660.233    762.021,660.233 762.021,668.315 751.838,668.315 505.423,668.315 505.423,715.279 751.838,715.279  "/>
</g>
<path xmlns="http://www.w3.org/2000/svg" fill="#F2F2F2" d="M917,749.928c0,14.912-12.088,27-27,27H216c-14.912,0-27-12.088-27-27l0,0c0-14.912,12.088-27,27-27h674  C904.912,722.928,917,735.016,917,749.928L917,749.928z"/>
<g xmlns="http://www.w3.org/2000/svg" display="none">
	<path display="inline" fill="#FAB9AF" d="M650.384,699.461c-2.389,0.931-5.16,1.812-7.062,3.502   c-0.985,0.875-2.282,1.293-3.598,1.228c-0.965-0.048-2.006-0.079-3.105-0.095c-1.457-0.021-2.654,1.161-2.654,2.619l0,0   c0,1.621,1.469,2.896,3.059,2.582c1.641-0.324,2.966-0.857,4.14-1.305c0.655-0.25,1.379-0.277,2.046-0.062   c3.231,1.041,6.343-1.306,6.492-1.347c0,0,2.151-0.505,3.607-1.315c0.72-0.4,1.626-0.351,1.663-0.876   c0.035-0.49-0.975-1.042-1.852-0.924c-1.549,0.209-3.798,0.876-4.198,0.28c-0.627-0.934,1.367-1.546,3.505-2.245   c2.138-0.699,5.118,1.504,6.599-0.57C659.36,700.466,652.757,698.536,650.384,699.461z"/>
	<path display="inline" fill="#D2F0FF" d="M711.607,676.461c-1.098-0.278-2.227,0.328-2.602,1.396l-11.811,34.92   c-0.396,1.17-0.024,2.463,0.932,3.245l2.751,2.247l14.185-40.932L711.607,676.461z"/>
	<path display="inline" fill="#D3668D" d="M582.779,678.897c-0.714-4.255-0.401-8.656,1.214-12.657   c1.053-2.61,2.669-5.102,5.061-5.534c4.802-0.867,17.699,31.43,20.058,38.338c0.285,0.834,1.022,1.419,1.897,1.515l26.714,2.922   c0.978,2.081,1.275,4.139,0.603,6.163l-30.583,4.841c-2.47,0.423-4.977-0.438-6.681-2.276   C595.873,706.61,585.251,693.631,582.779,678.897z"/>
	<path display="inline" fill="#D2F0FF" d="M720.936,725.596h-409.74c-1.252,0-2.267-1.015-2.267-2.267l0,0   c0-1.252,1.015-2.267,2.267-2.267h409.74c1.252,0,2.267,1.015,2.267,2.267l0,0C723.203,724.581,722.188,725.596,720.936,725.596z"/>
	<path display="inline" fill="#FAB9AF" d="M361.247,716.394c-0.079-1.729-1.429-3.119-3.153-3.269   c-3.451-0.298-9.144-1.132-13.147-3.458c-6.112-3.55-7.786-2.453-12.336,2.117c-4.55,4.569-11.223,4.946-15.205,5.461   s-5.583,3.67,0.704,3.812c5.695,0.129,25.469-3.071,39.258-1.107C359.488,720.254,361.345,718.534,361.247,716.394L361.247,716.394   z"/>
	<path display="inline" fill="#FAB9AF" d="M408.612,630.71c0.662-1.02,0.69-2.318,0.064-3.36c-1.667-2.771-4.786-8.559-5.202-13.685   c-0.573-7.044-2.43-7.793-8.779-8.922c-6.349-1.128-9.506-5.07-12.202-8.047c-2.696-2.976-6.2-2.49-2.729,2.754   c3.05,4.607,16.578,18.512,23.395,31.059C404.31,632.625,407.301,632.73,408.612,630.71L408.612,630.71z"/>
	<path display="inline" fill="#333333" d="M608.041,639.698c-4.864,13.526-17.242,12.5-24.806,9.78   c-7.565-2.72-2.996-13.709-0.906-19.521c2.09-5.812,9.636-8.496,17.2-5.776C607.093,626.901,610.131,633.886,608.041,639.698z"/>
	<path display="inline" fill="#333333" d="M400.792,627.513c1.566-2.436,3.71-3.847,6.785-3.605c0,0,31.492,47.171,38.371,53.256   s70.119,2.715,70.119,2.715l1.072,34.435c0,0-67.259,1.311-84.409-16.618C415.58,679.766,400.792,627.513,400.792,627.513z"/>
	<path display="inline" fill="#333333" d="M543.143,716.718l-5.137-32.57c0,0-10.655-12.712-38.003-4.662   c-27.347,8.05-44.803,17.875-58.174,19.323c-13.372,1.448-85.907,13.343-85.907,13.343c-1.426,2.931-1.339,5.763,0,8.514   l145.898,0.813C501.82,721.479,529.201,721.49,543.143,716.718z"/>
	<path display="inline" fill="#E5779A" d="M588.445,659.534l-0.367-0.188c-8.031-4.106-17.868-3.501-24.918,2.125   c-0.403,0.322-0.798,0.657-1.183,1.005l-10.419,9.42c-1.703,1.539-3.768,2.634-6.015,3.101c-1.555,0.323-3.1,0.895-4.589,1.743   c-0.046,0.026-0.09,0.051-0.133,0.075c-4.315,2.412-6.578-2.337-8.603,0c-2.025,2.337-15.078-1.437-15.078-1.437   s-12.594-0.091-6.163,17.489c6.431,17.58,18.49,28.195,26.931,28.195c4.659,0,12.689-3.709,18.951-7.033   c0.683-0.363,1.326-0.776,1.93-1.231c2.119-1.597,4.392-2.978,6.897-3.852l1.924-0.671c3.329-1.161,6.944-1.068,10.248,0.162   c4.427,1.647,10.969,2.311,13.523-6.461l2.744-32.869C594.205,666.224,591.19,660.419,588.445,659.534z"/>
	<path display="inline" fill="#D3668D" d="M580.207,661.41c-2.453,0.894-5.966,5.145-8.699,8.914   c-2.396,3.305-4.258,6.948-5.788,10.732c-4.891,12.094-13.264,23.179-24.653,29.557c-5.532,3.098-10.713,4.395-15.73,4.486   c4.363,3.863,8.821,5.963,12.568,5.963c4.659,0,12.689-3.709,18.951-7.033c0.683-0.363,1.326-0.776,1.929-1.23   c2.119-1.597,4.392-2.978,6.897-3.852l1.924-0.671c3.329-1.161,6.944-1.068,10.248,0.162c4.427,1.647,10.969,2.311,13.523-6.461   l2.744-32.869c0.057-1.991-1.363-5.373-3.151-7.568C587.167,659.955,584.583,659.815,580.207,661.41z"/>
	<path display="inline" fill="#FAB9AF" d="M599.461,628.241c-7.069-2.671-11.608,1.364-15.261,10.622   c-1.368,3.467-1.105,7.514-0.676,10.196c0.319,1.993-0.158,4.03-1.377,5.638l-3.538,4.667c-2.897,4.475-1.593,8.022,1.458,10.284   c1.511,1.121,3.68,1.514,5.518,1.117c2.187-0.471,3.254-2.859,3.709-5.049l0.165-1.65c0.222-2.222,2.214-3.955,4.424-3.63   c1.717,0.253,3.223,1.153,4.697,0.791c1.444-0.355,7.418-7.77,9.494-17.176C610.219,634.334,606.53,630.913,599.461,628.241z"/>
	<path display="inline" fill="#333333" d="M615.962,630.664c-1.477-0.996-3.097-1.368-4.635-1.235   c-3.785,0.328-7.596,0.17-11.172-1.116l-0.485-0.175c-3.951-1.421-8.284-1.349-12.185,0.202l0,0   c-2.88,1.145-4.165,4.507-2.784,7.281l2.52,5.06c0.349,0.7,1.366,0.64,1.63-0.096l0.795-2.214c0.399-1.112,1.553-1.764,2.712-1.532   l1.155,0.231c1.336,0.267,2.698,0.154,4.03-0.131c1.832-0.392,3.758-0.21,5.439,0.657c1.536,0.792,2.397,1.856,3.01,2.797   c0.808,1.24,2.007,2.237,3.51,2.778c4.214,1.515,8.919-1.201,9.467-5.96C619.263,634.674,618.079,632.091,615.962,630.664z"/>
	<path display="inline" fill="#FAB9AF" d="M586.978,641.626c-0.816,2.158-1.888,4.852-3.783,4.136   c-1.895-0.716-2.313-5.366-1.497-7.524c0.816-2.158,2.233-2.229,4.129-1.513C587.722,637.441,587.794,639.467,586.978,641.626z"/>
	<path display="inline" fill="#46738C" d="M715.072,674.796c-1.465-0.261-2.88,0.704-3.373,2.108l-13.777,39.291   c-0.165,0.47-0.608,0.784-1.106,0.784h-34.706c-2.255,0-4.083,1.828-4.083,4.083h42.585c1.158,0,2.19-0.732,2.573-1.825   l14.204-40.507C717.989,677.018,716.938,675.128,715.072,674.796z"/>
	<path display="inline" fill="#3C5A73" d="M694.648,719.055c0,0.369-0.299,0.668-0.668,0.668h-4.057   c-0.369,0-0.668-0.299-0.668-0.668c0-0.369,0.299-0.668,0.668-0.668h4.057C694.349,718.387,694.648,718.686,694.648,719.055z"/>
	<path display="inline" fill="#3C5A73" d="M686.559,719.055c0,0.546-0.442,0.988-0.988,0.988s-0.988-0.442-0.988-0.988   c0-0.546,0.443-0.988,0.988-0.988S686.559,718.51,686.559,719.055z"/>
	<path display="inline" fill="#3C5A73" d="M683.343,719.055c0,0.546-0.443,0.988-0.988,0.988c-0.546,0-0.988-0.442-0.988-0.988   c0-0.546,0.442-0.988,0.988-0.988C682.901,718.067,683.343,718.51,683.343,719.055z"/>
	<path display="inline" fill="#3C5A73" d="M695.77,716.979h-32.708c0-0.638,0.517-1.156,1.156-1.156h30.397   C695.253,715.824,695.77,716.341,695.77,716.979z"/>
	<path display="inline" fill="#FAB9AF" d="M661.002,713.231c-1.017,0.488-2.184,0.973-3.286,1.621   c-1.636,0.963-3.53,1.366-5.421,1.195c-1.671-0.151-3.754-0.229-6.18-0.24c-1.361-0.006-2.51,1.036-2.624,2.392l0,0   c-0.126,1.499,1.045,2.786,2.549,2.83c2.205,0.065,4.109-0.128,5.477-0.142c0.647-0.007,1.217-0.032,1.72-0.073   c0.889-0.073,1.791-0.067,2.664,0.112c1.604,0.33,3.795-1.264,4.668-3.073c0.701-1.453,0.786-1.059,2.493-1.746   c1.707-0.687,6.61,0.319,6.615-0.838C669.682,714.233,663.313,712.122,661.002,713.231z"/>
	<path display="inline" fill="#E5779A" d="M569.059,662.616c1.794-3.167,7.419-6.833,14.468,1.617   c9.336,11.192,25.629,42.786,30.479,43.327c4.85,0.541,36.579,7.778,36.579,7.778c0.76,2,0.848,3.913,0,5.706   c0,0-35.907,0.019-43.745,0.019S560.816,677.163,569.059,662.616z"/>
</g>
<g xmlns="http://www.w3.org/2000/svg">
	<polygon fill="#FAB9AF" points="765.141,565.816 777.665,477.816 811.453,473.178 829.027,565.18  "/>
	<path fill="#FAB9AF" d="M791.257,702.175l-0.036,9.918c-0.008,2.018,0.267,4.027,0.815,5.969l0.862,3.055   c0.708,2.508-1.177,4.998-3.784,4.988c-6.756-0.024-18.303-0.006-21.279-0.001c-0.487,0.001-0.964-0.328-1.006-0.813   c-0.251-2.896,8.113-4.835,14.414-7.274c4.799-1.858,4.543-10.483,3.952-15.52c-0.223-1.903,1.364-3.523,3.273-3.364l0,0   C790.049,699.264,791.263,700.589,791.257,702.175z"/>
	<path fill="#FAB9AF" d="M837.689,699.392l3.418,11.347c0.151,0.501,0.377,0.977,0.669,1.411l2.423,3.598   c1.538,2.284,0.431,5.404-2.203,6.208c0,0-4.885,1.718-9.921,3.373c-5.155,1.694-11.639,0.278-11.639-1.082   c0-3.022,2.818-0.624,7.538-3.78c1.582-1.058,3.214-2.164,4.67-3.307c4.062-3.189,0.515-11.262-1.972-15.809   c-0.894-1.635,0.055-3.664,1.878-4.053l1.177-0.251C835.457,696.68,837.18,697.7,837.689,699.392z"/>
	<path fill="#0B4870" d="M802.78,566.668l-37.441-3.142c0,0-3.77,27.25,5.693,76.579c4.438,23.133,13.685,67.338,13.685,67.338   c2.292,1.003,4.623,1.255,6.996,0.663c0,0,0.702-19.499,1.132-40.498c0.412-20.139,0.523-41.657,1.806-48.698   C797.272,604.527,802.78,566.668,802.78,566.668z"/>
	<path fill="#0B4870" d="M795.051,567.143c-3.866,20.746-12.501,51.768,4.133,80.911c16.634,29.143,34.104,59.441,34.104,59.441   c2.251,0.092,4.292-0.724,6.189-2.164c0,0-2.917-13.212-7.133-28.639c-4.823-17.648-10.932-38.407-9.191-49.23   c3.262-20.284,7.009-47.299,5.873-60.419C827.892,553.924,797.084,556.234,795.051,567.143z"/>
	<path fill="#FFFFFF" d="M763.848,563.575l13.817-85.76l33.788-4.638l18.158,90.556c0.341,1.702-0.761,3.354-2.466,3.678   c-6.29,1.192-21.465,3.683-38.446,3.683c-12.677,0-19.802-2.465-23.043-4.026C764.344,566.437,763.616,565.015,763.848,563.575z"/>
	<path fill="#FAB9AF" d="M830.721,596.768c0.517-2.214,0.792-4.49,1.088-5.346c0.123-0.357,0.742-1.211,0.904-1.471   c0.477-0.764,1.335-1.87,1.335-2.771l0.063-3.785c0-1.83,0.884-3.217,2.714-3.217l0,0c1.981,0,2.882,1.691,2.653,3.659v2.649   c-0.183,1.575,0.361,3.082,0.826,4.598c0.947,3.084,0.16,6.73-0.745,9.595c-0.568,1.798-2.857,2.898-5.984,4.195   c-1.536,0.637-4.109,1.166-3.122-0.682c0.827-1.549,5.431-3.823,4.053-8.701c-0.068-0.24-0.286-0.842-0.591-0.851   c-0.911-0.027-1.078,1.994-1.514,2.981c-0.613,1.384-1.583,1.945-2.176,1.798C829.597,599.262,830.352,598.349,830.721,596.768z"/>
	<path fill="#e12021" d="M800.898,478.519c0,6.178,1.123,12.297,3.233,18.103c4.128,11.36,10.321,32.839,6.641,51.763   c-5.299,27.251-12.111,38.267-3.28,44.618c8.831,6.351,25.768-4.246,26.257-7.779c0.489-3.533-3.296-46.927-7.586-65.728   c-4.289-18.801-16.305-45.828-16.305-45.828l-5.09,0.544C802.567,474.448,800.898,476.306,800.898,478.519L800.898,478.519z"/>
	<path fill="#e12021" d="M817.866,525.576c-3.229-8.128-6.901-18.354-9.691-26.136c-2.061-5.748-2.349-10.926-2.349-17.032   l4.501-9.166c0,0,11.548,27.454,15.837,46.255C830.453,538.298,822.124,536.295,817.866,525.576z"/>
	<path fill="#e12021" d="M816.775,475.515c0,0,29.43,39.564,29.376,61.712c-0.033,13.349-4.937,40.519-6.101,46.784   c-0.148,0.799-0.799,1.406-1.608,1.492c-0.517,0.055-1.115,0.101-1.666,0.101c-0.559,0-1.283-0.08-1.955-0.176   c-1.112-0.16-1.922-1.128-1.899-2.251c0.172-8.297,0.7-41.027-1.499-47.576c-2.523-7.513-27.054-43.33-27.535-51.232   C803.407,476.466,809.51,469.283,816.775,475.515z"/>
	<path fill="#e12021" d="M786.832,476.557c0,0-5.86,12.665-3.816,30.861c2.044,18.195,6.78,73.603-9.778,81.97   c-5.243,2.649-17.216-9.084-17.216-13.436s3.996-18.924,7.783-32.171c3.787-13.247,12.913-65.835,12.913-65.835L786.832,476.557z"/>
	<path fill="#e12021" d="M762.517,548.32c0.429-1.519,0.859-3.037,1.289-4.539c0.739-2.587,1.72-6.69,2.817-11.601   c6.022,2.828,12.089,5.559,17.943,8.54c0.219,1.423,0.62,4.345,0.65,9.002C777.636,549.408,770.064,548.976,762.517,548.32z"/>
	<path fill="#FAB9AF" d="M741.108,528.534c1.099-3.594,7.085-2.088,13.648-0.081c3.948,1.207,24.586,9.139,31.11,11.654   c0.965,0.372,1.411,0.007,2.413,0.263c1.522,0.389,6.555,1.819,5.925,8.784c-0.172,1.904-1.061,2.074-1.799,3.838   c-0.528,1.263-2.159,1.959-2.999,2.239c-1.271,0.424-1.668,1.985-2.319,1.839c-1.549-0.347-1.371-4.611-1.331-6.082   c0.023-0.874,0.576-4.546,0.576-4.546c-0.171-0.69-0.718-1.216-1.416-1.351c-5.603-1.085-29.889-5.185-33.915-6.416   C744.438,536.669,740.009,532.128,741.108,528.534z"/>
	<g>
		<path fill="#FAB9AF" d="M791.549,437.307c7.541,0,10.354,5.368,10.498,15.298c0.054,3.719-1.619,7.403-2.965,9.756    c-1,1.748-1.275,3.818-0.704,5.749l1.656,5.604c1.126,5.199-1.343,8.05-4.988,9.086c-1.806,0.513-3.969,0.115-5.545-0.903    c-1.875-1.212-2.029-3.817-1.68-6.022l0.428-1.598c0.576-2.153-0.671-4.473-2.849-4.949c-5.806-1.27-6.638-7.322-8.194-16.723    C775.583,442.807,784.008,437.307,791.549,437.307z"/>
		<path fill="#0B4870" d="M773.989,432.946l4.325,1.315c1.589,0.483,3.284,0.494,4.879,0.031l8.634-2.505    c5.23,0,13.867,2.953,12.776,10.5l-0.964,5.338c-0.385,2.132-2.163,3.728-4.322,3.912l-0.001,0c-0.2,0.738-0.869,1.25-1.633,1.25    c-0.935,0-1.692-0.758-1.692-1.692l0,0c0-2.407-1.69-4.462-4.039-4.989c-2.88-0.647-5.958-0.801-9.178,0.065    c-6.001,1.612-12.329-2.107-12.928-8.292c-0.038-0.392-0.057-0.789-0.057-1.192C769.789,434.192,771.851,432.356,773.989,432.946z    "/>
		<path fill="#FAB9AF" d="M797.89,452.787c0,2.302,0.857,4.169,3.074,4.169c2.217,0,3.64-3.166,3.64-5.469    c0-2.303-1.423-2.869-3.64-2.869C798.747,448.619,797.89,450.485,797.89,452.787z"/>
	</g>
	<path fill="#e12021" d="M779.733,478.468c0,0-4.766-2.977-13.011,5.052c-8.245,8.029-25.844,37.929-27.547,47.013   c-1.703,9.084,45.448,15.329,45.448,15.329c1.363-1.472,2.128-3.589,2.209-6.444c0,0-29.111-10.878-29.679-14.707   c-0.568-3.829,21.783-26.43,23.553-29.692C783.9,489.134,785.092,482.821,779.733,478.468z"/>
	<path fill="#FAB9AF" d="M791.957,542.27c0,0,5.61,5.105,5.805,5.547c0.414,0.942-0.593,1.945-1.31,1.141   c-1-1.121-4.025-2.507-4.988-0.921L791.957,542.27z"/>
</g>
<path xmlns="http://www.w3.org/2000/svg" fill="#FA968C" d="M798.875,463.058c0,0-6.188,8.196-12.373,6.552c0,0,1.393,0.726,1.85,2.472  C788.352,472.083,795.738,470.841,798.875,463.058z"/>
<path xmlns="http://www.w3.org/2000/svg" fill="#FA968C" d="M594.267,660.148c0,0-6.493-2.504-10.511-10.086l-0.486,2.731  C583.269,652.792,587.964,659.983,594.267,660.148z"/>
<path xmlns="http://www.w3.org/2000/svg" fill="#0B4870" d="M774.805,720.716c0,0,8.754,1.899,12.572,0.395c3.818-1.504,4.815-3.049,4.815-3.049  s2.658,5.363,0.918,7.966c-1.741,2.603-16.494,1.967-18.75,1.967s-9.373-0.579-9.373-0.579S763.679,720.9,774.805,720.716z"/>
<path xmlns="http://www.w3.org/2000/svg" fill="#0B4870" d="M827.4,720.581c0,0,8.754,1.899,12.572,0.395c3.818-1.504,4.815-3.049,4.815-3.049s2.658,5.363,0.918,7.966  c-1.741,2.603-16.494,1.967-18.75,1.967s-9.373-0.579-9.373-0.579S816.275,720.765,827.4,720.581z"/>
</svg>