<svg version="1.1" id="Layer_1" xmlns="http://www.w3.org/2000/svg" xmlns:xlink="http://www.w3.org/1999/xlink" x="0px" y="0px" viewBox="0 0 1080 1080" style="enable-background:new 0 0 1080 1080;" xml:space="preserve">
<style xmlns="http://www.w3.org/2000/svg" type="text/css">
	.st0{opacity:7.000000e-02;fill:#2A94F4;}
	.st1{opacity:0.4;fill:#2A94F4;}
	.st2{fill:none;stroke:#4D4D4D;stroke-miterlimit:10;}
	.st3{fill:#D3D3D3;}
	.st4{fill:#e12021;}
	.st5{fill:#F2F2F2;}
	.st6{fill:#0E538C;}
	.st7{fill:#FFFFFF;}
	.st8{opacity:0.19;fill:#231F20;}
	.st9{fill:#EFB68F;}
	.st10{fill:#0B4870;}
	.st11{opacity:0.35;fill:#FFFFFF;}
</style>
<path xmlns="http://www.w3.org/2000/svg" class="st0" d="M854.6,691.4c0,0,83.2-155.1-20.4-209.9s-119.5-114.2-81.5-170c38.1-55.8-207.9-168.2-222.6-19.5  c-14.7,148.7-120.1,77-204.2,16.8s-124.1,39.8-39.5,116.9S125.5,614,220,702.7L854.6,691.4z"/>
<g xmlns="http://www.w3.org/2000/svg">
	<path class="st1" d="M737,604.6c0,0-39.7,51.8,0,69.9c39.7,18.1,49.5-25,48.8-43.7c-0.7-18.7,74.9-53.6,28.9-106.9   C768.6,470.5,703.7,575.2,737,604.6z"/>
	<path class="st1" d="M678.2,625.3c0,0-8.9,37.5,16.9,37.7c25.8,0.1,20.6-25.5,15.7-35.4c-4.9-9.9,27.4-47-10.3-64.6   C662.8,545.4,653.1,617.5,678.2,625.3z"/>
	<line class="st2" x1="689.5" y1="590.5" x2="700.8" y2="693.8"/>
	<polyline class="st2" points="703.5,613.8 693.7,628.9 680.5,617.8  "/>
	<line class="st2" x1="782.1" y1="551.8" x2="725.5" y2="698.7"/>
	<polyline class="st2" points="793,577.9 768.4,587.3 758.2,565.6  "/>
	<polyline class="st2" points="780.6,608.6 756.1,618 745.9,596.3  "/>
</g>
<g xmlns="http://www.w3.org/2000/svg">
	<path class="st1" d="M359.1,604.6c0,0,39.7,51.8,0,69.9c-39.7,18.1-49.5-25-48.8-43.7c0.7-18.7-74.9-53.6-28.9-106.9   S392.5,575.2,359.1,604.6z"/>
	<path class="st1" d="M417.9,625.3c0,0,8.9,37.5-16.9,37.7c-25.8,0.1-20.6-25.5-15.7-35.4c4.9-9.9-27.4-47,10.3-64.6   C433.3,545.4,443,617.5,417.9,625.3z"/>
	<line class="st2" x1="406.6" y1="590.5" x2="395.3" y2="693.8"/>
	<polyline class="st2" points="392.7,613.8 402.4,628.9 415.6,617.8  "/>
	<line class="st2" x1="314" y1="551.8" x2="370.6" y2="698.7"/>
	<polyline class="st2" points="303.2,577.9 327.7,587.3 337.9,565.6  "/>
	<polyline class="st2" points="315.5,608.6 340,618 350.2,596.3  "/>
</g>
<path xmlns="http://www.w3.org/2000/svg" class="st3" d="M872.8,710.4H173.2c-3.9,0-7.1-3.2-7.1-7.1v-10.5c0-3.9,3.2-7.1,7.1-7.1h699.6c3.9,0,7.1,3.2,7.1,7.1v10.5  C879.9,707.2,876.7,710.4,872.8,710.4z"/>
<path xmlns="http://www.w3.org/2000/svg" class="st4" d="M677.3,652.4h-272c-19.5,0-35.3-15.8-35.3-35.3V432.8c0-19.5,15.8-35.3,35.3-35.3h272  c19.5,0,35.3,15.8,35.3,35.3v184.4C712.5,636.6,696.7,652.4,677.3,652.4z"/>
<rect xmlns="http://www.w3.org/2000/svg" x="390.9" y="422" class="st5" width="299.4" height="212.7"/>
<g xmlns="http://www.w3.org/2000/svg">
	<path class="st6" d="M587.4,564.5c3.3,1.2,4.5,3.9,5.2,7c0.3,1.4,0.7,2.9,1.2,4.2c0.3,0.8,0.8,1.7,1.4,2.4c1.4,1.6,2.7,3.3,3.6,5.3   c1,2.5,0.6,4.6-1.3,6.4c-0.5,0.5-1.1,1-1.7,1.3c-2,1.1-4.1,2.2-6.1,3.3c-3.4,1.7-6.6,3.6-9,6.6c-1,1.2-2.2,2.4-3.5,3.4   c-3,2.4-6.3,4-10.2,4.2c-5.3,0.3-10-2.9-11.6-7.9c0-0.1-0.1-0.3-0.1-0.2c-2.9-0.2-5.6-0.5-8.4-0.7c-1.5-0.1-3-0.4-4.4-0.5   c-2.9-0.3-5.8,0.2-8.6,0.7c-2.5,0.4-5.1,0.8-7.6,1.3c-0.2,0-0.4,0.2-0.5,0.3c-2.2,4.1-5.8,5.6-10.2,5.8c-4.4,0.2-8.6-1.1-12.5-3.1   c-2.9-1.5-6.1-2.2-9.3-2.6c-2.9-0.4-5.8-0.8-8.7-1.2c-0.6-0.1-1.1-0.3-1.7-0.5c-2.8-1.1-4.2-3.4-3.9-6.4c0.2-1.4,0.4-2.8,0.9-4.1   c0.6-1.8,0.6-3.6,0.4-5.5c-0.3-1.9-0.6-3.9-0.5-5.8c0-2.6,1.5-4.6,3.8-5.8c1.3-0.7,2.7-1.2,4.1-1.7c1.6-0.6,2.9-1.5,3.9-2.9   c1.1-1.5,2.3-2.9,3.4-4.3c0.1-0.1,0.2-0.3,0.2-0.5c-0.8-6.1,0.5-11.8,2.7-17.5c2.3-5.9,5.4-11.4,9-16.5c1.9-2.7,4-5.3,6-8   c3.1-4.2,5.1-8.8,6-13.9c0.8-4.2,0.4-8.4,0.1-12.7c-0.4-5.3-0.5-10.5,0.8-15.7c2-8.1,7.3-12.7,15.4-14.2c3.9-0.7,7.9-0.8,11.8,0   c6.6,1.4,10.9,5.6,13.3,11.8c1.5,4,2.2,8.2,2.5,12.4c0.2,3.5,0.3,7.1,0.2,10.6c-0.3,6.3,1.8,11.8,5.5,16.7c2.5,3.3,5.2,6.6,7.8,9.9   c4.1,5.3,7.6,11,10,17.3c1.7,4.6,2.6,9.3,2.2,14.2c-0.2,2.2-0.7,4.3-1.1,6.5C587.6,563.9,587.5,564.1,587.4,564.5z M509.2,559.3   c-0.2-0.3-0.4-0.5-0.5-0.7c-2.3-3.5-2.9-7.4-2.4-11.5c0.5-4,1.9-7.7,3.8-11.2c0.8-1.5,1.5-3.1,2.3-4.6c0.1-0.3,0.2-0.7,0.3-1   c-0.1,0-0.2-0.1-0.2-0.1c-0.6,1.1-1.3,2.1-1.9,3.2c-2.6,4.5-4.9,9.1-5.9,14.3c-0.7,3.3-0.7,6.7,0.5,9.9c1.3,3.5,3.8,6,7,8   c3.6,2.2,7.1,4.7,9.9,8c1.4,1.6,2.5,3.3,3,5.3c0.7,2.7-0.5,4.7-3.2,5.2c-0.5,0.1-1,0.1-1.5,0.2c0.1,0.2,0.1,0.2,0.2,0.3   c1.2,1.6,2.5,3.3,3.7,4.9c0.1,0.2,0.3,0.3,0.5,0.4c4.9,3.2,10.3,4.5,16.1,3.9c5.7-0.6,10.9-2.7,15.6-6c0.2-0.2,0.4-0.4,0.5-0.7   c1.2-3.6,1.9-7.3,2-11.2c0.1-3.1,0.4-6.2,1.3-9.2c0.9-2.7,2.3-5,5-6.3c0.5-0.2,0.7-0.5,0.8-1c0.4-3,2.4-4.6,5.4-4.3   c3.7,0.4,6.9,1.9,9.9,4.1c1.6,1.1,2.4,2.6,1.9,4.6c1.2,0.2,1.3,0.1,1.4-1c0.1-1.5-0.2-2.8-1.3-3.8c-1.1-1.1-2.4-2-3.7-2.9   c-1.3-0.8-2.7-1.4-4-2.1c0-0.1,0-0.2,0.1-0.3c0.6-3,0.6-5.9-0.1-8.9c-1.4-6.4-4.6-11.8-9.2-16.5c-0.3-0.3-0.6-0.6-0.9-0.8   c-0.1-0.1-0.4-0.1-0.6-0.1c0,0.2,0,0.4,0,0.5c0.2,0.4,0.5,0.7,0.8,1c1.3,1.6,2.7,3.1,3.8,4.8c2.8,4.4,4.5,9.3,4.2,14.6   c-0.1,1.6-0.4,3.2-1,4.7c-1.1-0.1-2-0.3-3.1-0.4c0-0.1-0.1-0.2-0.1-0.4c-1.1-5.5-3-10.7-5.6-15.6c-4-7.6-7.3-15.4-10.1-23.5   c-0.6-1.8-1.2-3.7-1.7-5.6c0,0-0.1,0-0.1,0c-0.1,0.1-0.2,0.2-0.2,0.3c-1.2,1.5-2.7,2.6-4.5,3.3c-1.9,0.7-3.7,1.7-5.5,2.8   c-0.5,0.3-1.1,0.7-1.7,0.9c-3.3,1.5-6.7,1.8-9.9-0.2c-1-0.6-1.8-1.4-2.7-2.1c-1.2-0.9-2.3-1.7-3.5-2.6c-0.1,0.2-0.1,0.2-0.1,0.3   c-0.3,4.5-1.4,8.9-3.1,13.1c-2.2,5.5-4.6,11-7,16.4c-2,4.5-3.6,9.2-4.3,14.1C509.5,555.7,509.4,557.5,509.2,559.3z M514.8,605.3   c0.9-0.1,1.7-0.1,2.6-0.3c7-1.1,8.9-7.9,6.5-12.2c-0.3-0.6-0.6-1.2-1-1.8c-1.4-2-2.9-4-4.4-5.9c-1.7-2.3-3.5-4.4-5-6.8   c-2-3.3-3.8-6.8-5.7-10.1c-0.9-1.7-2.2-3-3.8-4.1c-2.4-1.6-5.5-1.9-7.9,1c-0.9,1.2-1.9,2.3-2.7,3.6c-1.3,1.8-2.9,3-5,3.7   c-1.3,0.4-2.5,0.9-3.7,1.5c-1.5,0.8-2.6,2.1-2.6,3.9c0,1.8,0.2,3.6,0.4,5.4c0.3,2.3,0.5,4.5-0.4,6.7c-0.4,1-0.6,2-0.7,3   c-0.4,3,0.7,4.6,3.6,5.4c0.2,0.1,0.4,0.1,0.5,0.1c2.7,0.4,5.3,0.7,8,1.1c3.5,0.4,7,1.2,10.2,2.8   C507.2,604.1,510.8,605.3,514.8,605.3z M565.8,562.3c-0.3,0.2-0.5,0.3-0.7,0.4c-1.5,1-2.3,2.4-2.9,4c-0.9,2.7-1.2,5.5-1.4,8.4   c-0.2,2.8-0.2,5.7-0.9,8.5c-0.8,2.8-1.6,5.6-2.3,8.4c-0.6,2.3-1,4.5-0.7,6.9c0.7,5,5.5,8.4,10.6,7.7c3.5-0.5,6.6-2.1,9.2-4.4   c1.2-1.1,2.3-2.4,3.5-3.6c2.5-2.7,5.6-4.4,8.7-6.1c2.2-1.1,4.4-2.2,6.5-3.6c2.1-1.3,2.5-3,1.3-5.2c-0.7-1.3-1.6-2.6-2.6-3.7   c-1.4-1.6-2.3-3.4-2.8-5.5c-0.4-1.6-0.8-3.2-1.3-4.8c-0.7-2.1-2.2-3.4-4.5-3.8c-0.9-0.1-1.9-0.1-2.9,0c-0.3,0-0.7,0.2-1,0.4   c-2,1.9-4.2,3.3-6.8,4.1c-3.4,1-6-0.2-7.7-3.3C566.3,565.7,566,564.1,565.8,562.3z M535.1,495.3c-2.3,0-4.4,1.1-6.3,2.7   c-1.4,1.2-2.9,2.4-4.4,3.6c-0.4,0.4-0.9,0.7-1.3,1c-1,0.9-1.4,2-0.9,3.2c0.4,0.9,0.8,1.8,1.6,2.4c2.4,2,4.8,4,7.4,5.7   c2.7,1.8,5.8,1.5,8.5,0.1c2.8-1.5,5.6-3.2,8.5-4.5c1.5-0.7,2.8-1.9,3.6-3.5c0.9-1.8,0.6-3.5-1.1-4.7c-0.7-0.5-1.4-0.9-2.2-1.1   c-2.7-1-5.4-2-7.8-3.5C539,495.8,537.2,495.4,535.1,495.3z M549.9,499.7c0.1-0.1,0.2-0.2,0.3-0.3c2.8-3.6,2.5-10-0.6-13.4   c-2.4-2.7-5.8-3.1-8.5-0.9c-2.9,2.4-3.7,5.6-3.4,9.2c0,0.1,0.2,0.4,0.3,0.4c1.1,0.4,2.2,0.7,3.4,1.1c0-0.6,0-1.1,0-1.6   c0.1-1.5,0.5-2.9,1.6-4c1.1-1.1,2.5-1.1,3.6,0.1c0.9,1,1.3,2.3,1.3,3.6c0.1,1.7-0.1,3.3-1.6,4.5   C547.6,498.8,548.7,499.2,549.9,499.7z M529.8,495.8c0.7-0.3,1.6-0.6,2.4-1c0.2-0.1,0.4-0.4,0.3-0.6c0-1,0-2-0.2-3   c-0.4-2.1-1.2-3.9-3-5.2c-1.5-1.1-3.2-1-4.6,0.2c-0.9,0.7-1.5,1.7-1.8,2.7c-1.1,3.2-0.9,6.4,0.7,9.4c0.3,0.6,0.8,1.2,1.3,1.8   c0.7-0.5,1.3-1,1.9-1.4c-1.5-1.5-1.9-3.3-1.6-5.2c0.1-0.7,0.3-1.4,0.7-2.1c0.7-1.2,1.8-1.2,2.7-0.2c0.4,0.4,0.7,0.9,0.9,1.4   C529.5,493.6,529.6,494.7,529.8,495.8z"/>
	<path class="st7" d="M509.2,559.3c0.2-1.8,0.3-3.6,0.6-5.3c0.7-4.9,2.3-9.6,4.3-14.1c2.4-5.4,4.8-10.9,7-16.4   c1.7-4.2,2.8-8.6,3.1-13.1c0,0,0-0.1,0.1-0.3c1.2,0.9,2.4,1.7,3.5,2.6c0.9,0.7,1.7,1.5,2.7,2.1c3.2,2,6.6,1.7,9.9,0.2   c0.6-0.3,1.1-0.6,1.7-0.9c1.7-1.1,3.5-2.1,5.5-2.8c1.8-0.7,3.3-1.8,4.5-3.3c0.1-0.1,0.2-0.2,0.2-0.3c0,0,0,0,0.1,0   c0.6,1.9,1.1,3.7,1.7,5.6c2.7,8.1,6.1,15.9,10.1,23.5c2.6,4.9,4.5,10.1,5.6,15.6c0,0.1,0.1,0.3,0.1,0.4c1,0.1,2,0.3,3.1,0.4   c0.6-1.5,0.9-3.1,1-4.7c0.3-5.4-1.3-10.2-4.2-14.6c-1.1-1.7-2.5-3.2-3.8-4.8c-0.3-0.3-0.6-0.6-0.8-1c-0.1-0.1,0-0.3,0-0.5   c0.2,0,0.4,0,0.6,0.1c0.3,0.2,0.6,0.5,0.9,0.8c4.5,4.7,7.7,10.1,9.2,16.5c0.7,2.9,0.7,5.9,0.1,8.9c0,0.1,0,0.2-0.1,0.3   c1.4,0.7,2.8,1.3,4,2.1c1.3,0.8,2.5,1.8,3.7,2.9c1,1,1.4,2.3,1.3,3.8c-0.1,1.1-0.2,1.2-1.4,1c0.6-2-0.3-3.5-1.9-4.6   c-3-2.1-6.2-3.7-9.9-4.1c-3-0.3-5,1.3-5.4,4.3c-0.1,0.5-0.2,0.8-0.8,1c-2.7,1.2-4.2,3.5-5,6.3c-0.9,3-1.3,6.1-1.3,9.2   c-0.1,3.9-0.8,7.6-2,11.2c-0.1,0.3-0.3,0.5-0.5,0.7c-4.7,3.3-9.8,5.5-15.6,6c-5.8,0.6-11.2-0.7-16.1-3.9c-0.2-0.1-0.3-0.3-0.5-0.4   c-1.2-1.6-2.5-3.3-3.7-4.9c-0.1-0.1-0.1-0.2-0.2-0.3c0.5-0.1,1-0.1,1.5-0.2c2.6-0.5,3.9-2.5,3.2-5.2c-0.5-2-1.7-3.7-3-5.3   c-2.8-3.3-6.3-5.8-9.9-8c-3.1-1.9-5.7-4.4-7-8c-1.2-3.3-1.1-6.6-0.5-9.9c1-5.1,3.3-9.8,5.9-14.3c0.6-1.1,1.3-2.1,1.9-3.2   c0.1,0,0.2,0.1,0.2,0.1c-0.1,0.3-0.1,0.7-0.3,1c-0.7,1.6-1.5,3.1-2.3,4.6c-1.8,3.6-3.3,7.2-3.8,11.2c-0.5,4.1,0.1,8,2.4,11.5   C508.8,558.8,509,559,509.2,559.3z"/>
	<path class="st7" d="M514.8,605.3c-4-0.1-7.6-1.2-11.1-3c-3.2-1.6-6.7-2.4-10.2-2.8c-2.7-0.3-5.3-0.7-8-1.1c-0.2,0-0.4-0.1-0.5-0.1   c-2.9-0.8-4-2.5-3.6-5.4c0.2-1,0.3-2.1,0.7-3c0.9-2.2,0.7-4.4,0.4-6.7c-0.3-1.8-0.5-3.6-0.4-5.4c0-1.8,1.1-3.1,2.6-3.9   c1.2-0.6,2.5-1.1,3.7-1.5c2.1-0.7,3.7-1.9,5-3.7c0.9-1.2,1.8-2.4,2.7-3.6c2.4-2.9,5.5-2.6,7.9-1c1.6,1,2.9,2.4,3.8,4.1   c1.9,3.4,3.7,6.8,5.7,10.1c1.5,2.4,3.3,4.5,5,6.8c1.5,2,2.9,3.9,4.4,5.9c0.4,0.6,0.7,1.2,1,1.8c2.4,4.4,0.6,11.2-6.5,12.2   C516.5,605.2,515.6,605.3,514.8,605.3z"/>
	<path class="st7" d="M565.8,562.3c0.2,1.8,0.6,3.4,1.4,4.9c1.7,3.1,4.3,4.2,7.7,3.3c2.6-0.8,4.9-2.2,6.8-4.1c0.2-0.2,0.6-0.4,1-0.4   c1,0,2-0.1,2.9,0c2.2,0.3,3.8,1.6,4.5,3.8c0.5,1.6,0.9,3.2,1.3,4.8c0.5,2.1,1.4,3.9,2.8,5.5c1,1.1,1.9,2.4,2.6,3.7   c1.2,2.2,0.8,3.9-1.3,5.2c-2.1,1.3-4.3,2.4-6.5,3.6c-3.2,1.6-6.3,3.4-8.7,6.1c-1.1,1.2-2.2,2.5-3.5,3.6c-2.6,2.3-5.6,3.9-9.2,4.4   c-5.1,0.7-9.9-2.8-10.6-7.7c-0.3-2.3,0.1-4.6,0.7-6.9c0.7-2.8,1.5-5.6,2.3-8.4c0.8-2.8,0.7-5.7,0.9-8.5c0.2-2.8,0.4-5.7,1.4-8.4   c0.6-1.6,1.4-3,2.9-4C565.2,562.6,565.5,562.4,565.8,562.3z"/>
	<path class="st7" d="M535.1,495.3c2.1,0,4,0.5,5.6,1.5c2.5,1.5,5.2,2.4,7.8,3.5c0.8,0.3,1.5,0.7,2.2,1.1c1.7,1.2,2,2.9,1.1,4.7   c-0.8,1.6-2,2.8-3.6,3.5c-3,1.3-5.7,3-8.5,4.5c-2.8,1.4-5.8,1.7-8.5-0.1c-2.6-1.7-5-3.7-7.4-5.7c-0.7-0.6-1.2-1.5-1.6-2.4   c-0.5-1.2-0.1-2.3,0.9-3.2c0.4-0.4,0.9-0.7,1.3-1c1.5-1.2,2.9-2.4,4.4-3.6C530.6,496.4,532.7,495.4,535.1,495.3z M534.4,510.9   c0.7-0.1,1.5-0.1,2.2-0.3c3.9-1,7.3-2.8,10.4-5.3c0.5-0.4,1-1,1.5-1.5c0.1-0.2,0.1-0.5,0.2-0.7c-0.3,0.1-0.7,0.1-0.9,0.2   c-0.3,0.3-0.6,0.7-0.9,1c-2.4,2-5,3.7-8,4.8c-2.6,1-5.1,1.5-7.8,0.5c-1.7-0.6-3.3-1.6-4.6-2.8c-0.7-0.7-1.3-1.5-2-2.2   c-0.2-0.2-0.4-0.3-0.7-0.4c0,0.3-0.2,0.6-0.1,0.8c0.1,0.3,0.3,0.6,0.5,0.8c1,0.9,1.9,1.8,3,2.5   C529.4,509.9,531.7,510.8,534.4,510.9z M536.8,498.2c0.7,0.3,1.4,0.6,2,0.8c0.3,0.1,0.8-0.1,0.6-0.6   C539.2,497.7,537.5,497.5,536.8,498.2z M533.6,498.2c-0.6-0.6-1.5-0.6-2.3,0c-0.2,0.1-0.3,0.4-0.4,0.6c0.2,0.1,0.5,0.4,0.6,0.3   C532.2,498.8,532.9,498.5,533.6,498.2z"/>
	<path class="st7" d="M549.9,499.7c-1.2-0.5-2.3-0.9-3.6-1.4c1.5-1.2,1.7-2.9,1.6-4.5c-0.1-1.3-0.4-2.6-1.3-3.6   c-1.1-1.1-2.4-1.2-3.6-0.1c-1.1,1.1-1.5,2.5-1.6,4c0,0.5,0,1.1,0,1.6c-1.1-0.4-2.2-0.7-3.4-1.1c-0.1,0-0.3-0.3-0.3-0.4   c-0.3-3.6,0.4-6.8,3.4-9.2c2.7-2.2,6.1-1.7,8.5,0.9c3.1,3.4,3.4,9.7,0.6,13.4C550.1,499.5,550,499.5,549.9,499.7z"/>
	<path class="st7" d="M529.8,495.8c-0.2-1.1-0.3-2.2-0.6-3.2c-0.1-0.5-0.5-1-0.9-1.4c-0.9-1-2-0.9-2.7,0.2c-0.4,0.6-0.6,1.4-0.7,2.1   c-0.2,1.9,0.2,3.7,1.6,5.2c-0.6,0.5-1.2,0.9-1.9,1.4c-0.4-0.6-0.9-1.2-1.3-1.8c-1.6-3-1.8-6.2-0.7-9.4c0.4-1.1,1-2,1.8-2.7   c1.4-1.2,3.1-1.3,4.6-0.2c1.8,1.3,2.6,3.2,3,5.2c0.2,1,0.2,2,0.2,3c0,0.2-0.2,0.5-0.3,0.6C531.4,495.2,530.5,495.5,529.8,495.8z"/>
	<path class="st6" d="M534.4,510.9c-2.7-0.1-5.1-1-7.2-2.6c-1-0.8-2-1.7-3-2.5c-0.2-0.2-0.5-0.5-0.5-0.8c-0.1-0.2,0.1-0.6,0.1-0.8   c0.2,0.1,0.5,0.2,0.7,0.4c0.7,0.7,1.3,1.5,2,2.2c1.4,1.2,2.9,2.2,4.6,2.8c2.7,1,5.3,0.5,7.8-0.5c2.9-1.2,5.5-2.8,8-4.8   c0.3-0.3,0.5-0.7,0.9-1c0.2-0.2,0.6-0.2,0.9-0.2c0,0.3,0,0.6-0.2,0.7c-0.5,0.5-1,1-1.5,1.5c-3.1,2.5-6.5,4.3-10.4,5.3   C535.9,510.7,535.2,510.8,534.4,510.9z"/>
	<path class="st6" d="M536.8,498.2c0.7-0.7,2.3-0.5,2.6,0.2c0.2,0.5-0.3,0.7-0.6,0.6C538.2,498.8,537.5,498.5,536.8,498.2z"/>
	<path class="st6" d="M533.6,498.2c-0.7,0.3-1.4,0.6-2,0.9c-0.2,0.1-0.4-0.2-0.6-0.3c0.1-0.2,0.2-0.5,0.4-0.6   C532.1,497.6,533,497.6,533.6,498.2z"/>
</g>
<rect xmlns="http://www.w3.org/2000/svg" x="530.9" y="652.4" class="st4" width="24.2" height="18.4"/>
<rect xmlns="http://www.w3.org/2000/svg" x="530.9" y="652.4" class="st8" width="24.2" height="18.4"/>
<rect xmlns="http://www.w3.org/2000/svg" x="464.3" y="670.8" class="st4" width="146.6" height="14.8"/>
<rect xmlns="http://www.w3.org/2000/svg" x="390.9" y="422" class="st1" width="299.4" height="16.2"/>
<g xmlns="http://www.w3.org/2000/svg">
	<g>
		<g>
			<path class="st9" d="M359.9,441.8l29.1-6l2.9-6.4c0,0-0.3-0.2-1.7,0.9c-0.4,0.3-1.1,2.4-1.6,2.5c-0.7,0.2-2.2,1.9-3.2,1.7     c-6.7-1.9-16.3-6.1-24.2-5.7C348.6,429.4,359.4,442.1,359.9,441.8z"/>
			<path class="st4" d="M284.1,452.5c0,0,6.9-9.8,37.8-17.9c31.5-8.3,31.4-6.1,31.4-6.1l7.4-0.1l3.2,13l-50,15.7L284.1,452.5z"/>
			<path class="st4" d="M300.2,461.6l34.4-11.6l12.1-5.4l-6,0.7c0,0-3.7,0.7-22.1,5.3c-10.4,2.6-14.3,4.3-19.6,6.7L300.2,461.6z"/>
			<polygon class="st4" points="355.3,432.2 356.8,440.6 357.4,442.7 363.5,441.4 359.8,432.4    "/>
		</g>
		<path class="st9" d="M389,425.2c1.9-1.4,5-4.2,5.1-2.7l-5.4,5.3l-1.4,3.4l1,2.8l-2.4,0.4c-0.6,0.8-1.1,1.3-2.3,0.2l-1,0.2    c0.6-2.7,0.8-3.9,1.3-4.6l2.2-2.8C386.8,426.7,389,425.2,389,425.2z"/>
	</g>
	<path class="st10" d="M278.6,536.6c0,0,15,53.1,27,72.1c12,19,16.2-5.7,16.2-5.7s-1.1-33.5-2.9-44.4c-1.9-11.1-12-43.9-12-43.9   l-34.9-0.2C272,514.5,272.9,516.3,278.6,536.6z"/>
	<path class="st10" d="M295.2,514.7c0,0-10,87.1-11.5,91.5c-4.9,14.8-16,5.2-17.7,0.3c-1.7-4.9-4.6-41.4-4-68.1   c0.6-26.6,0.6-24.9,0.6-24.9L295.2,514.7z"/>
	<path class="st10" d="M264.5,685.7c-0.5,0.6-0.1,2.3-0.1,2.3s9,1,11.9,0.3c0.8-0.2,2-0.8,3.2-1.5c0.2-0.1,0.6-0.8,0.8-0.9   c0.4-0.2,0.6,0.1,0.9-0.1c0.8-0.5,1.4-0.9,1.4-1c0.8-4.1-0.3-5.8-0.3-5.8s-7.7-2.6-9.1-0.8C269.8,682.5,265.7,684.3,264.5,685.7z"/>
	<path class="st10" d="M320.7,682l1.3,6.7h6.9c0,0,0.4-1,1-1c0.5,0,1.1,1,1.8,1c1.4,0,3,0,3.7,0c1.3,0,13.8,0,13.8,0   s0.3-1.4-0.1-1.9c-0.2-0.2-1.3-0.7-2.1-0.9c-3.5-1-13.7-4.1-15.5-7.5C329.3,674.3,320.7,682,320.7,682z"/>
	<path class="st7" d="M277.8,419.9c0.5,2.2-0.2,4.2-1.7,4.6l0,0c-1.5,0.4-3.1-1.1-3.6-3.2l-0.7-2.7c-0.5-2.2,0.2-4.2,1.7-4.6l0,0   c1.5-0.4,3.1,1.1,3.6,3.2L277.8,419.9z"/>
	<path class="st9" d="M288.5,443c-0.3,3.1-1.2,2-2.9,2.2c-1.6,0-3.3,0-4.9,0c-1.7-0.1-1.5,1.3-1.8-1.8c-0.4-5-2.7-14.2-3.1-19.2   c-0.3-3,0.9-9.1,3.5-10.9c2.4-1.6,5.1-1.6,7.5,0c2.6,1.8,3.8,7.9,3.5,10.9C290.1,429,289.1,437.6,288.5,443z"/>
	<path class="st9" d="M244.6,502.1l22.3,22.8c0,0-26.9-6.2-28.1-17.3C237.6,496.5,244.6,502.1,244.6,502.1z"/>
	<path class="st4" d="M313.9,437.1l-20.3,4.6l-9.8,2.9l-12.1-1.4l-13.3,5.8c0,0-6,5.8-0.4,24.3c5.6,18.5,3.4,47.6,3.4,47.6l47.4,2.1   c0,0,1.7-27,4-53.7C314.6,448.4,311.8,441.7,313.9,437.1z"/>
	<path class="st4" d="M267,449.8c0,0-7.4-5.8-14.6,4.9c-11.1,16.4-18.5,34.6-19.7,38.3c-1.3,3.7-3,14.8,2.1,18.1   c5.1,3.3,5.1,3.3,5.1,3.3l10.7-6.6l-1.7-3.3l-0.9-2.1c0,0,6-13.2,12.4-25.1C267,465.5,267,449.8,267,449.8z"/>
	<path class="st9" d="M291.8,431.5c-0.8,2.9-2,3.5-4.1,3.8c-2,0.2-2.5,0.4-4.5,0.6c-2.1,0.1-4.2-2.7-4.7-5.2   c-0.8-4.2-3.1-7.6-3.8-11.8c-0.5-2.5,0.6-4.8,3.6-6.6c2.8-1.6,6.1-5,9.1-3.9c3.3,1.2,5.1,6.2,4.9,8.7   C293.4,421.4,292.8,427.3,291.8,431.5z"/>
	<polygon class="st4" points="283.7,444.7 279.7,451.2 271.9,442.5 275.3,438.8  "/>
	<polygon class="st4" points="291.9,438.7 287.2,443.5 290.3,449.1 294.2,441.7  "/>
	<path class="st10" d="M286.2,569c0,0-2.2,33-1.9,50.5c0.2,13.2,0,38-2,59.5c-0.1,1.3-8-1.3-8-1.3s-9.9-80.3-11-93.8   C262.2,570.5,277.6,559.4,286.2,569z"/>
	<path class="st10" d="M318.1,605.6c0,0-3,0.7-12.6,1.5c-4.4,0.4,15.2,74.9,15.2,74.9l6.7-4.3l-5.8-76.6L318.1,605.6z"/>
	<path class="st10" d="M273.2,415.6l1.5,3.3c0,0,3.2-3.7,5.5-6.7c0.7-0.9,8.1-1,10-0.7c1.3,0.2,1.5,2,1.8,3c1.1,3.6-0.5-6-0.5-6   s-2.5-4.5-7.2-4.9c-2.6-0.2-3.8,1.3-4.8,3.3c-0.2,0.5,2.9-0.7,2.3-0.8c-0.1,0-3.2,2.7-3.3,2.9c-0.5,1-1,2-1.6,2.9   C274.4,415.3,273.2,415.6,273.2,415.6z"/>
	<polygon class="st4" points="239.7,512.4 249,504.6 252.6,509.6 243.5,516.9  "/>
	<g>
		<path class="st9" d="M260.3,516.2c1.5,0.4,1.4,0.4,1.4,0.4s-0.1,2,1.1,3.4c0.6,0.7,2.8,2.8,2.8,2.8l3.2,3l1.6,1.3c0,0,1,0.7,1,1    c0.3,1-0.6,0.8-0.6,0.8l-6.6-4.5l5,5.8c0,0,0.5,0.9,0.2,1.3c-0.3,0.4-0.5,0.2-0.5,0.2l-7.2-5.2l2.2,3.3c0,0,0.5,0.8,0.2,1.3    c-0.3,0.5-0.4,0.6-0.4,0.6l-5.5-6.1C258.3,525.6,258.8,515.8,260.3,516.2z"/>
		<path class="st9" d="M263.5,525.7l3.3,4.3c0,0,0.8,0.9,1,1.5c0.2,0.7-0.5,0.9-0.5,0.9l-5.6-6L263.5,525.7z"/>
	</g>
	<path class="st11" d="M283.3,521.7h5c5.2-25.9,5-52.7-0.8-78.5c-1.5,0.6-3,1.2-4.5,1.8C288.6,470.3,288.7,496.4,283.3,521.7z"/>
</g>
</svg>