<svg version="1.1" id="Maintenance" xmlns="http://www.w3.org/2000/svg" xmlns:xlink="http://www.w3.org/1999/xlink" x="0px" y="0px" viewBox="0 0 1920 1080" style="enable-background:new 0 0 1920 1080;" xml:space="preserve">
<style xmlns="http://www.w3.org/2000/svg" type="text/css">
	.st0{opacity:0.1;}
	.st1{fill:#2A94F4;}
	.st2{opacity:0.1;fill:#2A94F4;}
	.st3{opacity:0.19;fill:#e12021;}
	.st4{fill:#e12021;}
	.st5{fill:#FCD2B1;}
	.st6{fill:#0E538C;}
	.st7{fill:#FFE3CA;}
	.st8{fill:#D3D3D3;}
	.st9{fill:#F7F7F7;}
	.st10{fill:#0B4870;}
	.st11{fill:#333333;}
	.st12{opacity:0.32;fill:#161616;}
	.st13{fill:#CCE9FF;}
</style>
<g xmlns="http://www.w3.org/2000/svg" class="st0">
	<g>
		<path class="st1" d="M466.3,715.7c-0.7-3.7-1.8-7.3-3.3-10.7c-0.9-2.1-0.6-4.5,0.9-6.3l6.1-7.5l-9.2-11.2l-8.5,4.5    c-2,1.1-4.5,0.9-6.4-0.4c-3.1-2.1-6.4-3.9-9.9-5.3c-2.1-0.8-3.6-2.8-3.8-5.1l-0.9-9.6l-14.4-1.4l-2.8,9.3    c-0.7,2.2-2.5,3.8-4.8,4.2c-3.7,0.7-7.3,1.8-10.7,3.3c-2.1,0.9-4.5,0.6-6.3-0.9l-7.5-6.1l-11.2,9.2l4.5,8.5c1.1,2,0.9,4.5-0.4,6.4    c-2.1,3.1-3.9,6.4-5.3,9.9c-0.8,2.1-2.8,3.6-5.1,3.8l-9.6,0.9l-1.4,14.4l9.3,2.8c2.2,0.7,3.8,2.5,4.2,4.8    c0.7,3.7,1.8,7.3,3.3,10.7c0.9,2.1,0.6,4.6-0.9,6.3l-6.1,7.5l9.2,11.2l8.5-4.5c2-1.1,4.5-0.9,6.4,0.4c3.1,2.1,6.4,3.9,9.9,5.3    c2.1,0.8,3.6,2.8,3.8,5.1l0.9,9.6l14.4,1.4l2.8-9.3c0.7-2.2,2.5-3.8,4.8-4.2c3.7-0.7,7.3-1.8,10.7-3.3c2.1-0.9,4.5-0.6,6.3,0.9    l7.5,6.1l11.2-9.2l-4.5-8.5c-1.1-2-0.9-4.5,0.4-6.4c2.1-3.1,3.9-6.4,5.3-9.9c0.8-2.1,2.8-3.6,5.1-3.8l9.6-0.9l1.4-14.4l-9.3-2.8    C468.4,719.8,466.7,717.9,466.3,715.7z M414.5,761.1c-20.2-2-35-20-33-40.2c2-20.2,20-35,40.2-33c20.2,2,35,20,33,40.2    C452.7,748.3,434.7,763,414.5,761.1z"/>
		<path class="st1" d="M393.7,722c1.3-13.5,13.3-23.3,26.8-22c13.5,1.3,23.3,13.3,22,26.8c-1.3,13.5-13.3,23.3-26.8,22    C402.2,747.5,392.4,735.5,393.7,722z"/>
	</g>
</g>
<ellipse xmlns="http://www.w3.org/2000/svg" class="st2" cx="914" cy="1005.2" rx="452.5" ry="36.6"/>
<g xmlns="http://www.w3.org/2000/svg">
	<g>
		<path class="st3" d="M776.8,888.5c0,8.5,6.9,15.4,15.4,15.4h553.3c8.5,0,15.4-6.9,15.4-15.4V412.1h-584V888.5z"/>
		<path class="st4" d="M950.6,691.8c2.6,9,6.2,17.7,10.8,26c2.8,5,2.6,11.2-0.6,16l-13.4,20.1l25.7,25.7l20.1-13.4    c4.8-3.2,11-3.4,16-0.6c8.2,4.6,16.9,8.2,26,10.8c5.5,1.6,9.7,6.1,10.9,11.8l4.7,23.7h36.3l4.8-23.8c1.1-5.6,5.3-10.2,10.9-11.8    c9-2.6,17.7-6.2,26-10.8c5-2.8,11.2-2.6,16,0.6l20.1,13.4l25.7-25.7l-13.4-20.1c-3.2-4.8-3.4-11-0.6-16c4.6-8.2,8.2-16.9,10.8-26    c1.6-5.5,6.1-9.7,11.8-10.9l23.7-4.7v-36.3l-23.8-4.8c-5.6-1.1-10.2-5.3-11.8-10.9c-2.6-9-6.2-17.7-10.8-26    c-2.8-5-2.6-11.2,0.6-16l13.4-20.1l-25.7-25.7l-20.1,13.4c-4.8,3.2-11,3.4-16,0.6c-8.2-4.6-16.9-8.2-26-10.8    c-5.5-1.6-9.7-6.1-10.9-11.8l-4.7-23.7h-36.3l-4.8,23.8c-1.1,5.6-5.3,10.2-10.9,11.8c-9,2.6-17.7,6.2-26,10.8    c-5,2.8-11.2,2.6-16-0.6l-20.1-13.4l-25.7,25.7l13.4,20.1c3.2,4.8,3.4,11,0.6,16c-4.6,8.2-8.2,16.9-10.8,26    c-1.6,5.5-6.1,9.7-11.8,10.9l-23.7,4.7v36.3l23.8,4.8C944.5,682,949.1,686.2,950.6,691.8z M1068.8,565.7    c50.9,0,92.2,41.3,92.2,92.2c0,50.9-41.3,92.2-92.2,92.2c-50.9,0-92.2-41.3-92.2-92.2C976.6,607.1,1017.9,565.8,1068.8,565.7z"/>
		<path class="st4" d="M776.8,335.2v46.1h584v-46.1c0-8.5-6.9-15.4-15.4-15.4H792.1C783.6,319.8,776.8,326.7,776.8,335.2z     M930.5,335.2h30.7V366h-30.7V335.2z M869,335.2h30.7V366H869V335.2z M807.5,335.2h30.7V366h-30.7V335.2z"/>
		<path class="st4" d="M1130.3,658c0,33.9-27.5,61.5-61.5,61.5c-34,0-61.5-27.5-61.5-61.5c0-33.9,27.5-61.5,61.5-61.5    C1102.7,596.5,1130.3,624,1130.3,658z"/>
		<path class="st4" d="M1084.2,58.6c0-8.5-6.9-15.4-15.4-15.4H515.5c-8.5,0-15.4,6.9-15.4,15.4v46.1h584V58.6z M561.6,89.3h-30.7    V58.6h30.7V89.3z M623.1,89.3h-30.7V58.6h30.7V89.3z M684.6,89.3h-30.7V58.6h30.7V89.3z"/>
		<path class="st3" d="M746,335.2c0-25.5,20.6-46.1,46.1-46.1h292V135.4h-584v476.4c0,8.5,6.9,15.4,15.4,15.4H746V335.2z M869,212.3    h30.7V243H869V212.3z M807.5,212.3h30.7V243h-30.7V212.3z M746,212.3h30.7V243H746V212.3z M684.6,581.1h-123v-30.7h123V581.1z     M684.6,519.6h-123v-30.7h123V519.6z M684.6,458.2h-123v-30.7h123V458.2z M684.6,396.7h-123V366h123V396.7z M684.6,335.2h-123    v-30.7h123V335.2z M684.6,243v-30.7h30.7V243H684.6z"/>
	</g>
	<path class="st5" d="M866.3,767.1l0.6-16.2l11.5,3.5l2.2,20.2C880.6,774.6,869.6,775.3,866.3,767.1z"/>
	<path class="st6" d="M867.3,767.2c2.7,1.1,7.2,2.1,12.8,0.8l-0.7-4.6c0,0,3.2,1.9,4,6.1c0.8,4.1,1,3,6.2,6.2   c5.3,3.2,4.9,10.4,4.9,10.4l-39.2-1c0,0-1.1-7.9,6-16.3C862.7,767,865.2,766.3,867.3,767.2z"/>
	<path class="st4" d="M804,529c0,0-5.1,19.9,2.1,32.4s20.2-15.2,20.2-15.2S824,519.6,804,529z"/>
	<path class="st7" d="M800.4,434.6c0,0-26.4,35.9-30.8,57.6c-4.5,21.7,0.3,69.1,0.3,69.1h10.8c0,0,5.7-60.5,9.3-69.1   c3.6-8.8,27-49.4,27-49.4L800.4,434.6z"/>
	<g>
		<rect x="795.9" y="784.3" class="st8" width="100.2" height="11.5"/>
		<rect x="774.5" y="863.7" class="st8" width="107.7" height="11.5"/>
		<rect x="764.8" y="940.5" class="st8" width="107.7" height="11.5"/>
		<polygon class="st8" points="754,1016.9 742,1016.9 830.4,601.1 837.1,601.1   "/>
		<polygon class="st8" points="879.3,1016.9 867.3,1016.9 937.4,589.4 943.3,592.2   "/>
		<polyline class="st9" points="855,1016.9 919.5,601.8 830.4,601.1 742,1016.9 728.2,1016.9 818,589.4 937.4,589.4 871.1,1016.9     853,1016.9   "/>
	</g>
	<path class="st5" d="M814.5,767.1l0.6-16.2l11.5,3.5l2.2,20.2C828.7,774.6,817.8,775.3,814.5,767.1z"/>
	<path class="st7" d="M928,401.6c0,0,28.5-2.1,31.9-15.3c3.4-13.2,2.8-48.8,2.8-48.8h9.9c0,0,6.8,33.1,6.4,48.8   c-0.4,15.7-19.5,42.5-51,40.8C896.6,425.4,928,401.6,928,401.6z"/>
	<path class="st1" d="M835.7,399.9c0,0-16.5,1.7-23.3,8.9c-3.3,3.5-23.8,28.9-23,34.4l24.1,15l19.7-27.3L835.7,399.9z"/>
	<path class="st10" d="M809.9,522.2c0,0-7.1,21-0.4,44s6.7,69.4,6.1,81.5s-11.9,47.1-2.3,108.9h2.3h12.5c0,0,9-64.8,14.2-92.4   c4.9-25.9,11.1-90.5,11.1-90.5s18.6,61.3,15.5,77.1c-3.4,17.4-3.8,105.7-3.8,105.7H880c0,0,16.7-76,17.7-96.4   c1.1-20.4-1.2-134.8-1.2-134.8S846.9,491.6,809.9,522.2z"/>
	<polygon class="st5" points="860.7,360 845.6,406.2 872.9,411.6 878.9,363.7  "/>
	<path class="st1" d="M876.2,397.3c0,0,18.5,3.8,20.4,28c1.9,24.2,4.5,127.4,4.5,136.3c-0.6,4.1-72.5,17.8-93.9-3   c-5.4-5.3,12.3-95.1,9.8-118.7C814.4,416.4,828.4,386.5,876.2,397.3z"/>
	<path class="st1" d="M897.7,445.7c0,0,7.4-16.9,30.3-18.6c0,0,5.5-15.7,0-25.5c0,0-41.5-8.5-57.3-5.3S897.7,445.7,897.7,445.7z"/>
	<path class="st7" d="M972.5,346.4c0,0,3.1-16.6-2.4-26c-3.3-5.6-6.9-8.2-10.5-7.2c-2.4,0.7-3.4,4.9-2.8,7.3   c0.8,3.1,3.4,11.6,4.8,14c0,0-2.5,0-5.1-5.6c-2.5-5.5-4.4,2.6-2.4,6.4C957.1,340.8,967,355.9,972.5,346.4z"/>
	<path class="st6" d="M815.4,767.2c2.7,1.1,7.2,2.1,12.8,0.8l-0.7-4.6c0,0,3.2,1.9,4,6.1c0.8,4.1,1,3,6.2,6.2   c5.3,3.2,4.9,10.4,4.9,10.4l-39.2-1c0,0-1.1-7.9,6-16.3C810.9,767,813.3,766.3,815.4,767.2z"/>
	<path class="st10" d="M899.4,353.1c-0.7-5.8,11.9-9.7-12.2-26.7c-12.3-8.6-33.7-4.8-40.3,8.2s-3.1,14.3-8.2,15.2   c-5.1,1,0.3,41.2,31.1,40.7C900.7,390,899.4,353.1,899.4,353.1z"/>
	<path class="st11" d="M813.6,406.6"/>
	<path class="st4" d="M805.7,515h93.8c3.8,0,6.9,2.8,7.3,6.5c1.6,14.1,3.3,46.1-13.2,48.4c-21.2,3-28-19.9-28-41.2L804,529   C804,529,801.9,518.8,805.7,515z"/>
	<path class="st1" d="M769.9,561.3"/>
	<path class="st7" d="M780,555.7c0,0-1.8,21.3,5.1,27.1c6.9,5.9-12.2,8.5-16.9-2.3s1.7-24.8,1.7-24.8H780z"/>
	<path class="st7" d="M778.2,558.5c0,0,6.4,1.1,8.8,8c1.4,3.9,2.2,8.1,2.6,11c0.3,1.9-1.9,3.2-3.5,2c-1.6-1.2-3.1-3-2.9-6.1   c0.5-6.5-7.3-4.6-7.3-4.6S773.3,561.1,778.2,558.5z"/>
	<path class="st9" d="M882.9,529.7H878v-14.5c0-0.8,0.7-1.5,1.5-1.5h2c0.8,0,1.5,0.7,1.5,1.5V529.7z"/>
	<path class="st9" d="M890.2,529.7h-4.9v-9.6c0-0.8,0.7-1.5,1.5-1.5h2c0.8,0,1.5,0.7,1.5,1.5V529.7z"/>
	<path class="st9" d="M899.5,529.7h-6.8v-20.9c0-1.1,0.9-2,2-2h2.8c1.1,0,2,0.9,2,2V529.7z"/>
	<rect x="867.2" y="529.7" class="st12" width="37.8" height="3.2"/>
</g>
<g xmlns="http://www.w3.org/2000/svg">
	<path class="st4" d="M557.4,819.5c-1.8-4.6-4-9.1-6.8-13.2c-1.7-2.5-1.8-5.8-0.4-8.4l6.2-11.2l-14.6-12.4l-10,8   c-2.4,1.9-5.6,2.3-8.4,1c-4.5-2-9.3-3.6-14.1-4.5c-3-0.6-5.4-2.8-6.2-5.7l-3.5-12.2l-19.1,1.6l-1.5,12.7c-0.3,3-2.4,5.6-5.2,6.7   c-4.6,1.8-9.1,4-13.2,6.8c-2.5,1.7-5.8,1.8-8.4,0.4l-11.2-6.2l-12.4,14.6l8,10c1.9,2.4,2.3,5.6,1,8.4c-2,4.5-3.6,9.3-4.5,14.1   c-0.6,3-2.8,5.4-5.7,6.2l-12.3,3.5l1.6,19.1l12.7,1.5c3,0.3,5.6,2.4,6.7,5.2c1.8,4.6,4,9.1,6.8,13.2c1.7,2.5,1.8,5.8,0.4,8.4   l-6.2,11.2l14.6,12.4l10-8c2.4-1.9,5.6-2.3,8.4-1c4.5,2,9.3,3.6,14.1,4.5c3,0.6,5.4,2.8,6.2,5.7l3.5,12.3l19.1-1.6l1.5-12.7   c0.3-3,2.4-5.6,5.2-6.7c4.6-1.8,9.1-4,13.2-6.8c2.5-1.7,5.8-1.8,8.4-0.4l11.2,6.2l12.4-14.6l-8-10c-1.9-2.4-2.3-5.6-1-8.4   c2-4.5,3.6-9.3,4.5-14.1c0.6-3,2.8-5.4,5.7-6.2l12.3-3.5l-1.6-19.1l-12.7-1.5C561.1,824.4,558.5,822.3,557.4,819.5z M500.8,891   c-26.8,2.2-50.3-17.7-52.6-44.5c-2.2-26.8,17.7-50.3,44.5-52.6c26.8-2.2,50.3,17.7,52.6,44.5C547.5,865.2,527.6,888.7,500.8,891z"/>
	<path class="st4" d="M464.4,845.2c-1.5-17.9,11.8-33.6,29.6-35.1c17.9-1.5,33.6,11.8,35.1,29.6c1.5,17.9-11.8,33.6-29.6,35.1   C481.6,876.3,465.9,863.1,464.4,845.2z"/>
</g>
<g xmlns="http://www.w3.org/2000/svg">
	<g>
		<path class="st13" d="M713.1,687.9c-4.8-4.3-10-8.1-15.7-11.2c-3.5-1.9-5.5-5.6-5.4-9.5l0.5-16.6l-24.2-5.6l-6.8,15.1    c-1.6,3.6-5.1,6-9.1,6.2c-6.4,0.3-12.8,1.4-19,3.2c-3.8,1.1-7.9,0-10.6-2.9l-11.3-12.1l-21.1,13.1l5.8,15.6    c1.4,3.7,0.6,7.9-2.1,10.8c-4.3,4.8-8.1,10-11.2,15.7c-1.9,3.5-5.6,5.5-9.5,5.4l-16.6-0.5l-5.6,24.2l15.1,6.8    c3.6,1.6,6,5.1,6.2,9.1c0.3,6.4,1.4,12.8,3.1,19c1.1,3.8,0,7.9-2.9,10.6l-12.1,11.3l13.1,21.1l15.6-5.9c3.7-1.4,7.8-0.6,10.8,2.1    c4.8,4.3,10,8.1,15.7,11.2c3.5,1.9,5.6,5.6,5.4,9.5l-0.5,16.6l24.2,5.6l6.8-15.1c1.6-3.6,5.1-6,9.1-6.2c6.4-0.3,12.8-1.4,19-3.1    c3.8-1.1,7.9,0,10.6,2.9l11.3,12.1l21.1-13.1l-5.8-15.6c-1.4-3.7-0.6-7.9,2.1-10.8c4.3-4.8,8.1-10,11.2-15.7    c1.9-3.5,5.6-5.5,9.5-5.4l16.6,0.5l5.6-24.2l-15.1-6.8c-3.6-1.6-6-5.1-6.2-9.1c-0.3-6.4-1.4-12.8-3.1-19c-1.1-3.8,0-7.9,2.9-10.6    l12.1-11.3l-13.1-21.1l-15.6,5.8C720.2,691.3,716.1,690.5,713.1,687.9z M690.1,804c-29.6,18.5-68.6,9.4-87.1-20.2    c-18.5-29.6-9.4-68.6,20.2-87.1c29.6-18.5,68.6-9.4,87.1,20.2C728.7,746.6,719.7,785.5,690.1,804z"/>
		<path class="st13" d="M620.9,772.6c-12.3-19.7-6.3-45.7,13.5-58c19.8-12.3,45.7-6.3,58,13.5c12.3,19.7,6.3,45.7-13.5,58    C659.2,798.4,633.2,792.4,620.9,772.6z"/>
	</g>
</g>
<g xmlns="http://www.w3.org/2000/svg">
	<path class="st4" d="M1412.8,222.4c-3.9,5-7.1,10.4-9.7,16.2c-1.6,3.5-5,5.9-8.9,6.1l-16.3,0.8l-3.6,24.1l15.3,5.5   c3.6,1.3,6.2,4.6,6.7,8.4c0.8,6.3,2.3,12.4,4.6,18.3c1.4,3.6,0.6,7.7-2,10.6l-10.9,12l14.5,19.6l14.8-6.9c3.5-1.6,7.6-1.2,10.7,1.2   c5,3.9,10.4,7.1,16.2,9.7c3.5,1.6,5.9,5,6.1,8.9l0.8,16.3l24.1,3.6l5.5-15.3c1.3-3.6,4.6-6.2,8.4-6.7c6.3-0.8,12.4-2.3,18.3-4.6   c3.6-1.4,7.7-0.6,10.6,2l12,11l19.6-14.5l-6.9-14.8c-1.6-3.5-1.2-7.6,1.2-10.7c3.9-5,7.1-10.4,9.7-16.2c1.6-3.5,5-5.9,8.9-6.1   l16.3-0.8l3.6-24.1l-15.3-5.5c-3.6-1.3-6.2-4.6-6.7-8.4c-0.8-6.3-2.3-12.4-4.6-18.3c-1.4-3.6-0.6-7.7,2-10.6l11-12l-14.5-19.6   l-14.8,6.9c-3.5,1.6-7.6,1.2-10.7-1.2c-5-3.9-10.4-7.1-16.2-9.7c-3.5-1.6-5.9-5-6.1-8.9l-0.8-16.3l-24.1-3.6l-5.5,15.3   c-1.3,3.6-4.6,6.2-8.4,6.7c-6.3,0.8-12.4,2.3-18.3,4.6c-3.6,1.4-7.7,0.6-10.6-2l-12-11l-19.6,14.5l6.9,14.8   C1415.6,215.2,1415.2,219.3,1412.8,222.4z M1528.1,235.9c20.3,27.5,14.5,66.4-13,86.7c-27.5,20.3-66.4,14.5-86.7-13   c-20.3-27.5-14.5-66.4,13-86.7C1469,202.6,1507.8,208.4,1528.1,235.9z"/>
	<path class="st4" d="M1502.8,306c-18.4,13.6-44.2,9.7-57.8-8.7c-13.6-18.4-9.7-44.2,8.7-57.8c18.4-13.6,44.2-9.7,57.8,8.7   C1525.1,266.5,1521.2,292.4,1502.8,306z"/>
</g>
<g xmlns="http://www.w3.org/2000/svg">
	<g>
		<path class="st13" d="M1166,141.6c-1.5,8.1-2,16.3-1.7,24.5c0.2,5-2.3,9.8-6.7,12.3l-18.3,10.5l10.1,30l21-2.7    c5-0.6,9.9,1.6,12.7,5.7c4.7,6.8,10.1,13,16.1,18.5c3.7,3.4,5.2,8.6,3.9,13.4l-5.5,20.3l28.3,14.1l13-16.7c3.1-4,8.1-5.9,13-5    c8.1,1.5,16.3,2.1,24.5,1.7c5-0.2,9.8,2.3,12.3,6.7l10.5,18.3l30-10.1l-2.7-21c-0.6-5,1.6-9.9,5.7-12.7c6.8-4.6,13-10.1,18.5-16.1    c3.4-3.7,8.6-5.2,13.4-3.9l20.4,5.5l14.1-28.4l-16.8-13c-4-3.1-5.9-8.1-5-13c1.5-8.1,2.1-16.3,1.7-24.5c-0.2-5,2.4-9.8,6.7-12.3    l18.3-10.5l-10.1-30l-21,2.7c-5,0.6-9.9-1.6-12.7-5.7c-4.6-6.8-10.1-13-16.1-18.5c-3.7-3.4-5.2-8.6-3.9-13.4l5.5-20.4L1317,33.8    l-13,16.7c-3.1,4-8.1,5.9-13,5c-8.1-1.5-16.3-2.1-24.5-1.7c-5,0.2-9.8-2.3-12.3-6.7l-10.5-18.3l-30,10.1l2.7,21    c0.6,5-1.6,9.9-5.7,12.7c-6.8,4.6-13,10.1-18.5,16.1c-3.4,3.7-8.6,5.2-13.4,3.9l-20.4-5.5l-14.1,28.4l16.7,13    C1165.1,131.6,1167,136.6,1166,141.6z M1307.3,88.9c39.8,19.8,56,68.1,36.3,107.9c-19.8,39.8-68.1,56-107.9,36.3    c-39.8-19.8-56-68.1-36.3-107.9C1219.2,85.4,1267.5,69.2,1307.3,88.9z"/>
		<path class="st13" d="M1319.5,184.9c-13.2,26.5-45.4,37.4-71.9,24.2c-26.5-13.2-37.4-45.4-24.2-71.9    c13.2-26.5,45.4-37.4,71.9-24.2C1321.9,126.1,1332.7,158.3,1319.5,184.9z"/>
	</g>
</g>
</svg>