<svg version="1.1" xmlns="http://www.w3.org/2000/svg" xmlns:xlink="http://www.w3.org/1999/xlink" x="0px" y="0px" viewBox="0 0 1920 1080" enable-background="new 0 0 1920 1080" xml:space="preserve">
<g xmlns="http://www.w3.org/2000/svg" id="Background">
	<path opacity="0.1" fill="#2A94F4" d="M544.805,950.952c121.607,105.788,547.244,175.972,798.197-66.017   s58.865-903.086-382.804-839.756S607.891,289.206,570.203,430.303S423.198,845.164,544.805,950.952z"/>
	<ellipse opacity="0.1" fill="#2A94F4" cx="1160.631" cy="1030.164" rx="146.087" ry="19.081"/>
	<ellipse opacity="0.1" fill="#2A94F4" cx="747.03" cy="1023.57" rx="164.097" ry="21.261"/>
	<ellipse opacity="0.1" fill="#2A94F4" cx="965.652" cy="1065.282" rx="164.097" ry="14.718"/>
</g>
<g xmlns="http://www.w3.org/2000/svg" id="Charafcter_1">
	<g>
		<g>
			<path fill="#FCD2B1" d="M1051.645,147.715c0,0-6.479-20.883-5.91-23.619c0.349-1.683,4.385-12.039,5.741-15.435     c0.504-1.264,1.015-2.55,1.137-3.91c0.125-1.391-0.163-2.789-0.505-4.148c-0.947-3.772-2.32-7.428-3.688-11.073     c-0.364-0.969-0.732-1.945-1.277-2.826c-0.661-1.067-1.562-1.964-2.459-2.844c-5.124-5.03-10.404-9.9-15.832-14.603     c-0.287-0.248-0.599-0.508-0.976-0.548c-0.899-0.097-3.961,5.931-4.048,7.324c-0.358,5.813,0.904,11.735,3.609,16.939     c0.538,1.036,1.14,2.062,1.396,3.198c0.679,3.014-1.174,5.906-2.103,8.834c-0.839,2.646-1.706,5.475-2.063,8.231     c-0.655,5.052,3.76,8.485,4.416,9.415c0.364,0.515,0.474,1.158,0.583,1.775c0.714,4.027,2.036,19.091,2.036,19.091"/>
		</g>
		<g>
			<path fill="#0B4870" d="M1136.238,188.06c-5.777,3.946-6.436,13.304-6.745,19.658c-0.374,7.654,0.701,15.31,2.22,22.795     c1.057,5.209,2.439,10.603,5.961,14.585c1.799,2.033,4.063,3.587,6.305,5.119c1.27,0.869,2.568,1.751,4.047,2.174     c1.48,0.422,3.197,0.314,4.388-0.66c1.737-1.423,1.766-4.021,1.653-6.263c-0.737-14.616-1.18-29.494,2.54-43.649"/>
		</g>
		<g>
			<path fill="#FCD2B1" d="M1097.419,988.066c0,0-0.124,13.788,0.851,18.68c0.976,4.892,16.746,3.316,18.259,0.53     c1.512-2.785-0.373-25.572-0.373-25.572"/>
			<path fill="#0B4870" d="M1121.093,1011.982c0.431,5.169,0.402,14.932,0.402,14.932l-16.169,3.898l-2.057-2.748     c0,0-4.518,3.86-9.501,5.179c-3.699,0.978-11.431,1.727-15.249,1.47c-13.358-0.894-22.573-5.058-23.031-7.012     c-1.915-8.165,15.838-7.141,19.45-7.442c10.373-0.865,17.362-8.309,19.385-13.611c1.468-3.846,0.604-4.718,2.808-4.204     c0,0,1.966,0.242,3.446,2.424c2.271,3.349,6.218,5.39,10.232,4.358c2.296-0.59,4.559-1.646,6.105-3.495     C1116.914,1005.731,1120.662,1006.813,1121.093,1011.982z"/>
		</g>
		<path fill="#0E538C" d="M1128.294,818.843c-1.533-24.225,18.034-56.645,18.034-56.645s-52.832-29.025-53.627-38.054    c0,0-7.233,49.847-9.829,67.436c-4.508,30.548,10.734,204.805,10.734,204.805s11.057,3.068,25.742,0.357    c0,0,2.745-67.309,13.751-112.902C1138.316,862.22,1130.117,824.834,1128.294,818.843z"/>
		<path fill="#0E538C" d="M1132.536,539.552c-19.834,44.261-41.374,187.083-46.538,236.385    c-2.189,20.906,15.222,45.407,35.497,26.503c24.203-22.565,58.252-125.944,70.418-144.192    c12.165-18.248,57.686-34.977,26.597-127.568"/>
		<g>
			<path fill="#FCD2B1" d="M1221.596,988.931c0,0,1.786,19.44,2.488,24.379c0.701,4.939,16.535,4.244,18.201,1.548     c1.666-2.697,1.053-25.555,1.053-25.555"/>
			<path fill="#0B4870" d="M1246.757,1018.956c0.349,5.175-0.526,13.701-0.526,13.701l-18.219,1.224l-1.102-2.981     c0,0-5.701,3.438-10.343,3.75l-15.378,1.033c-11.256,0.757-17.744-0.247-18.163-2.209c-1.745-8.199,11.728-8.726,15.23-8.961     c10.054-0.676,20.624-6.114,22.653-11.377c1.472-3.819,0.648-4.705,2.775-4.152c0,0,1.9,0.278,3.303,2.485     c2.154,3.39,5.949,5.504,9.849,4.544c2.23-0.548,4.437-1.563,5.958-3.383C1242.795,1012.63,1246.41,1013.78,1246.757,1018.956z"/>
		</g>
		<path fill="#0E538C" d="M1181.992,815.984c3.358,17.224,48.352,10.79,47.381-4.464c-1.381-21.686,13.816-49.714,19.643-152.938    c0.666-11.793,12.482-13.524,17.133-45.595c4.591-32.129-14.437-67.69-14.437-67.69l-69.23-9.909    c0,0-26.605,60.031-21.103,119.889S1178.013,795.702,1181.992,815.984z"/>
		<path fill="#0E538C" d="M1229.253,807.899c0,0,15.739,31.179,17.586,53.716c2.703,32.977-0.638,141.51-0.638,141.51    s-17.027,3.698-26.116,1.018c0,0-39.963-192.564-41.429-213.271C1177.19,770.167,1229.253,807.899,1229.253,807.899z"/>
		<path fill="#2A94F4" d="M1105.727,330.836c7.825-8.977,32.664-23.772,65.861-22.724c22.872,0.721,85.162,4.497,92.123,19.798    c3.557,7.821,7.378,87.919,2.168,115.537c-3.917,20.766-13.938,72.211-13.938,84.627s6.669,17.737,3.557,21.343    c-6.97,8.075-54.632,11.466-77.008,11.466c-19.917,0-53.816-5.31-55.536-11.691c-2.553-9.471,3.886-9.116,4.759-19.045    c0.873-9.927,5.565-75.408-0.267-84.925c-9.256-15.105-18.449-54.892-19.16-66.276    C1107.575,367.563,1097.902,339.812,1105.727,330.836z"/>
		<path fill="#FCD2B1" d="M1164.319,284.322c0,0-0.223,27.625-1.337,28.74c-0.186,0.186-0.492,0.412-0.874,0.66    c-3.522,2.292-5.105,6.628-4.107,10.709c1.676,6.853,4.588,15.654,8.317,14.549c4.164-1.234,24.479-11.226,36.591-17.26    c3.228-1.608,4.4-5.263,3.557-8.77c-0.027-0.111-0.041-0.223-0.041-0.334c0-2.228,5.346-45.671,5.346-45.671"/>
		<path fill="#FFE3CA" d="M1161.747,182.795c-5.004,3.311-20.486,5.089-22.508,12.405c-2.021,7.315-0.743,22.962-0.924,27.455    c-0.361,8.944,0.497,18.092,1.034,27.012c0.699,11.625,2.497,32.748,15.906,38.245c3.852,1.578,5.475,1.987,9.421,1.435    c5.247-0.735,10.511-1.345,15.757-2.088c8.13-1.152,17.161-2.348,23.969-7.337c9.095-6.665,10.065-22.509,9.548-32.883    l-2.962-59.419L1161.747,182.795z"/>
		<path fill="#2A94F4" d="M1160.932,364.475c1.195-23.119-78.475-113.775-77.505-117.71c0.97-3.934-35.745-119.383-35.745-119.383    l-20.865,1.616c0,0,6.822,97.627,16.138,130.26c6.558,22.972,57.677,90.644,57.677,90.644S1159.738,387.593,1160.932,364.475z"/>
		<g>
			<path fill="#0B4870" d="M1215.386,517.414l120.165,22.684c3.276,0.618,5.327,3.901,4.445,7.116l-16.098,83.116     c-0.787,2.866-3.641,4.648-6.561,4.097l-120.165-22.683c-3.276-0.618-5.326-3.901-4.444-7.116l16.097-83.116     C1209.611,518.645,1212.466,516.863,1215.386,517.414z"/>
			<polygon fill="#F7F7F7" points="1216.804,523.796 1331.856,545.514 1315.919,628.045 1200.867,606.327    "/>
			<g>
				
					<line fill="none" stroke="#D3D3D3" stroke-width="0.5282" stroke-linecap="round" stroke-linejoin="round" stroke-miterlimit="10" x1="1213.748" y1="602.002" x2="1226.317" y2="531.746"/>
				
					<line fill="none" stroke="#D3D3D3" stroke-width="0.5282" stroke-linecap="round" stroke-linejoin="round" stroke-miterlimit="10" x1="1224.6" y1="604.106" x2="1237.168" y2="533.85"/>
				
					<line fill="none" stroke="#D3D3D3" stroke-width="0.5282" stroke-linecap="round" stroke-linejoin="round" stroke-miterlimit="10" x1="1240.214" y1="607.304" x2="1252.782" y2="537.048"/>
				
					<line fill="none" stroke="#D3D3D3" stroke-width="0.5282" stroke-linecap="round" stroke-linejoin="round" stroke-miterlimit="10" x1="1255.827" y1="610.501" x2="1268.396" y2="540.246"/>
				
					<line fill="none" stroke="#D3D3D3" stroke-width="0.5282" stroke-linecap="round" stroke-linejoin="round" stroke-miterlimit="10" x1="1271.44" y1="613.699" x2="1285.532" y2="543.443"/>
				
					<line fill="none" stroke="#D3D3D3" stroke-width="0.5282" stroke-linecap="round" stroke-linejoin="round" stroke-miterlimit="10" x1="1287.054" y1="616.897" x2="1301.146" y2="546.641"/>
				
					<line fill="none" stroke="#D3D3D3" stroke-width="0.5282" stroke-linecap="round" stroke-linejoin="round" stroke-miterlimit="10" x1="1302.668" y1="620.094" x2="1317.336" y2="549.839"/>
			</g>
		</g>
		<g>
			<g>
				<path fill="#FCD2B1" d="M1279.093,577.834c0,0-4.753,9.693-7.298,14.617c-1.66,3.212-14.283,13.961-19.344,22.526      c-2.442,4.133-4.593,8.801-3.97,13.562c0.623,4.761,5.097,9.271,9.791,8.264c1.337-0.287,2.867-0.941,3.947-0.103      c0.548,0.425,0.789,1.123,1.126,1.729c1.038,1.862,3.275,2.978,5.386,2.687c2.112-0.29,3.964-1.967,4.461-4.04      c3.227,3.016,8.843,2.954,12.002-0.132c-1.879-1.55-3.282-3.944-2.897-6.35c0.37-2.32,2.238-4.053,3.671-5.915      c2.525-3.279,3.878-7.441,3.767-11.579c-0.079-2.95-0.874-5.833-1.199-8.766c-0.667-6.018,0.717-12.244,3.869-17.413"/>
			</g>
			<path fill="#2A94F4" d="M1242.896,383.681c3.632,12.946,58.942,98.087,58.942,98.087l-29.609,107.922l16.88,10.564     c0,0,52.644-87.474,52.807-112.174c0.162-24.701-38.511-115.258-66.783-152.285c-9-11.786-27.038-17.735-27.038-17.735"/>
		</g>
		<g>
			<path fill="#0B4870" d="M1216.462,235.738c-4.122-0.882-7.475-2.143-8.633,1.91c-0.615,2.149-0.539,4.812-2.375,6.087     c-1.83,1.269-4.529,0.139-5.706-1.751c-1.177-1.89-1.25-4.24-1.289-6.466c-0.084-4.926-0.169-9.852-0.253-14.778     c-0.083-4.824-0.32-10.076-3.454-13.744c-1.583-1.852-3.765-3.1-6.019-4.027c-7.343-3.024-15.589-2.945-23.476-2.02     c-7.887,0.925-15.707,2.647-23.647,2.754c-3.337,0.044-6.742-0.213-9.834-1.467c-4.994-2.025-8.73-6.567-10.473-11.667     c-1.743-5.1-1.638-10.699-0.465-15.959c1.122,1.579,2.425,3.03,3.875,4.315c0.125-2.648,0.792-5.269,1.949-7.655     c6.108,11.291,55.319-9.374,68.867-7.973c9.391,0.97,16.951,1.137,21.073,14.48c0.521,0.785,1.438,1.193,2.296,1.582     c9.447,4.274,15.258,11.341,20.135,23.072c5.966,14.352,2.647,33.115-1.755,48.02c-1.106,3.746-1.568,6.299-3.78,9.519     c-2.212,3.219-6.995,6.018-10.869,6.522c-3.873,0.505-10.949,3.185-12.241-0.502c-0.924-2.638,3.188-9.244,4.054-11.9"/>
		</g>
		<g>
			<path fill="#FFE3CA" d="M1207.815,254.005c0,0,0.219,2.664,2.4,4.098c1.913,1.258,4.577,0.107,6.26-1.124     c4.796-3.507,6.774-9.959,6.004-15.694c-0.908-6.759-6.426-11.999-11.707-8.423c-3.09,2.093-3.944,6.661-2.74,10.193"/>
		</g>
		<g>
			<polygon fill="#0B4870" points="1195.76,579.952 1206.161,582.415 1213.67,543.529 1203.241,541.325    "/>
			<path fill="#0B4870" d="M1188.825,567.987c2.452,0.463,11.917,2.252,11.917,2.252l3.515-18.597l-11.917-2.252     c-5.135-0.971-10.085,2.405-11.056,7.541C1180.313,562.066,1183.688,567.016,1188.825,567.987z M1189.716,563.927     c-2.882-0.544-4.776-3.321-4.232-6.203c0.545-2.881,3.322-4.775,6.203-4.231c2.882,0.544,4.776,3.322,4.231,6.203     C1195.373,562.578,1192.597,564.472,1189.716,563.927z"/>
		</g>
	</g>
</g>
<g xmlns="http://www.w3.org/2000/svg" id="Character_2">
	<g>
		<g>
			<path fill="#FCD2B1" d="M980.616,86.767c0.883-7.426-16.212-12.451-17.927-6.312c-0.184,0.658-1.663,2.466-2.064,5.228     c-0.342,2.355-1.372,5.1-1.671,7.469c-0.271,2.152,0.243,12.223-4.782,13.299c-7.701,1.65-2.82-11.749-8.25-14.755     c-1.704-0.943-3.514,9.445-3.643,15.321c-0.128,5.874-0.16,8.818,0.392,12.277c0.481,3.461,2.395,8.356,2.126,10.452     c-0.432,3.374-4.373,10.305-4.373,10.305l19.454,4.428c0,0,4.598-10.692,6.948-13.179c5.907-5.892,9.604-12.655,11.778-20.835     c1.362-5.124,1.828-10.473,2.22-15.745C980.825,94.719,980.525,87.533,980.616,86.767z"/>
			<path fill="#FCD2B1" d="M797.697,249.384c0,0,61.693-0.545,95.185-38.082c26.722-37.44,52.535-78.861,54.462-82.705     c5.258,2.01,16.558,7.18,16.558,7.18s-35.3,78.984-49.05,97.024c-13.751,18.039-40.8,47.585-97.972,62.252     C789.493,263.611,797.697,249.384,797.697,249.384z"/>
			<g>
				<g>
					<path fill="#FCD2B1" d="M837.902,985.838c0,0,3.549,8.097,3.371,13.533c-0.179,5.435-17.422,6.547-19.545,3.82       c-2.122-2.727-4.151-27.573-4.151-27.573"/>
					<path fill="#0B4870" d="M817.364,1008.159c0.233,5.65,2.184,14.788,2.184,14.788l19.89-0.819l0.843-3.36       c0,0,6.585,3.055,11.652,2.846l16.789-0.691c12.29-0.506,19.203-2.359,19.425-4.534c0.926-9.092-13.739-8.076-17.561-7.919       c-10.978,0.452-23.074-4.198-25.893-9.663c-2.047-3.966-1.257-5.024-3.497-4.173c0,0-2.027,0.524-3.288,3.082       c-1.935,3.928-5.799,6.665-10.139,6.085c-2.481-0.332-4.992-1.171-6.855-2.965       C820.913,1000.836,817.132,1002.509,817.364,1008.159z"/>
				</g>
				<g>
					<path fill="#FCD2B1" d="M643.613,975.047c0,0-3.08,14.713-5.26,19.696c-2.178,4.983-18.608-0.371-19.569-3.69       c-0.963-3.319,6.356-27.149,6.356-27.149"/>
					<path fill="#0B4870" d="M612.89,994.052c-1.876,5.334-4.558,15.632-4.558,15.632l15.447,8.37l2.866-2.354       c0,0,3.547,5.259,8.274,7.961c3.51,2.007,11.206,4.834,15.18,5.571c13.904,2.578,24.481,0.618,25.492-1.32       c4.228-8.102-14.206-11.701-17.816-12.97c-10.364-3.646-15.441-13.335-16.037-19.456c-0.432-4.441,0.693-5.132-1.703-5.172       c0,0-2.077-0.263-4.196,1.647c-3.252,2.931-7.856,4.042-11.672,1.896c-2.182-1.227-4.204-2.936-5.27-5.293       C618.899,988.564,614.766,988.717,612.89,994.052z"/>
				</g>
				<g>
					<g>
						<path fill="#e12021" d="M697.532,584.223c0,0-29.691-63.608,15.518-112.537c0,0,40.968,16.351,73.269,17.198        c25.435,0.667,38.207-2.491,38.207-2.491s7.649,46.868,7.557,120.85L697.532,584.223z"/>
						<path fill="#e12021" d="M815.923,992.997c0.818,0.025,1.634-0.008,2.391-0.04c16.782-0.516,26.254-2.889,26.254-2.889        l-0.199-4.835c-3.983-74.051,0.001-195.516,0.173-233.856c0.006-2.684-0.153-5.127-0.534-7.329        c-4.066-27.897-32.864-23.036-43.977,3.211c-2.607,6.117-4.606,12.85-6.058,20.086c-1.8,8.71-2.87,18.147-3.334,28.144        C787.62,859.677,809.006,945.439,815.923,992.997z"/>
						<path fill="#e12021" d="M749.941,611.977c0.147,0.752,0.356,1.561,0.564,2.369c7.795,33.461,32.343,123.761,43.463,152.942        l0.003,0.058c1.627,4.076,6.721,7.366,13.14,8.794c14.725,3.362,36.228-2.95,36.895-32.091c0.1-3.214-0.101-6.706-0.548-10.48        c-2.893-23.511-13.445-153.654-15.011-166.191c-1.508-12.541-4.535-30.795-11.271-32.851        C783.561,524.417,739.32,565.155,749.941,611.977z"/>
						<path fill="#e12021" d="M689.483,749.919c21.569-22.031,53.19-13.325,39.961,20.031        c-14.149,35.665-58.349,134.886-81.627,205.273l-1.618,4.582c0,0-10.575-1.382-27.719-7.734        c10.583-45.503,16.435-123.413,40.056-178.509C666.131,775.849,678.304,761.338,689.483,749.919z"/>
						<g>
							<g>
								<path fill="#e12021" d="M807.34,537.341c2.212-52.286-61.31-15.007-91.75,3.482c-12.813,7.78-17.015,22.468-18.212,36.179          c-1.207,13.712-12.255,154.821-14.579,180.579c-5.243,58.068,43.904,24.409,48.013,8.209          C741.175,724.892,806.135,565.832,807.34,537.341z"/>
							</g>
						</g>
					</g>
				</g>
			</g>
			<g>
				<g id="XMLID_34_">
					<path fill="#FFE3CA" d="M798.69,207.628c0.134,3.937,0.285,19.329-7.891,23.004c-8.178,3.732-13.423,5.298-13.187,6.561       c0.092,0.573,0.9,3.282,1.767,5.937c1.88,5.942,4.73,7.418,4.73,7.418l1.183,19.705l-14.694,14.652l-4.799,4.774l-7.212-6.602       l-23.512-21.415c0,0,9.689-11.937,2.999-24.73c-0.957-1.803-11.671-13.668-20.216-25.62       c-4.973-7.029-9.207-14.029-10.325-19.03c-3.066-13.68-5.648-28.081,2.203-36.671c7.794-8.591,61.63-43.909,72.407-2.468       C782.144,153.144,798.555,203.691,798.69,207.628z"/>
					<path id="XMLID_35_" fill="#0B4870" d="M735.006,195.672c0,0,12.931,4.667,11.602-12.882c-0.072-0.959,0.613-1.817,1.627-2.118       c3.785-1.119,12.133-5.544,7.882-22.487c-0.355-1.414,0.68-2.805,2.272-3.021c5.491-0.744,16.832-2.209,19.35-1.983       c0,0,1.245-0.123,3.109,0.187c0.607,0.101,1.133,0.444,1.409,0.94c0.876,1.569,5.89,17.562,5.89,17.562       s5.977-4.506,5.337-7.546c-0.64-3.04-3.458-9.487-3.135-11.105c0.323-1.619,4.921-3.523,4.955-7.164       c0.075-8.233-3.138-39.748-28.135-20.371c-3.269,2.534-6.17,5.582-9.067,6.647c-3.78,1.389-8.051-1.29-16.279-0.71       c-11.496,0.809-60.901,12.364-45.083,56.299c15.816,43.935,41.846,50.203,41.846,50.203S730.051,201.259,735.006,195.672z"/>
				</g>
				<path id="XMLID_5_" fill="#FFE3CA" d="M735.006,195.672c0,0-2.446-7.552-8.762-5.376c-8.479,2.922-7.715,24.216,10.753,21.411      C736.997,211.708,734.526,203.002,735.006,195.672z"/>
			</g>
			<path fill="#2A94F4" d="M852.772,530.679c0,0-93.275,16.652-177.243,1.068c4.072-25.942,20.001-99.245,21.079-128.835     l0.116-3.016c0.667-18.893,1.013-32.385,1.433-32.938c0.843-1.164-2.146-61.454,2.805-85.084     c0.907-4.353,2.109-7.441,3.638-8.693c9.83-8.171,21.384-16.732,34.279-23.132c0,0,30.046,32.322,45.377-3.447     c16.869-1.519,25.457,1.887,30.337,18.771C841.599,359.177,852.772,530.679,852.772,530.679z"/>
			<path fill="#2A94F4" d="M796.843,246.826c0,0,27.941,0.475,56.443-12.158c15.904,18.701,25.519,52.785,25.519,52.785     s-38.451,24.439-66.558,26.789C806.218,273.275,796.843,246.826,796.843,246.826z"/>
			<g>
				<polygon fill="#0B4870" points="846.385,306.661 849.719,313.262 843.261,309.658 793.218,257.501 796.342,254.503     "/>
				<path fill="#FCD2B1" d="M686.145,366.754c0,0,12.931,44.614,46.56,65.619c9.796,6.119,22.091,2.698,29.79-5.914      c23.021-25.747,46.036-83.748,53.399-105.648c-13.497-7.165-17.811-6.049-17.811-6.049s-32.65,45.328-51.382,75.66      l-13.991-24.399"/>
				<path fill="#FCD2B1" d="M797.122,316.453c0,0,6.003-9.7,6.284-17.049c0.282-7.349-3.201-20.053,3.939-26.665      c2.657-2.461,11.955-6.229,22.424-4.497c15.572,2.577,3.258,29.58,2.549,35.713c-1.065,9.219-13.917,13.119-16.712,17.714      C813.617,324.936,797.122,316.453,797.122,316.453z"/>
			</g>
			<g>
				<g>
					<path fill="#2A94F4" d="M712.3,267.016c0,0-34.653,22.7-36.134,61.345c-1.145,29.881,18.612,73.48,18.612,73.48       s34.285,3.781,52.28-24.24c-5.33-13.612-9.994-25.702-20.235-41.77"/>
				</g>
			</g>
		</g>
	</g>
	<g>
		<path fill="#e12021" d="M942.211,30.21l10.883,115.102c0.296,3.138,3.209,5.354,6.312,4.804l79.464-14.09    c2.767-0.49,4.693-3.022,4.429-5.819l-10.883-115.102c-0.297-3.138-3.209-5.354-6.312-4.804L946.64,24.39    C943.873,24.881,941.946,27.412,942.211,30.21z"/>
		<polygon fill="#F7F7F7" points="948.094,32.101 958.515,142.305 1037.415,128.314 1026.995,18.111   "/>
		<g>
			
				<line fill="none" stroke="#D3D3D3" stroke-width="0.5282" stroke-linecap="round" stroke-linejoin="round" stroke-miterlimit="10" x1="1021.501" y1="28.291" x2="954.451" y2="40.18"/>
			
				<line fill="none" stroke="#D3D3D3" stroke-width="0.5282" stroke-linecap="round" stroke-linejoin="round" stroke-miterlimit="10" x1="1022.536" y1="38.691" x2="955.487" y2="50.58"/>
			
				<line fill="none" stroke="#D3D3D3" stroke-width="0.5282" stroke-linecap="round" stroke-linejoin="round" stroke-miterlimit="10" x1="998.527" y1="55.5" x2="956.627" y2="62.93"/>
			
				<line fill="none" stroke="#D3D3D3" stroke-width="0.5282" stroke-linecap="round" stroke-linejoin="round" stroke-miterlimit="10" x1="998.427" y1="64.766" x2="956.526" y2="72.196"/>
			
				<line fill="none" stroke="#D3D3D3" stroke-width="0.5282" stroke-linecap="round" stroke-linejoin="round" stroke-miterlimit="10" x1="998.325" y1="74.031" x2="956.424" y2="81.461"/>
			
				<line fill="none" stroke="#D3D3D3" stroke-width="0.5282" stroke-linecap="round" stroke-linejoin="round" stroke-miterlimit="10" x1="1028.154" y1="115.228" x2="986.253" y2="122.658"/>
		</g>
	</g>
</g>
<g xmlns="http://www.w3.org/2000/svg" id="Character_3">
	<g>
		<g>
			<g>
				<path fill="#FCD2B1" d="M995.005,488.686c5.019-2.364,8.748-6.739,12.316-10.986c3.52-4.191,7.04-8.381,10.56-12.573      c1.389-1.653,2.843-3.461,3-5.614c-5.901-0.48-9.703,7.186-15.606,7.64c2.75-9.718,6.697-19.096,11.725-27.855      c1.227-2.137,2.561-4.63,1.691-6.935c-6.379,2.436-11.75,6.972-16.397,11.974c-3.265,3.515-6.241,7.3-8.885,11.303      c-7.789,11.788-12.615,25.317-15.9,39.059"/>
			</g>
			<g>
				<path fill="#FCD2B1" d="M969.609,589.399l-63.264-53.375c0,0-29.442,39.932-18.351,78.456      c5.454,18.944,12.301,28.337,15.274,37.326c2.777,8.397,21.819,127.265,20.398,135.956      c-1.421,8.691-11.645,33.007-15.547,58.579c-4.693,30.755-3.896,130.962-7.536,157.531      c-3.639,26.569,20.896,31.064,22.246,22.075c11.532-76.827,41.991-196.549,46.253-234.958      C973.343,752.578,971.613,682.244,969.609,589.399z"/>
				<path fill="#FCD2B1" d="M927.089,1001.273c0,0-5.89,27.876-4.305,31.429c1.585,3.554,7.284,13.88,13.12,17.612      c6.125,3.917,19.688,8.573,20.774,10.271c1.085,1.699-2.229-0.397-4.164,1.122c-4.996,3.926-14.494,4.02-20.166,3.084      c-18.39-3.036-16.082-4.779-26.796-6.081c-1.85-0.225-5.277,2.51-10.393-0.108c-5.118-2.618-7.603-7.349-7.163-11.801      c0.758-7.679,5.071-14.007,8.141-19.687c3.07-5.679,5.232-31.667,5.232-31.667"/>
				<path fill="#0B4870" d="M957.766,1061.009c0.1-2.089-7.882-5.249-11.448-6.89c-3.567-1.642-9.224-3.09-7.231-2.012      c1.992,1.077-1.69,5.262-5.014,4.895c-48.677-5.374-40.042-23.566-40.458-25.38c-1.792,1.139-5.961,10.146-6.806,12.979      c-0.763,2.561-1.199,7.151-1.405,9.909C884.533,1066.176,956.891,1079.356,957.766,1061.009z"/>
			</g>
			<g>
				<path fill="#FCD2B1" d="M1055.994,1066.462c-1.36-1.502-16.014-3.886-22.888-6.757c-6.549-2.736-14.483-11.535-16.026-15.267      s-1.19-22.648-0.992-30.589c1.371-54.706,11.479-188.39,12.943-220.405c2.544-55.646-4.68-113.082-26.089-202.412      l-79.723-61.182c0,0-22.326,41.506-14.852,81.191c4.336,23.024,23.435,26.566,26.663,35.514      c3.229,8.947,51.462,153.225,51.462,153.225s-9.384,31.189-9.929,65.362c-0.466,29.169,12.763,117.162,15.217,150.685      c0.289,6.551,1.416,22.232-0.513,27.223c-2.366,6.118-8.394,13.302-8.091,21.018c0.175,4.473,0.657,3.393,6.307,5.145      c5.649,1.752,11.55,3.838,13.49,3.758c11.24-0.466,14.439-0.33,33.843-0.336c5.984-0.002,14.574,4.283,19.176-0.416      C1057.775,1070.4,1057.353,1067.964,1055.994,1066.462z"/>
				<path fill="#0B4870" d="M1057.663,1073.311c0.611-2.635,0.92-5.974-0.486-6.608c-1.95-0.88-8.874-3.901-12.787-4.94      c-3.913-1.04-9.953-1.546-7.745-0.807c2.208,0.739-0.991,5.66-4.482,5.66c-43.797,0-42.681-16.751-43.367-18.477      c-1.688,1.419-6.682,11.006-7.154,13.945c-0.426,2.656-0.479,7.3-0.05,10.027      C982.357,1076.975,1055.838,1081.186,1057.663,1073.311z"/>
			</g>
			<path fill="#0E538C" d="M908.012,529.309c-5.41,5.942-24.692,38.071-24.898,64.223c-0.204,26.151,9.099,42.921,9.934,48.38     c6.116,39.949,12.029,88.129,12.029,90.744c0,2.615,22.677,17.741,53.174,15.821c56.348-3.547,78.257-18.306,78.257-18.306     s-2.668-96.77-11.355-144.486c-4.354-23.914-23.309-62.398-23.309-62.398"/>
			<path fill="#FFBE9D" d="M856.602,424.818c0,0,9.075,45.092,11.456,53.118c2.382,8.026,14.156,58.975,25.315,58.088     c11.16-0.887,72.279-51.913,72.279-51.913l-8.656-17.312l-53.8,25.647c0,0-4.861-58.243-9.123-72.115"/>
			<path fill="#e12021" d="M893.048,362.318c0,0-17.84,1.901-26.886,8.822c-23.067,17.649-5.216,81.712-5.216,81.712     s-1.137,3.42,14.348,2.551c15.486-0.869,27.902-5.275,27.902-5.275l-4.475-52.493"/>
			<g>
				<path fill="#FFE3CA" d="M978.313,244.12c10.749,13.939,8.621,33.541,5.97,50.942c-1.34,8.798-2.68,17.597-4.021,26.395      c-0.637,4.18-1.485,8.747-4.741,11.444c-3.285,2.719-7.978,2.673-12.239,2.49c0.043,7.281,0.087,14.562,0.13,21.844      c-12.456,0.302-24.919,0.352-37.378,0.149c-0.007-5.098-1.117-10.192-3.232-14.831c-6.095-0.119-10.167-6.231-12.553-11.84      c-2.752-6.47-4.756-13.228-6.692-19.987c-2.569-8.969-5.047-18.079-5.282-27.406c-0.235-9.327,1.984-19.022,7.907-26.23      c4.039-4.915,9.545-8.402,15.186-11.346c7.727-4.032,17.008-7.215,24.977-3.684"/>
			</g>
			<g>
				<path fill="#0B4870" d="M965.421,310.518c-1.472-7.321-1.368-11.45,1.029-16.325c0.794-1.616,1.843-3.139,3.274-4.144      c1.937-1.359,4.512-1.626,6.658-0.69c1.401,0.611,2.554,1.75,3.346,3.119c2.54-9.833,3.073-20.312,2.339-30.523      c-1.163-16.194-10.925-28.712-25.178-34.566c-26.39-10.841-64.303-0.131-75.021,25.773      c-8.095,19.565-3.991,47.803,11.505,64.204c13.719,14.52,33.453,16.653,51.664,13.662c9.318-1.53,23.7-0.613,28.522-13.285      c0.372-0.979-0.465-1.953-1.455-1.877C968.322,316.156,965.693,311.872,965.421,310.518z"/>
			</g>
			<g>
				<path fill="#0B4870" d="M967.447,276.073c0.98,1.537,0.75,3.603,1.67,5.176c1.547,2.642,3.603,3.597,6.379,4.885      c4.479,2.076,3.43,8.597,3.302,11.513c3.378-2.246,3.927-8.361,4.743-11.468c0.917-3.488,1.502-7.067,2.518-10.527      c0.989-3.366,2.7-6.538,3.017-10.079c1.094-12.236-6.583-26.618-15.861-33.486c-6.753-5-17.062-4.793-24.693,0.292      c-3.213,2.142-5.629,5.377-7.051,8.966c-0.61,1.542-1.032,3.337-0.274,4.811"/>
			</g>
			<g>
				<g>
					<g>
						<path fill="#0B4870" d="M1023.507,345.998l-25.664,112.731c-0.7,3.073,1.373,6.089,4.493,6.538l79.884,11.471        c2.781,0.4,5.403-1.403,6.027-4.142l25.664-112.731c0.7-3.073-1.373-6.089-4.493-6.537l-79.884-11.471        C1026.753,341.457,1024.131,343.259,1023.507,345.998z"/>
						<polygon fill="#F7F7F7" points="1028.504,349.635 1003.932,457.569 1083.25,468.958 1107.822,361.025       "/>
						<g>
							
								<line fill="none" stroke="#D3D3D3" stroke-width="0.5282" stroke-linecap="round" stroke-linejoin="round" stroke-miterlimit="10" x1="1099.42" y1="368.976" x2="1032.015" y2="359.297"/>
							
								<line fill="none" stroke="#D3D3D3" stroke-width="0.5282" stroke-linecap="round" stroke-linejoin="round" stroke-miterlimit="10" x1="1097.15" y1="379.178" x2="1029.746" y2="369.499"/>
							
								<line fill="none" stroke="#D3D3D3" stroke-width="0.5282" stroke-linecap="round" stroke-linejoin="round" stroke-miterlimit="10" x1="1069.088" y1="387.635" x2="1026.966" y2="381.586"/>
							
								<line fill="none" stroke="#D3D3D3" stroke-width="0.5282" stroke-linecap="round" stroke-linejoin="round" stroke-miterlimit="10" x1="1066.094" y1="396.404" x2="1023.972" y2="390.355"/>
							
								<line fill="none" stroke="#D3D3D3" stroke-width="0.5282" stroke-linecap="round" stroke-linejoin="round" stroke-miterlimit="10" x1="1063.1" y1="405.173" x2="1020.978" y2="399.124"/>
							
								<line fill="none" stroke="#D3D3D3" stroke-width="0.5282" stroke-linecap="round" stroke-linejoin="round" stroke-miterlimit="10" x1="1078.547" y1="453.632" x2="1036.424" y2="447.584"/>
						</g>
					</g>
					<g>
						<path fill="#FFE3CA" d="M992.062,435.06c0,0,36.508,88.228,52.348,88.228c11.522,0,39.775-81.445,39.775-81.445l-17.851-8.45        l-19.907,34.109l-20.157-63.618"/>
					</g>
					<g>
						<path fill="#FFE3CA" d="M1062.79,439.462c0,0,5.919-9.318,5.485-15.927c-0.165-2.521-1.662-14.515-0.411-16.873        c1.251-2.358,4.252-10.075,5.967-11.576c1.715-1.5,8.057-3.913,9.608-2.841c1.551,1.072,3.74-2.224,6.052-3.43        c14.971-7.805,25.431,23.931,9.62,36.508c-2.852,2.269-5.257,7.239-9.957,10.083c-2.32,1.404-3.591,3.856-5.807,8.018"/>
					</g>
				</g>
			</g>
			<g>
				<g>
					<g>
						<path fill="#e12021" d="M1010.437,518.831c-1.7-2.514-5.623-5.52-7.03-8.286c-3.377-6.638-6.33-34.588-5.168-41.729        c1.245-7.654,8.018-11.771,11.075-28.807c3.938-21.945-5.061-39-10.091-46.306c-7.11-10.331-2.895-10.271-5.327-22.927        c-0.439-2.28-0.953-4.713-2.511-6.302c-1.537-1.568-12.136-6.412-14.218-6.733c-19.765-3.062-31.38-0.672-51.36,0.203        c-9.884,0.432-19.753,1.586-29.458,3.727c-10.74,2.369-20.096,5.217-22.305,19.792c-3.416,22.542-0.544,45.331,6.309,66.711        c4.543,14.171,31.663,63.196,24.943,72.684c-1.536,2.169-5.38,6.287-5.845,8.992c-1.701,9.909,20.686,13.393,30.268,14.18        c14.598,1.199,31.349,0.394,45.982-0.289c11.086-0.518,35.335-4.388,37.058-18.087        C1013.097,522.964,1011.767,520.796,1010.437,518.831z"/>
					</g>
					<g>
						<path fill="#e12021" d="M958.484,356.38c9.507,0.494,37.187-4.362,52.568,11.726c12.886,13.479,20.27,48.814,25.456,63.145        c-12.908,13.159-25.345,23.771-44.905,19.499c-0.737-0.549-10.442-31.091-17.507-33.808"/>
					</g>
				</g>
			</g>
		</g>
		<path fill="#0B4870" d="M972.104,315.866c0,0,32.785,41.64,14.327,88.018c-22.581,56.735-24.589,59.742,0,93.185    c24.589,33.443,2.774,74.501-32.516,85.144c-35.29,10.643-125.914,5.51-120.435-73.941c2.241-32.489,24.087-37.531,15.124-70.02    s-10.899-52.655,5.754-87.385s-0.721-130.489,88.349-127.142C942.707,223.724,926.435,326.238,972.104,315.866z"/>
	</g>
</g>
</svg>