<svg id="Layer_1" data-name="Layer 1" xmlns="http://www.w3.org/2000/svg" xmlns:xlink="http://www.w3.org/1999/xlink" viewBox="0 0 1058.13 940.73"><defs><style>.cls-1{mask:url(#mask);}.cls-2{mix-blend-mode:multiply;fill:url(#linear-gradient);}.cls-3{fill:none;}.cls-4{fill:#d9f4ff;}.cls-5{clip-path:url(#clip-path);}.cls-6{fill:#fff;}.cls-7{fill:#eff9fe;}.cls-8{fill:#c9efff;}.cls-9{fill:#ebf9ff;}.cls-10{fill:url(#New_Gradient_Swatch);}.cls-11{fill:#b3e2fc;}.cls-12{fill:url(#New_Gradient_Swatch-2);}.cls-13{mask:url(#mask-2);}.cls-14{fill:url(#linear-gradient-2);}.cls-15{fill:#ffbc00;}.cls-16{fill:#ffda1e;}.cls-17{fill:url(#linear-gradient-3);}.cls-18{fill:url(#linear-gradient-4);}.cls-19{fill:url(#linear-gradient-5);}.cls-20{fill:url(#linear-gradient-6);}.cls-21{fill:url(#New_Gradient_Swatch_copy);}.cls-22{fill:url(#linear-gradient-7);}.cls-23{fill:url(#linear-gradient-8);}.cls-24{fill:url(#linear-gradient-9);}.cls-25{fill:#001333;}.cls-26{fill:url(#linear-gradient-10);}.cls-27{fill:url(#linear-gradient-11);}.cls-28{fill:url(#New_Gradient_Swatch_copy-2);}.cls-29{fill:url(#linear-gradient-12);}.cls-30{fill:url(#New_Gradient_Swatch-3);}.cls-31{fill:url(#New_Gradient_Swatch-4);}.cls-32{fill:url(#New_Gradient_Swatch_copy-3);}.cls-33{fill:url(#linear-gradient-13);}.cls-34{fill:url(#linear-gradient-14);}.cls-35{fill:url(#New_Gradient_Swatch_copy-4);}.cls-36{fill:url(#linear-gradient-15);}.cls-37{fill:url(#linear-gradient-16);}.cls-38{fill:url(#linear-gradient-17);}.cls-39{fill:url(#linear-gradient-18);}.cls-40{fill:#231f20;}.cls-41{filter:url(#luminosity-noclip-2);}.cls-42{filter:url(#luminosity-noclip);}</style><filter id="luminosity-noclip" x="195.78" y="-8642" width="832.64" height="32766" filterUnits="userSpaceOnUse" color-interpolation-filters="sRGB"><feFlood flood-color="#fff" result="bg"/><feBlend in="SourceGraphic" in2="bg"/></filter><mask id="mask" x="195.78" y="-8642" width="832.64" height="32766" maskUnits="userSpaceOnUse"><g class="cls-42"/></mask><linearGradient id="linear-gradient" x1="195.78" y1="784.58" x2="1028.42" y2="784.58" gradientUnits="userSpaceOnUse"><stop offset="0" stop-color="#333"/><stop offset="1" stop-color="#ccc"/></linearGradient><clipPath id="clip-path" transform="translate(-36.14 -61.49)"><path class="cls-3" d="M359.31,796.18c-224-78.43-272.42-355.88-182.84-559.8C229,116.84,323.81,70.35,449.77,80.79c122.06,10.11,269-11.74,384.77,29.79C932.6,145.74,1016,224.11,1051.1,322.92c37.86,106.6-18,221.53-53.28,323C916.73,879.28,547.84,862.19,359.31,796.18Z"/></clipPath><linearGradient id="New_Gradient_Swatch" x1="1007.4" y1="290.12" x2="767.9" y2="447.98" gradientUnits="userSpaceOnUse"><stop offset="0" stop-color="#b3e2fc"/><stop offset="1" stop-color="#2d9bee"/></linearGradient><linearGradient id="New_Gradient_Swatch-2" x1="348.2" y1="104.87" x2="104.29" y2="272.46" xlink:href="#New_Gradient_Swatch"/><filter id="luminosity-noclip-2" x="195.78" y="707.66" width="832.64" height="153.83" filterUnits="userSpaceOnUse" color-interpolation-filters="sRGB"><feFlood flood-color="#fff" result="bg"/><feBlend in="SourceGraphic" in2="bg"/></filter><mask id="mask-2" x="159.64" y="646.17" width="832.64" height="153.83" maskUnits="userSpaceOnUse"><g class="cls-41"><g transform="translate(-36.14 -61.49)"><g class="cls-1"><path class="cls-2" d="M580.49,709.9a1238.56,1238.56,0,0,0-358.25,45.76c-12.75,3.58-28.39,11.71-26.26,24.78,1.48,9.1,11.18,14.17,19.92,17.15,67,22.82,140.86,5.2,210.75,16.13,38.38,6,74.84,20.5,112.41,30.4C610.81,863,685.83,864.7,759.37,857.69c35.22-3.37,69.62-10,104.46-15.06,33.3-4.83,66.7-10.83,98.45-22.26a247.12,247.12,0,0,0,48.6-23.39c6-3.79,12-8.15,15.14-14.5,18.79-38.21-78.24-56-99.76-56.57-137.94-3.63-173.94-14.61-311.87-18.25Z"/></g></g></g></mask><linearGradient id="linear-gradient-2" x1="195.78" y1="784.58" x2="1028.42" y2="784.58" gradientUnits="userSpaceOnUse"><stop offset="0" stop-color="#2d9bee"/><stop offset="1" stop-color="#b3e2fc"/></linearGradient><linearGradient id="linear-gradient-3" x1="644.23" y1="155.2" x2="391.37" y2="679.65" gradientUnits="userSpaceOnUse"><stop offset="0" stop-color="#304dd9"/><stop offset="1" stop-color="#182c8c"/></linearGradient><linearGradient id="linear-gradient-4" x1="432.62" y1="661.78" x2="431.57" y2="794.31" gradientUnits="userSpaceOnUse"><stop offset="0" stop-color="#fbb773"/><stop offset="1" stop-color="#fa6c69"/></linearGradient><linearGradient id="linear-gradient-5" x1="286.01" y1="660.63" x2="284.96" y2="793.15" xlink:href="#linear-gradient-4"/><linearGradient id="linear-gradient-6" x1="365.54" y1="349.29" x2="365.54" y2="521.34" xlink:href="#linear-gradient-4"/><linearGradient id="New_Gradient_Swatch_copy" x1="348.91" y1="460.73" x2="348.91" y2="296.6" gradientUnits="userSpaceOnUse"><stop offset="0" stop-color="#182c8c"/><stop offset="1" stop-color="#001333"/></linearGradient><linearGradient id="linear-gradient-7" x1="493.2" y1="339.61" x2="493.2" y2="787.77" xlink:href="#linear-gradient-4"/><linearGradient id="linear-gradient-8" x1="322.34" y1="438.16" x2="319.35" y2="658.04" xlink:href="#linear-gradient-3"/><linearGradient id="linear-gradient-9" x1="342.16" y1="499.43" x2="339.17" y2="719.31" xlink:href="#linear-gradient-3"/><linearGradient id="linear-gradient-10" x1="281.72" y1="339.61" x2="281.72" y2="787.77" xlink:href="#linear-gradient-4"/><linearGradient id="linear-gradient-11" x1="364.49" y1="349.29" x2="364.49" y2="521.34" xlink:href="#linear-gradient-4"/><linearGradient id="New_Gradient_Swatch_copy-2" x1="373.07" y1="460.73" x2="373.07" y2="296.6" xlink:href="#New_Gradient_Swatch_copy"/><linearGradient id="linear-gradient-12" x1="843.46" y1="519.85" x2="838.2" y2="752.77" xlink:href="#linear-gradient-3"/><linearGradient id="New_Gradient_Swatch-3" x1="883.6" y1="314.61" x2="857.09" y2="557.14" xlink:href="#New_Gradient_Swatch"/><linearGradient id="New_Gradient_Swatch-4" x1="777.78" y1="303.05" x2="751.26" y2="545.57" xlink:href="#New_Gradient_Swatch"/><linearGradient id="New_Gradient_Swatch_copy-3" x1="877.89" y1="308.96" x2="878.55" y2="391.51" xlink:href="#New_Gradient_Swatch_copy"/><linearGradient id="linear-gradient-13" x1="851.38" y1="266.05" x2="851.38" y2="656.68" xlink:href="#linear-gradient-4"/><linearGradient id="linear-gradient-14" x1="873.43" y1="266.05" x2="873.43" y2="656.68" xlink:href="#linear-gradient-4"/><linearGradient id="New_Gradient_Swatch_copy-4" x1="850.41" y1="309.18" x2="851.07" y2="391.74" xlink:href="#New_Gradient_Swatch_copy"/><linearGradient id="linear-gradient-15" x1="851.6" y1="266.05" x2="851.6" y2="656.68" xlink:href="#linear-gradient-4"/><linearGradient id="linear-gradient-16" x1="698.27" y1="266.05" x2="698.27" y2="656.68" xlink:href="#linear-gradient-4"/><linearGradient id="linear-gradient-17" x1="947.87" y1="266.05" x2="947.87" y2="656.68" xlink:href="#linear-gradient-4"/><linearGradient id="linear-gradient-18" x1="942.47" y1="263.78" x2="927.75" y2="390.85" xlink:href="#linear-gradient-4"/></defs><title>office-best-achiever</title><path class="cls-4" d="M359.31,795.22c-224-78.43-272.42-355.88-182.84-559.8C229,115.88,323.81,69.39,449.77,79.83c122.06,10.11,269-11.74,384.77,29.79C932.6,144.78,1016,223.15,1051.1,322c37.86,106.6-18,221.53-53.28,323C916.73,878.32,547.84,861.23,359.31,795.22Z" transform="translate(-36.14 -61.49)"/><g class="cls-5"><rect class="cls-6" x="699.57" y="713.21" width="86.52" height="243" transform="translate(1449.53 1607.93) rotate(180)"/><rect class="cls-6" x="742.83" y="619.46" width="43.26" height="336.75" transform="translate(1492.79 1514.18) rotate(180)"/><rect class="cls-7" x="198.97" y="401.95" width="20.28" height="46.08" transform="translate(382.08 788.48) rotate(180)"/><rect class="cls-8" x="198.97" y="423.76" width="20.28" height="24.26" transform="translate(382.08 810.3) rotate(180)"/><rect class="cls-7" x="124.59" y="372" width="46.43" height="76.02" transform="translate(259.46 758.54) rotate(180)"/><rect class="cls-8" x="124.59" y="423.76" width="46.43" height="24.26" transform="translate(259.46 810.3) rotate(180)"/><rect class="cls-7" x="114.28" y="433.6" width="133.38" height="411.95" transform="translate(325.8 1217.67) rotate(180)"/><rect class="cls-8" x="203.95" y="475.48" width="13.5" height="17.64" transform="translate(385.25 907.11) rotate(180)"/><rect class="cls-8" x="167.8" y="450.35" width="13.5" height="17.64"/><rect class="cls-8" x="167.8" y="486.71" width="13.5" height="17.64"/><rect class="cls-8" x="167.8" y="523.06" width="13.5" height="17.64"/><rect class="cls-8" x="167.8" y="559.42" width="13.5" height="17.64"/><rect class="cls-8" x="167.8" y="595.78" width="13.5" height="17.64"/><rect class="cls-8" x="167.8" y="632.14" width="13.5" height="17.64"/><rect class="cls-8" x="164.27" y="475.48" width="13.5" height="17.64" transform="translate(305.89 907.11) rotate(180)"/><rect class="cls-8" x="128.13" y="450.35" width="13.5" height="17.64"/><rect class="cls-8" x="128.13" y="486.71" width="13.5" height="17.64"/><rect class="cls-8" x="128.13" y="523.06" width="13.5" height="17.64"/><rect class="cls-8" x="128.13" y="559.42" width="13.5" height="17.64"/><rect class="cls-8" x="128.13" y="595.78" width="13.5" height="17.64"/><rect class="cls-8" x="128.13" y="632.14" width="13.5" height="17.64"/><rect class="cls-8" x="124.59" y="475.48" width="13.5" height="17.64" transform="translate(226.54 907.11) rotate(180)"/><rect class="cls-8" x="88.45" y="450.35" width="13.5" height="17.64"/><rect class="cls-8" x="88.45" y="486.71" width="13.5" height="17.64"/><rect class="cls-8" x="88.45" y="523.06" width="13.5" height="17.64"/><rect class="cls-8" x="88.45" y="559.42" width="13.5" height="17.64"/><rect class="cls-8" x="88.45" y="595.78" width="13.5" height="17.64"/><rect class="cls-8" x="88.45" y="632.14" width="13.5" height="17.64"/><rect class="cls-7" x="870.11" y="416.18" width="20.28" height="46.08" transform="translate(1724.36 816.94) rotate(180)"/><rect class="cls-8" x="870.11" y="437.99" width="20.28" height="24.26" transform="translate(1724.36 838.76) rotate(180)"/><rect class="cls-7" x="795.73" y="386.23" width="46.43" height="76.02" transform="translate(1601.74 787) rotate(180)"/><rect class="cls-8" x="795.73" y="437.99" width="46.43" height="24.26" transform="translate(1601.74 838.76) rotate(180)"/><rect class="cls-7" x="777.42" y="447.84" width="141.38" height="411.95" transform="translate(1660.08 1246.13) rotate(180)"/><rect class="cls-8" x="875.08" y="489.71" width="13.5" height="17.64" transform="translate(1727.53 935.57) rotate(180)"/><rect class="cls-8" x="838.94" y="464.58" width="13.5" height="17.64"/><rect class="cls-8" x="838.94" y="500.94" width="13.5" height="17.64"/><rect class="cls-8" x="838.94" y="537.29" width="13.5" height="17.64"/><rect class="cls-8" x="838.94" y="573.65" width="13.5" height="17.64"/><rect class="cls-8" x="838.94" y="610.01" width="13.5" height="17.64"/><rect class="cls-8" x="838.94" y="646.37" width="13.5" height="17.64"/><rect class="cls-8" x="835.41" y="489.71" width="13.5" height="17.64" transform="translate(1648.17 935.57) rotate(180)"/><rect class="cls-8" x="799.26" y="464.58" width="13.5" height="17.64"/><rect class="cls-8" x="799.26" y="500.94" width="13.5" height="17.64"/><rect class="cls-8" x="799.26" y="537.29" width="13.5" height="17.64"/><rect class="cls-8" x="799.26" y="573.65" width="13.5" height="17.64"/><rect class="cls-8" x="799.26" y="610.01" width="13.5" height="17.64"/><rect class="cls-8" x="799.26" y="646.37" width="13.5" height="17.64"/><rect class="cls-8" x="795.73" y="489.71" width="13.5" height="17.64" transform="translate(1568.81 935.57) rotate(180)"/><rect class="cls-8" x="759.59" y="464.58" width="13.5" height="17.64"/><rect class="cls-8" x="759.59" y="500.94" width="13.5" height="17.64"/><rect class="cls-8" x="759.59" y="537.29" width="13.5" height="17.64"/><rect class="cls-8" x="759.59" y="573.65" width="13.5" height="17.64"/><rect class="cls-8" x="759.59" y="610.01" width="13.5" height="17.64"/><rect class="cls-8" x="759.59" y="646.37" width="13.5" height="17.64"/><rect class="cls-7" x="342.22" y="604.82" width="86.52" height="243" transform="translate(734.83 1391.14) rotate(180)"/><rect class="cls-7" x="385.48" y="511.06" width="43.26" height="336.75" transform="translate(778.09 1297.38) rotate(180)"/><rect class="cls-7" x="407.12" y="621.22" width="43.26" height="226.59" transform="translate(821.35 1407.54) rotate(180)"/><polygon class="cls-6" points="956.1 263.18 852.34 263.18 852.34 167.62 956.1 216.57 956.1 263.18"/><rect class="cls-6" x="829.33" y="241.02" width="149.78" height="507.79"/><rect class="cls-9" x="852.34" y="230.64" width="103.76" height="10.37"/><rect class="cls-9" x="866.85" y="448.62" width="15.29" height="23.58"/><rect class="cls-9" x="866.85" y="408.85" width="15.29" height="23.58"/><rect class="cls-9" x="866.85" y="369.08" width="15.29" height="23.58"/><rect class="cls-9" x="866.85" y="329.31" width="15.29" height="23.58"/><rect class="cls-9" x="866.85" y="289.53" width="15.29" height="23.58"/><rect class="cls-9" x="896.57" y="448.62" width="15.29" height="23.58"/><rect class="cls-9" x="896.57" y="408.85" width="15.29" height="23.58"/><rect class="cls-9" x="896.57" y="369.08" width="15.29" height="23.58"/><rect class="cls-9" x="896.57" y="329.31" width="15.29" height="23.58"/><rect class="cls-9" x="896.57" y="289.53" width="15.29" height="23.58"/><rect class="cls-9" x="926.3" y="448.62" width="15.29" height="23.58"/><rect class="cls-9" x="926.3" y="408.85" width="15.29" height="23.58"/><rect class="cls-9" x="926.3" y="369.08" width="15.29" height="23.58"/><rect class="cls-9" x="926.3" y="329.31" width="15.29" height="23.58"/><rect class="cls-9" x="926.3" y="289.53" width="15.29" height="23.58"/><rect class="cls-6" x="237.02" y="90.52" width="16.75" height="132.47"/><rect class="cls-9" x="237.02" y="210.72" width="16.75" height="12.27"/><rect class="cls-6" x="269.53" y="160.46" width="30.48" height="77.51"/><rect class="cls-6" x="233.32" y="281.49" width="121.5" height="564.07" transform="translate(552 1065.56) rotate(180)"/><rect class="cls-9" x="269.53" y="211.58" width="30.48" height="8.42"/><rect class="cls-9" x="275.85" y="581.96" width="12.4" height="19.13"/><rect class="cls-9" x="275.85" y="549.7" width="12.4" height="19.13"/><rect class="cls-9" x="275.85" y="452.92" width="12.4" height="19.13"/><rect class="cls-9" x="275.85" y="420.66" width="12.4" height="19.13"/><rect class="cls-9" x="275.85" y="356.13" width="12.4" height="19.13"/><rect class="cls-9" x="311.99" y="320.84" width="12.4" height="19.13" transform="translate(600.23 599.32) rotate(180)"/><rect class="cls-9" x="251.73" y="517.44" width="12.4" height="19.13"/><rect class="cls-9" x="251.73" y="420.66" width="12.4" height="19.13"/><rect class="cls-9" x="251.73" y="388.4" width="12.4" height="19.13"/><rect class="cls-9" x="251.73" y="323.87" width="12.4" height="19.13"/><rect class="cls-9" x="251.73" y="291.61" width="12.4" height="19.13"/><rect class="cls-9" x="227.62" y="581.96" width="12.4" height="19.13"/><rect class="cls-9" x="227.62" y="517.44" width="12.4" height="19.13"/><rect class="cls-9" x="227.62" y="452.92" width="12.4" height="19.13"/><rect class="cls-9" x="227.62" y="388.4" width="12.4" height="19.13"/><rect class="cls-9" x="227.62" y="291.61" width="12.4" height="19.13"/></g><path class="cls-10" d="M1052.58,281.67h0a9.76,9.76,0,0,0-9.76-9.76h-26.2a9.76,9.76,0,0,1-9.76-9.77h0a9.76,9.76,0,0,0-9.76-9.76H979.85a9.76,9.76,0,0,0-9.76,9.76h0a9.76,9.76,0,0,1-9.76,9.77h-18.4a9.76,9.76,0,0,0-9.76,9.76h0a9.77,9.77,0,0,1-9.77,9.76H896.69a9.77,9.77,0,0,0-9.76,9.77h0a9.76,9.76,0,0,0,9.76,9.76h187.82a9.76,9.76,0,0,0,9.76-9.76h0a9.77,9.77,0,0,0-9.76-9.77h-22.17A9.76,9.76,0,0,1,1052.58,281.67Z" transform="translate(-36.14 -61.49)"/><path class="cls-11" d="M363.3,125a6.6,6.6,0,1,1-6.6-6.6A6.61,6.61,0,0,1,363.3,125Z" transform="translate(-36.14 -61.49)"/><path class="cls-11" d="M725.83,518.31a6.61,6.61,0,1,1-6.61-6.6A6.6,6.6,0,0,1,725.83,518.31Z" transform="translate(-36.14 -61.49)"/><path class="cls-11" d="M327.17,657.14a6.6,6.6,0,1,1-6.6-6.6A6.61,6.61,0,0,1,327.17,657.14Z" transform="translate(-36.14 -61.49)"/><path class="cls-11" d="M401.12,293.35h-4.33V289a3.3,3.3,0,0,0-6.6,0v4.32h-4.33a3.31,3.31,0,0,0,0,6.61h4.33v4.32a3.3,3.3,0,0,0,6.6,0V300h4.33a3.31,3.31,0,0,0,0-6.61Z" transform="translate(-36.14 -61.49)"/><path class="cls-11" d="M820.09,234.54h-4.33v-4.33a3.3,3.3,0,1,0-6.6,0v4.33h-4.32a3.3,3.3,0,1,0,0,6.6h4.32v4.33a3.3,3.3,0,1,0,6.6,0v-4.33h4.33a3.3,3.3,0,0,0,0-6.6Z" transform="translate(-36.14 -61.49)"/><path class="cls-12" d="M399.64,93.22h0a10.58,10.58,0,0,0-10.57-10.58H360.7a10.57,10.57,0,0,1-10.58-10.57h0a10.58,10.58,0,0,0-10.58-10.58H320.87a10.58,10.58,0,0,0-10.58,10.58h0a10.58,10.58,0,0,1-10.58,10.57H279.78a10.58,10.58,0,0,0-10.57,10.58h0a10.58,10.58,0,0,1-10.58,10.58H230.78a10.58,10.58,0,0,0-10.58,10.57h0A10.58,10.58,0,0,0,230.78,125h2.06a10.57,10.57,0,0,1,10.57,10.57h0A10.58,10.58,0,0,0,254,146.1h89.58a10.58,10.58,0,0,0,10.58-10.58h0A10.57,10.57,0,0,1,364.72,125h9.7A10.57,10.57,0,0,1,385,135.52h0a10.58,10.58,0,0,0,10.58,10.58h11.61a10.58,10.58,0,0,0,10.58-10.58h0A10.57,10.57,0,0,1,428.33,125h5.9a10.58,10.58,0,0,0,10.57-10.58h0a10.57,10.57,0,0,0-10.57-10.57h-24A10.58,10.58,0,0,1,399.64,93.22ZM293.38,114.37h0A10.58,10.58,0,0,1,304,103.8h8.75a10.57,10.57,0,0,1,10.57,10.57h0A10.58,10.58,0,0,1,312.71,125H304A10.58,10.58,0,0,1,293.38,114.37Z" transform="translate(-36.14 -61.49)"/><g class="cls-13"><path class="cls-14" d="M580.49,709.9a1238.56,1238.56,0,0,0-358.25,45.76c-12.75,3.58-28.39,11.71-26.26,24.78,1.48,9.1,11.18,14.17,19.92,17.15,67,22.82,140.86,5.2,210.75,16.13,38.38,6,74.84,20.5,112.41,30.4C610.81,863,685.83,864.7,759.37,857.69c35.22-3.37,69.62-10,104.46-15.06,33.3-4.83,66.7-10.83,98.45-22.26a247.12,247.12,0,0,0,48.6-23.39c6-3.79,12-8.15,15.14-14.5,18.79-38.21-78.24-56-99.76-56.57-137.94-3.63-173.94-14.61-311.87-18.25Z" transform="translate(-36.14 -61.49)"/></g><rect class="cls-15" x="574.07" y="470.19" width="47.29" height="232.7" transform="translate(1159.3 1111.59) rotate(180)"/><path class="cls-15" d="M774,403.41H733.36V363H774a99.24,99.24,0,1,0,0-198.48H757V124.1h17c77,0,139.65,62.65,139.65,139.66S851,403.41,774,403.41Z" transform="translate(-36.14 -61.49)"/><path class="cls-15" d="M462.69,403.41H422.08c-77,0-139.65-62.65-139.65-139.65S345.08,124.1,422.08,124.1h17v40.42h-17a99.24,99.24,0,0,0,0,198.48h40.61Z" transform="translate(-36.14 -61.49)"/><path class="cls-15" d="M431.75,110.68H763.69a13.51,13.51,0,0,0,13.5-13.5h0a13.5,13.5,0,0,0-13.5-13.5H431.75a13.49,13.49,0,0,0-13.5,13.5h0A13.5,13.5,0,0,0,431.75,110.68Z" transform="translate(-36.14 -61.49)"/><path class="cls-16" d="M597.72,110.68h0A159.24,159.24,0,0,1,757,269.92V487.38a0,0,0,0,1,0,0H438.48a0,0,0,0,1,0,0V269.92A159.24,159.24,0,0,1,597.72,110.68Z" transform="translate(1159.3 536.57) rotate(180)"/><path class="cls-15" d="M462.08,742.63H733.36a39.75,39.75,0,0,0-39.75-39.74H501.82a39.74,39.74,0,0,0-39.74,39.74Z" transform="translate(-36.14 -61.49)"/><path class="cls-17" d="M579.11,381.58V222.46l-22.18,9.34a21.12,21.12,0,0,1-27.58-11.07h0a21.12,21.12,0,0,1,10.44-27.51l48.36-22.62a9.53,9.53,0,0,1,4-.9h22.27a9.53,9.53,0,0,1,9.52,9.53V381.58A22.44,22.44,0,0,1,601.54,404h0A22.44,22.44,0,0,1,579.11,381.58Z" transform="translate(-36.14 -61.49)"/><path class="cls-18" d="M411.75,656.73s10.07,69.08,11.18,77.73,18.14,5.3,26.51,5,42.57-4.79,32,5.07c-9.62,9-20.26,14.74-24.73,17.53s-32.64,15.63-40.45,15.07-6.7-20.93-11.72-35.16-22-42.39-23.42-71.42Z" transform="translate(-36.14 -61.49)"/><path class="cls-19" d="M333.41,664.15S294.89,709.33,281.68,724s-8.08,23.49-4.41,30.1,26.68,19.34,22.27,25-20.8-3.18-36.71-10.52-27.69-16.4-24.37-24.23,14.09-19.09,19.48-26.18S298.32,653,298.32,653Z" transform="translate(-36.14 -61.49)"/><path class="cls-11" d="M376.05,436.67c-11.95,10.59.71,37.74,44.8,38.8s73-34.22,75.13-38.8c0,0-7.4-12.7-14.81-15.88,0,0-27.87,22.58-48.33,22.58S391.57,422.91,376.05,436.67Z" transform="translate(-36.14 -61.49)"/><path class="cls-11" d="M329.8,426.88c-15.2,3.71-23.83,38.45-30.14,63.3s-18.94,56.41-18.94,56.41,9.08,9.07,17,9.07c0,0,20.11-37.47,30-61.93S338.64,424.73,329.8,426.88Z" transform="translate(-36.14 -61.49)"/><path class="cls-20" d="M386.17,357.22c6.22,5.89,6.72,18.47,4.71,33.93s-3,22.84-10.42,22.17-9.4-.67-10.08,5-1.67,13.43-1.67,13.43l-29.57-3s4-17.47,3.36-26.2-7.72-43,6.72-48S379.79,351.17,386.17,357.22Z" transform="translate(-36.14 -61.49)"/><path class="cls-11" d="M391.93,433.49c17.85,11.12,8.11,31.4,4.58,49.74S394,516,383.81,517.09s-37.74,0-48,0-15.88-9.88-17.29-32.45,1.41-57.85,16.58-60.32S370.43,420.09,391.93,433.49Z" transform="translate(-36.14 -61.49)"/><path class="cls-21" d="M358.29,339.21s10.42-7,19.82-3.36,13.82,18.34,13.82,18.34,11.38,4.37,7.35,10.42-11.09,6-21.17,5.37c0,0-14,19.17-14.88,25.71s2,28.68-6,31.4-12.74,4.7-12.74,12.43S337.46,461,322,457.32s-28.89-14.1-22.84-25.53S307.9,418,302.53,416s-7.73-17.08,4.36-24.33,15.12-12.95,12.43-25.05,5.38-26.87,19.82-28.22S358.29,339.21,358.29,339.21Z" transform="translate(-36.14 -61.49)"/><path class="cls-22" d="M492.75,431.79s9.23-.74,9.44-10.13-4.22-8.77-4.72-19.2-.29-23.29-3.84-25.42-4,19.78-5.43,26.25-3.17,16.7-4,19.31Z" transform="translate(-36.14 -61.49)"/><polygon class="cls-23" points="352.02 453.9 352.02 473.33 292 473.33 292 451 352.02 453.9"/><path class="cls-24" d="M388.17,534.82c11.14,11.49,31.88,82,36,128.93,0,0-31.91,8.3-75,8.3s-90.95-25.53-93.18-30,52.34-89.68,72.12-107.23Z" transform="translate(-36.14 -61.49)"/><path class="cls-25" d="M238.46,744.32c1.42-3.34,4.2-7.31,7.33-11.31,3.23,6,10.59,18.32,20.2,24.68,7.48,5,16.3,6.47,22.49,6.86,6.83,5.5,13.64,11.23,11.06,14.52-4.4,5.63-20.8-3.18-36.71-10.52S235.14,752.15,238.46,744.32Z" transform="translate(-36.14 -61.49)"/><path class="cls-26" d="M282.49,548.2s-8.78,3.34-13.57,9.17-4.37,8.75,2.92,6.87-5.21,11.88-1.67,17.71,17.28,5.88,20.2,1.59,7.32-27.88,7.32-27.88Z" transform="translate(-36.14 -61.49)"/><path class="cls-25" d="M439.79,754.45a54.18,54.18,0,0,0,24.8-16h0c11.6-.64,23.72-.32,16.82,6.11-9.62,9-20.26,14.74-24.73,17.53s-32.64,15.63-40.45,15.07c-5.05-.36-6.37-9-8-18.88C414.78,758.26,428.41,757.79,439.79,754.45Z" transform="translate(-36.14 -61.49)"/><path class="cls-27" d="M371.73,381.4S367.7,373,364,373s-7.05,7.39-6.72,13.77,1.68,9.4,9.75,9.07Z" transform="translate(-36.14 -61.49)"/><path class="cls-28" d="M378.11,366.62s.23,21-4,20.83S368,369.31,368,369.31Z" transform="translate(-36.14 -61.49)"/><path class="cls-29" d="M882.39,516.89c4,19.34,7.84,87.5,7.84,116.94S905.5,749.42,905.5,749.42s-21,4.9-32,4.9c0,0-23.59-74.69-27.4-115.58s-7.26-59.43-7.26-59.43-19.46,56.15-22.18,94.87-5.46,80.14-5.46,80.14h-39.8s.62-93.45,4-129,22-108.47,22-108.47Z" transform="translate(-36.14 -61.49)"/><path class="cls-30" d="M876.51,397.67s21.17-21.1,36.19-40.83A170.94,170.94,0,0,0,935,317.36l19.74,2.58s-5.58,43.82-25.74,72.54-39.07,45-41.85,50.17,2.69,67.8-4.77,74.24-34.36,7.69-43.58,6.43-40.25-2.57-45.4-9,6.88-104.29,19.31-109.8L825.16,399Z" transform="translate(-36.14 -61.49)"/><path class="cls-31" d="M812.72,404.51c-18.86,6.62-36.67,29.77-57.68,37.25S719.41,445,719.41,445l-7.83,20.66s11.4,8.54,41,4.27S811,442.47,811,442.47Z" transform="translate(-36.14 -61.49)"/><path class="cls-32" d="M887.07,341.38s7.83,7.38,4.15,15.22-13,29.74-17.79,29.51-9-8.3-9-8.3l9-40.12Z" transform="translate(-36.14 -61.49)"/><path class="cls-33" d="M853.42,329.12c-18.65-.67-24.93,9.31-25.83,33.63s13.21,29.73,17.72,29.73,21.62-3.3,27.93-24S870.23,329.72,853.42,329.12Z" transform="translate(-36.14 -61.49)"/><path class="cls-34" d="M864.47,377.81s3.74,4.84,10.75,1.15,11.89-23.4-.16-19.76C870.7,360.52,864.47,377.81,864.47,377.81Z" transform="translate(-36.14 -61.49)"/><path class="cls-35" d="M878.07,341.38s4.15,7.61,2.31,11.53-7.14,15.55-11.76,15.06-2.3-21.05-2.3-21.05-23.82,4.84-38.77-.7-14-14.9-12.88-17.13,9,.76,11.76,1.92c0,0-9-13.61-3.23-18.91s12.22-1.84,18.45,2.54,8.53,2.76,8.53,2.76,26.39-2.76,32.21,8.54,4.68,15.44,4.68,15.44Z" transform="translate(-36.14 -61.49)"/><path class="cls-36" d="M867.63,379.92s-3.47,19.74-3.16,27.71H835.56s3.1-15.81,3.1-21.52Z" transform="translate(-36.14 -61.49)"/><path class="cls-11" d="M849.73,401s9.52,14.83,9.29,19.48c0,0,13.28-11.07,17.49-22.8l-10.25-9.12S856.37,397.67,849.73,401Z" transform="translate(-36.14 -61.49)"/><path class="cls-11" d="M849.73,401s-12.4,11.06-16.16,17.93c0,0-6.64-11.51-8.41-19.92l12.94-6.52Z" transform="translate(-36.14 -61.49)"/><path class="cls-15" d="M838.07,412.77l1.56,10.16h14l3.77-8.05s-3-11.69-7.68-13.89S838.07,412.77,838.07,412.77Z" transform="translate(-36.14 -61.49)"/><path class="cls-15" d="M839.63,422.93s-16.55,76.83-19.41,87.93c0,0,11.37,14.31,17.85,20,0,0,15.73-16.47,19.34-21.48l-3.77-86.49Z" transform="translate(-36.14 -61.49)"/><polygon class="cls-11" points="898.87 255.87 900.73 249.32 918.61 250.61 918.61 258.44 898.87 255.87"/><polygon class="cls-11" points="683.27 383.48 678.09 381.9 670.55 399.69 675.44 404.13 683.27 383.48"/><path class="cls-37" d="M714.23,443.39c-4.8-3.43-5.94-39.05-11.2-37.69s-2.51,18.72-2.51,27.87-1.37,10.74-5.26,6.17-6.41-13.83-10.51-13.49c-5.49.46-.23,7.54,1.6,14.17s8.45,22.32,20.34,20.76Z" transform="translate(-36.14 -61.49)"/><path class="cls-38" d="M935,288s-2.3-14.07,4.37-15.5,19.79,1,21.46,9.78-4.76,27.45-8.1,29.7L940.12,311S935,297.68,935,288Z" transform="translate(-36.14 -61.49)"/><path class="cls-25" d="M807,754.32s2.87,21,2.87,26.79-16.8,3.69-29.1,3.69-35.25.35-42.22.35-16.81-6.09-6.15-9,27.27-7,36.39-10.66,9.11-11.21,9.11-11.21Z" transform="translate(-36.14 -61.49)"/><path class="cls-25" d="M901.43,750.32s8.74,25,8.74,30.79-16.81,3.69-29.11,3.69-35.25.35-42.22.35-16.8-6.09-6.14-9,27.27-7,36.38-10.66,9.11-11.21,9.11-11.21Z" transform="translate(-36.14 -61.49)"/><path class="cls-39" d="M936.87,310.81s-3.69-5.19-7.5-9.48-4.29-13.11,2.62-15.5,11.21,1.43,15,3.82,4.67,4.41-3.81,5.72a10.82,10.82,0,0,1-5-.24S950,299,949.37,311.71Z" transform="translate(-36.14 -61.49)"/><path class="cls-40" d="M58,82.78c3.22,0,3.22-5,0-5s-3.22,5,0,5Z" transform="translate(-36.14 -61.49)"/><path class="cls-40" d="M38.56,1002.22c3.21,0,3.22-5,0-5s-3.23,5,0,5Z" transform="translate(-36.14 -61.49)"/></svg>